{"glyphs":{"0":{"ha":853,"x_min":58,"x_max":794,"o":"m 794 407 q 767 238 794 315 q 690 105 739 161 q 573 17 640 49 q 426 -14 506 -14 q 280 17 347 -14 q 163 105 213 49 q 86 238 114 161 q 58 407 58 315 q 86 576 58 499 q 163 709 114 653 q 280 797 213 765 q 426 829 347 829 q 573 797 506 829 q 690 709 640 765 q 767 576 739 653 q 794 407 794 499 m 528 407 q 499 538 528 488 q 426 588 471 588 q 351 538 379 588 q 322 407 322 488 q 351 277 322 326 q 426 228 379 228 q 499 277 471 228 q 528 407 528 326 z "},"1":{"ha":760,"x_min":57,"x_max":726,"o":"m 726 236 l 726 0 l 83 0 l 83 236 l 281 236 l 281 513 q 242 480 268 496 q 183 450 215 464 q 117 428 150 436 q 57 419 83 419 l 57 661 q 111 676 76 661 q 181 710 146 690 q 244 753 215 731 q 281 793 272 776 l 550 793 l 550 236 l 726 236 z "},"2":{"ha":832,"x_min":43,"x_max":775,"o":"m 43 0 q 54 122 43 69 q 90 217 65 175 q 155 293 115 260 q 253 358 194 326 q 372 423 328 399 q 438 463 415 447 q 466 488 460 478 q 472 511 472 499 q 450 563 472 546 q 389 579 428 579 q 302 556 343 579 q 217 479 261 532 l 50 675 q 118 728 76 704 q 210 770 160 753 q 318 797 261 788 q 435 807 375 807 q 677 741 594 807 q 760 557 760 675 q 749 481 760 514 q 719 420 738 447 q 674 371 700 393 q 618 329 647 349 q 545 284 583 306 q 469 236 507 263 l 775 236 l 775 0 l 43 0 z "},"3":{"ha":807,"x_min":28,"x_max":761,"o":"m 567 329 q 645 300 610 322 q 706 244 681 278 q 747 169 732 211 q 761 79 761 126 q 733 -39 761 14 q 655 -128 706 -92 q 531 -185 604 -165 q 365 -204 457 -204 q 176 -177 258 -204 q 28 -93 94 -150 l 163 99 q 248 52 203 67 q 351 38 293 38 q 455 59 422 38 q 488 128 488 81 q 446 203 488 181 q 310 226 404 226 l 267 226 l 267 410 l 315 410 q 422 435 382 410 q 463 506 463 461 q 439 558 463 539 q 372 576 415 576 q 281 552 324 576 q 207 479 239 528 l 40 675 q 103 726 65 703 q 190 765 142 749 q 292 791 238 782 q 403 800 346 800 q 543 783 479 800 q 651 733 607 765 q 721 656 696 701 q 746 556 746 611 q 732 476 746 514 q 694 408 718 439 q 638 357 671 378 q 567 329 606 336 z "},"4":{"ha":814,"x_min":21,"x_max":764,"o":"m 378 -176 l 378 -4 l 21 -4 l 21 232 l 461 793 l 642 793 l 642 232 l 764 232 l 764 -4 l 642 -4 l 642 -176 l 378 -176 m 281 232 l 408 232 l 408 399 l 281 232 z "},"5":{"ha":781,"x_min":33,"x_max":744,"o":"m 417 453 q 549 429 489 453 q 652 363 608 406 q 720 262 696 321 q 744 132 744 203 q 717 -6 744 57 q 638 -112 689 -68 q 517 -182 588 -157 q 363 -207 447 -207 q 167 -167 254 -207 q 33 -51 81 -126 l 178 115 q 267 48 218 72 q 364 24 317 24 q 444 51 415 24 q 474 126 474 79 q 447 200 474 172 q 378 228 421 228 q 324 215 349 228 q 288 179 300 201 l 61 179 l 178 793 l 672 793 l 672 553 l 368 553 l 353 446 q 368 449 358 447 q 388 451 375 450 q 417 453 400 453 z "},"6":{"ha":846,"x_min":54,"x_max":794,"o":"m 794 333 q 767 197 794 260 q 689 87 739 133 q 572 13 639 40 q 425 -14 504 -14 q 151 114 247 -14 q 54 472 54 242 q 81 691 54 594 q 160 855 108 788 q 285 958 211 922 q 451 994 358 994 q 765 861 632 994 l 619 692 q 447 767 544 767 q 340 726 379 767 q 297 610 300 685 q 447 657 350 657 q 585 633 522 657 q 695 565 649 608 q 768 462 742 521 q 794 333 794 403 m 425 207 q 470 217 449 207 q 508 245 492 228 q 533 285 524 263 q 543 333 543 308 q 508 416 543 382 q 425 450 474 450 q 342 416 376 450 q 307 333 307 382 q 317 285 307 308 q 342 245 326 263 q 380 217 358 228 q 425 207 401 207 z "},"7":{"ha":824,"x_min":42,"x_max":833,"o":"m 418 571 l 42 571 l 42 811 l 833 811 l 351 -175 l 53 -175 l 418 571 z "},"8":{"ha":849,"x_min":51,"x_max":796,"o":"m 796 307 q 767 176 796 235 q 687 74 738 117 q 568 9 636 32 q 424 -14 500 -14 q 283 9 350 -14 q 164 75 215 32 q 82 179 113 118 q 51 315 51 240 q 63 385 51 353 q 91 443 74 417 q 129 490 108 469 q 171 526 150 511 q 105 597 131 550 q 79 693 79 644 q 112 819 79 764 q 194 911 144 874 q 306 967 244 949 q 424 986 367 986 q 542 967 481 986 q 653 913 603 949 q 737 822 704 876 q 769 696 769 767 q 743 599 769 647 q 676 526 717 550 q 719 490 697 511 q 757 440 740 468 q 785 379 774 413 q 796 307 796 346 m 528 322 q 498 393 528 368 q 424 418 468 418 q 349 392 378 418 q 319 322 319 367 q 349 254 319 282 q 424 226 379 226 q 499 254 469 226 q 528 322 528 282 m 347 688 q 372 632 347 650 q 424 614 396 614 q 476 632 451 614 q 501 688 501 650 q 480 735 501 715 q 424 754 458 754 q 368 735 389 754 q 347 688 347 715 z "},"9":{"ha":818,"x_min":38,"x_max":778,"o":"m 38 446 q 65 582 38 518 q 143 692 93 646 q 260 766 193 739 q 407 793 328 793 q 565 760 496 793 q 681 665 633 728 q 753 513 728 603 q 778 307 778 422 q 751 88 778 185 q 672 -76 724 -8 q 547 -179 621 -143 q 381 -215 474 -215 q 67 -82 200 -215 l 213 88 q 385 13 288 13 q 492 53 453 13 q 535 169 532 94 q 385 122 482 122 q 247 147 310 122 q 137 215 183 171 q 64 317 90 258 q 38 446 38 376 m 407 572 q 362 562 383 572 q 324 534 340 551 q 299 494 308 517 q 289 446 289 471 q 324 363 289 397 q 407 329 358 329 q 490 363 456 329 q 525 446 525 397 q 515 494 525 471 q 490 534 506 517 q 452 562 474 551 q 407 572 431 572 z "},"A":{"ha":926,"x_min":-3,"x_max":929,"o":"m 340 986 l 588 986 l 929 0 l 654 0 l 594 193 l 332 193 l 274 0 l -3 0 l 340 986 m 551 374 l 464 679 l 372 374 l 551 374 z "},"Æ":{"ha":1349,"x_min":-36,"x_max":1307,"o":"m 563 986 l 1294 986 l 1294 750 l 903 750 l 903 619 l 1219 619 l 1219 383 l 903 383 l 903 236 l 1307 236 l 1307 0 l 633 0 l 633 193 l 354 193 l 250 0 l -36 0 l 563 986 m 613 429 l 613 688 l 468 429 l 613 429 z "},"Ǽ":{"ha":1349,"x_min":-36,"x_max":1307,"o":"m 563 986 l 1294 986 l 1294 750 l 903 750 l 903 619 l 1219 619 l 1219 383 l 903 383 l 903 236 l 1307 236 l 1307 0 l 633 0 l 633 193 l 354 193 l 250 0 l -36 0 l 563 986 m 613 429 l 613 688 l 468 429 l 613 429 m 949 1028 l 782 1072 l 851 1269 l 1086 1269 l 949 1028 z "},"´":{"ha":394,"x_min":63,"x_max":367,"o":"m 229 772 l 63 817 l 132 1014 l 367 1014 l 229 772 z "},"Á":{"ha":926,"x_min":-3,"x_max":929,"o":"m 340 986 l 588 986 l 929 0 l 654 0 l 594 193 l 332 193 l 274 0 l -3 0 l 340 986 m 551 374 l 464 679 l 372 374 l 551 374 m 544 1028 l 378 1072 l 447 1269 l 682 1269 l 544 1028 z "},"Ă":{"ha":926,"x_min":-3,"x_max":929,"o":"m 340 986 l 588 986 l 929 0 l 654 0 l 594 193 l 332 193 l 274 0 l -3 0 l 340 986 m 551 374 l 464 679 l 372 374 l 551 374 m 464 1157 q 520 1189 496 1157 q 549 1269 544 1221 l 685 1269 q 669 1178 685 1219 q 624 1108 653 1138 q 553 1061 594 1078 q 464 1044 513 1044 q 374 1061 415 1044 q 304 1108 333 1078 q 259 1178 275 1138 q 243 1269 243 1219 l 379 1269 q 404 1190 379 1224 q 464 1157 429 1157 z "},"˘":{"ha":511,"x_min":35,"x_max":476,"o":"m 256 901 q 312 933 288 901 q 340 1014 336 965 l 476 1014 q 460 923 476 964 q 415 852 444 882 q 345 806 386 822 q 256 789 304 789 q 166 806 207 789 q 96 852 125 822 q 51 923 67 882 q 35 1014 35 964 l 171 1014 q 196 935 171 968 q 256 901 221 901 z "},"Â":{"ha":926,"x_min":-3,"x_max":929,"o":"m 340 986 l 588 986 l 929 0 l 654 0 l 594 193 l 332 193 l 274 0 l -3 0 l 340 986 m 551 374 l 464 679 l 372 374 l 551 374 m 213 1110 l 369 1269 l 558 1269 l 715 1110 l 582 1051 l 464 1139 l 346 1051 l 213 1110 z "},"ˆ":{"ha":558,"x_min":28,"x_max":531,"o":"m 28 854 l 185 1014 l 374 1014 l 531 854 l 397 796 l 279 883 l 161 796 l 28 854 z "},"Ä":{"ha":926,"x_min":-3,"x_max":929,"o":"m 340 986 l 588 986 l 929 0 l 654 0 l 594 193 l 332 193 l 274 0 l -3 0 l 340 986 m 551 374 l 464 679 l 372 374 l 551 374 m 196 1063 l 196 1257 l 413 1257 l 413 1063 l 196 1063 m 515 1063 l 515 1257 l 732 1257 l 732 1063 l 515 1063 z "},"¨":{"ha":786,"x_min":125,"x_max":661,"o":"m 125 806 l 125 1000 l 342 1000 l 342 806 l 125 806 m 444 806 l 444 1000 l 661 1000 l 661 806 l 444 806 z "},"À":{"ha":926,"x_min":-3,"x_max":929,"o":"m 340 986 l 588 986 l 929 0 l 654 0 l 594 193 l 332 193 l 274 0 l -3 0 l 340 986 m 551 374 l 464 679 l 372 374 l 551 374 m 246 1271 l 481 1271 l 550 1074 l 383 1029 l 246 1271 z "},"`":{"ha":394,"x_min":63,"x_max":367,"o":"m 63 1014 l 297 1014 l 367 817 l 200 772 l 63 1014 z "},"Ā":{"ha":926,"x_min":-3,"x_max":929,"o":"m 340 986 l 588 986 l 929 0 l 654 0 l 594 193 l 332 193 l 274 0 l -3 0 l 340 986 m 551 374 l 464 679 l 372 374 l 551 374 m 250 1099 l 250 1256 l 681 1256 l 681 1099 l 250 1099 z "},"¯":{"ha":608,"x_min":89,"x_max":519,"o":"m 89 843 l 89 1000 l 519 1000 l 519 843 l 89 843 z "},"Ą":{"ha":944,"x_min":-3,"x_max":929,"o":"m 878 -299 q 718 -247 769 -286 q 667 -160 667 -208 q 697 -78 667 -119 q 786 0 726 -36 l 654 0 l 594 193 l 332 193 l 274 0 l -3 0 l 340 986 l 588 986 l 929 0 q 855 -56 881 -28 q 829 -108 829 -85 q 853 -146 829 -132 q 926 -160 876 -160 l 878 -299 m 551 374 l 464 679 l 372 374 l 551 374 z "},"˛":{"ha":461,"x_min":103,"x_max":365,"o":"m 314 -297 q 154 -246 206 -285 q 103 -158 103 -207 q 149 -57 103 -108 q 288 35 196 -6 l 365 1 q 291 -55 317 -26 q 265 -107 265 -83 q 289 -144 265 -131 q 363 -158 313 -158 l 314 -297 l 314 -297 z "},"Å":{"ha":926,"x_min":-3,"x_max":929,"o":"m 340 986 l 588 986 l 929 0 l 654 0 l 594 193 l 332 193 l 274 0 l -3 0 l 340 986 m 551 374 l 464 679 l 372 374 l 551 374 m 301 1149 q 345 1240 301 1210 q 464 1269 389 1269 q 583 1240 539 1269 q 626 1149 626 1210 q 583 1058 626 1088 q 464 1028 539 1028 q 345 1058 389 1028 q 301 1149 301 1088 m 464 1194 q 424 1182 440 1194 q 408 1150 408 1169 q 424 1116 408 1129 q 464 1103 440 1103 q 503 1116 488 1103 q 519 1150 519 1129 q 503 1182 519 1169 q 464 1194 488 1194 z "},"˚":{"ha":381,"x_min":28,"x_max":353,"o":"m 28 893 q 72 984 28 954 q 190 1014 115 1014 q 309 984 265 1014 q 353 893 353 954 q 309 802 353 832 q 190 772 265 772 q 72 802 115 772 q 28 893 28 832 m 190 939 q 151 926 167 939 q 135 894 135 914 q 151 860 135 874 q 190 847 167 847 q 230 860 214 847 q 246 894 246 874 q 230 926 246 914 q 190 939 214 939 z "},"Ǻ":{"ha":926,"x_min":-3,"x_max":929,"o":"m 582 1122 q 626 1032 626 1092 q 597 954 626 983 l 929 0 l 654 0 l 594 193 l 332 193 l 274 0 l -3 0 l 329 956 q 301 1032 301 986 q 325 1104 301 1076 q 393 1144 349 1132 l 446 1275 l 681 1275 l 582 1122 m 551 374 l 464 679 l 372 374 l 551 374 m 464 1078 q 424 1065 440 1078 q 408 1033 408 1053 q 424 999 408 1013 q 464 986 440 986 q 503 999 488 986 q 519 1033 519 1013 q 503 1065 519 1053 q 464 1078 488 1078 z "},"Ã":{"ha":926,"x_min":-3,"x_max":929,"o":"m 340 986 l 588 986 l 929 0 l 654 0 l 594 193 l 332 193 l 274 0 l -3 0 l 340 986 m 551 374 l 464 679 l 372 374 l 551 374 m 553 1050 q 497 1060 521 1050 q 451 1083 472 1071 q 410 1106 431 1096 q 367 1117 390 1117 q 331 1107 343 1117 q 312 1085 318 1097 q 304 1062 306 1072 q 303 1050 303 1051 l 163 1050 q 173 1105 163 1068 q 207 1178 183 1142 q 267 1242 231 1214 q 356 1269 303 1269 q 414 1258 389 1269 q 460 1234 439 1247 q 500 1210 481 1221 q 543 1199 519 1199 q 579 1209 565 1199 q 601 1233 593 1219 q 610 1257 608 1246 q 613 1269 613 1268 l 751 1269 q 740 1222 751 1257 q 706 1148 729 1186 q 644 1080 682 1110 q 553 1050 607 1050 z "},"˜":{"ha":644,"x_min":28,"x_max":617,"o":"m 418 794 q 362 805 386 794 q 317 828 338 815 q 276 851 296 840 q 232 861 256 861 q 196 851 208 861 q 177 829 183 842 q 169 806 171 817 q 168 794 168 796 l 28 794 q 38 849 28 813 q 72 922 49 886 q 132 986 96 958 q 221 1014 168 1014 q 279 1003 254 1014 q 325 978 304 992 q 365 954 346 965 q 408 943 385 943 q 444 953 431 943 q 466 977 458 964 q 476 1001 474 990 q 478 1014 478 1013 l 617 1014 q 606 966 617 1001 q 571 892 594 931 q 510 824 547 854 q 418 794 472 794 z "},"B":{"ha":958,"x_min":85,"x_max":924,"o":"m 924 253 q 896 138 924 186 q 819 60 868 90 q 706 15 771 29 q 569 0 642 0 l 85 0 l 85 986 l 657 986 q 750 964 708 986 q 821 906 792 942 q 866 826 850 871 q 882 733 882 781 q 847 601 882 664 q 740 506 811 538 q 874 419 825 481 q 924 253 924 357 m 649 308 q 629 369 649 344 q 579 393 610 393 l 356 393 l 356 228 l 569 228 q 626 249 603 228 q 649 308 649 269 m 356 756 l 356 604 l 540 604 q 591 619 568 604 q 614 681 614 635 q 594 738 614 721 q 549 756 575 756 l 356 756 z "},"C":{"ha":960,"x_min":31,"x_max":949,"o":"m 31 501 q 65 679 31 592 q 164 836 99 767 q 322 949 229 906 q 535 992 415 992 q 783 933 678 992 q 939 776 888 874 l 732 629 q 695 689 718 665 q 644 726 672 713 q 587 746 617 740 q 529 751 557 751 q 428 728 471 751 q 359 669 386 706 q 319 585 332 632 q 306 493 306 539 q 321 394 306 442 q 365 311 336 347 q 437 253 394 275 q 532 232 479 232 q 589 238 560 232 q 645 259 618 244 q 694 297 672 274 q 728 353 715 319 l 949 221 q 881 124 926 167 q 778 51 836 81 q 655 7 721 22 q 526 -8 589 -8 q 326 35 417 -8 q 169 151 235 79 q 67 315 103 224 q 31 501 31 407 z "},"\r":{"ha":0,"x_min":0,"x_max":0,"o":""},"Ć":{"ha":960,"x_min":31,"x_max":949,"o":"m 31 501 q 65 679 31 592 q 164 836 99 767 q 322 949 229 906 q 535 992 415 992 q 783 933 678 992 q 939 776 888 874 l 732 629 q 695 689 718 665 q 644 726 672 713 q 587 746 617 740 q 529 751 557 751 q 428 728 471 751 q 359 669 386 706 q 319 585 332 632 q 306 493 306 539 q 321 394 306 442 q 365 311 336 347 q 437 253 394 275 q 532 232 479 232 q 589 238 560 232 q 645 259 618 244 q 694 297 672 274 q 728 353 715 319 l 949 221 q 881 124 926 167 q 778 51 836 81 q 655 7 721 22 q 526 -8 589 -8 q 326 35 417 -8 q 169 151 235 79 q 67 315 103 224 q 31 501 31 407 m 622 1028 l 456 1072 l 525 1269 l 760 1269 l 622 1028 z "},"Č":{"ha":960,"x_min":31,"x_max":949,"o":"m 31 501 q 65 679 31 592 q 164 836 99 767 q 322 949 229 906 q 535 992 415 992 q 783 933 678 992 q 939 776 888 874 l 732 629 q 695 689 718 665 q 644 726 672 713 q 587 746 617 740 q 529 751 557 751 q 428 728 471 751 q 359 669 386 706 q 319 585 332 632 q 306 493 306 539 q 321 394 306 442 q 365 311 336 347 q 437 253 394 275 q 532 232 479 232 q 589 238 560 232 q 645 259 618 244 q 694 297 672 274 q 728 353 715 319 l 949 221 q 881 124 926 167 q 778 51 836 81 q 655 7 721 22 q 526 -8 589 -8 q 326 35 417 -8 q 169 151 235 79 q 67 315 103 224 q 31 501 31 407 m 431 1269 l 549 1182 l 667 1269 l 800 1211 l 643 1051 l 454 1051 l 297 1211 l 431 1269 z "},"ˇ":{"ha":558,"x_min":28,"x_max":531,"o":"m 161 1014 l 279 926 l 397 1014 l 531 956 l 374 796 l 185 796 l 28 956 l 161 1014 z "},"Ç":{"ha":960,"x_min":31,"x_max":949,"o":"m 385 -178 q 436 -197 400 -187 q 510 -206 472 -206 q 565 -196 542 -206 q 588 -162 588 -186 q 567 -130 588 -139 q 511 -121 546 -121 q 449 -126 482 -121 q 401 -133 417 -131 l 464 -4 q 287 56 367 8 q 150 173 207 103 q 62 328 93 243 q 31 501 31 414 q 65 679 31 592 q 164 836 99 767 q 322 949 229 906 q 535 992 415 992 q 783 933 678 992 q 939 776 888 874 l 732 629 q 695 689 718 665 q 644 726 672 713 q 587 746 617 740 q 529 751 557 751 q 428 728 471 751 q 359 669 386 706 q 319 585 332 632 q 306 493 306 539 q 321 394 306 442 q 365 311 336 347 q 437 253 394 275 q 532 232 479 232 q 589 238 560 232 q 645 259 618 244 q 694 297 672 274 q 728 353 715 319 l 949 221 q 888 131 928 171 q 795 61 847 90 q 683 15 743 32 q 564 -7 624 -3 l 536 -47 q 553 -45 544 -46 q 574 -44 563 -44 q 622 -51 599 -44 q 664 -69 646 -57 q 693 -103 682 -82 q 704 -153 704 -124 q 653 -253 704 -211 q 493 -296 603 -296 q 403 -287 443 -296 q 336 -267 364 -278 l 385 -178 z "},"¸":{"ha":503,"x_min":28,"x_max":396,"o":"m 76 -178 q 128 -197 92 -187 q 201 -206 164 -206 q 256 -196 233 -206 q 279 -162 279 -186 q 258 -130 279 -139 q 203 -121 238 -121 q 141 -126 174 -121 q 93 -133 108 -131 l 182 50 l 278 24 l 228 -47 q 245 -45 236 -46 q 265 -44 254 -44 q 314 -51 290 -44 q 356 -69 338 -57 q 385 -103 374 -82 q 396 -153 396 -124 q 345 -253 396 -211 q 185 -296 294 -296 q 95 -287 135 -296 q 28 -267 56 -278 l 76 -178 z "},"Ĉ":{"ha":960,"x_min":31,"x_max":949,"o":"m 31 501 q 65 679 31 592 q 164 836 99 767 q 322 949 229 906 q 535 992 415 992 q 783 933 678 992 q 939 776 888 874 l 732 629 q 695 689 718 665 q 644 726 672 713 q 587 746 617 740 q 529 751 557 751 q 428 728 471 751 q 359 669 386 706 q 319 585 332 632 q 306 493 306 539 q 321 394 306 442 q 365 311 336 347 q 437 253 394 275 q 532 232 479 232 q 589 238 560 232 q 645 259 618 244 q 694 297 672 274 q 728 353 715 319 l 949 221 q 881 124 926 167 q 778 51 836 81 q 655 7 721 22 q 526 -8 589 -8 q 326 35 417 -8 q 169 151 235 79 q 67 315 103 224 q 31 501 31 407 m 279 1110 l 436 1269 l 625 1269 l 782 1110 l 649 1051 l 531 1139 l 413 1051 l 279 1110 z "},"Ċ":{"ha":960,"x_min":31,"x_max":949,"o":"m 31 501 q 65 679 31 592 q 164 836 99 767 q 322 949 229 906 q 535 992 415 992 q 783 933 678 992 q 939 776 888 874 l 732 629 q 695 689 718 665 q 644 726 672 713 q 587 746 617 740 q 529 751 557 751 q 428 728 471 751 q 359 669 386 706 q 319 585 332 632 q 306 493 306 539 q 321 394 306 442 q 365 311 336 347 q 437 253 394 275 q 532 232 479 232 q 589 238 560 232 q 645 259 618 244 q 694 297 672 274 q 728 353 715 319 l 949 221 q 881 124 926 167 q 778 51 836 81 q 655 7 721 22 q 526 -8 589 -8 q 326 35 417 -8 q 169 151 235 79 q 67 315 103 224 q 31 501 31 407 m 424 1061 l 424 1269 l 660 1269 l 660 1061 l 424 1061 z "},"˙":{"ha":375,"x_min":69,"x_max":306,"o":"m 69 806 l 69 1014 l 306 1014 l 306 806 l 69 806 z "},"D":{"ha":994,"x_min":85,"x_max":961,"o":"m 85 0 l 85 986 l 464 986 q 679 947 586 986 q 835 842 772 908 q 929 685 897 775 q 961 494 961 596 q 926 291 961 382 q 825 135 890 200 q 668 35 760 71 q 464 0 576 0 l 85 0 m 686 494 q 671 599 686 551 q 627 679 656 646 q 557 731 599 713 q 464 750 515 750 l 356 750 l 356 236 l 464 236 q 558 256 517 236 q 628 310 600 275 q 672 392 657 344 q 686 494 686 439 z "},"Ď":{"ha":994,"x_min":85,"x_max":961,"o":"m 85 0 l 85 986 l 464 986 q 679 947 586 986 q 835 842 772 908 q 929 685 897 775 q 961 494 961 596 q 926 291 961 382 q 825 135 890 200 q 668 35 760 71 q 464 0 576 0 l 85 0 m 686 494 q 671 599 686 551 q 627 679 656 646 q 557 731 599 713 q 464 750 515 750 l 356 750 l 356 236 l 464 236 q 558 256 517 236 q 628 310 600 275 q 672 392 657 344 q 686 494 686 439 m 322 1269 l 440 1182 l 558 1269 l 692 1211 l 535 1051 l 346 1051 l 189 1211 l 322 1269 z "},"Đ":{"ha":1000,"x_min":39,"x_max":967,"o":"m 90 0 l 90 399 l 39 399 l 39 593 l 90 593 l 90 986 l 469 986 q 685 947 592 986 q 840 842 778 908 q 935 685 903 775 q 967 494 967 596 q 931 291 967 382 q 831 135 896 200 q 674 35 765 71 q 469 0 582 0 l 90 0 m 692 494 q 676 599 692 551 q 633 679 661 646 q 563 731 604 713 q 469 750 521 750 l 361 750 l 361 593 l 519 593 l 519 399 l 361 399 l 361 236 l 469 236 q 564 256 522 236 q 634 310 606 275 q 677 392 663 344 q 692 494 692 439 z "},"E":{"ha":829,"x_min":85,"x_max":788,"o":"m 788 236 l 788 0 l 85 0 l 85 986 l 775 986 l 775 750 l 356 750 l 356 611 l 714 611 l 714 392 l 356 392 l 356 236 l 788 236 z "},"É":{"ha":829,"x_min":85,"x_max":788,"o":"m 788 236 l 788 0 l 85 0 l 85 986 l 775 986 l 775 750 l 356 750 l 356 611 l 714 611 l 714 392 l 356 392 l 356 236 l 788 236 m 519 1028 l 353 1072 l 422 1269 l 657 1269 l 519 1028 z "},"Ĕ":{"ha":829,"x_min":85,"x_max":788,"o":"m 788 236 l 788 0 l 85 0 l 85 986 l 775 986 l 775 750 l 356 750 l 356 611 l 714 611 l 714 392 l 356 392 l 356 236 l 788 236 m 439 1157 q 495 1189 471 1157 q 524 1269 519 1221 l 660 1269 q 644 1178 660 1219 q 599 1108 628 1138 q 528 1061 569 1078 q 439 1044 488 1044 q 349 1061 390 1044 q 279 1108 308 1078 q 234 1178 250 1138 q 218 1269 218 1219 l 354 1269 q 379 1190 354 1224 q 439 1157 404 1157 z "},"Ě":{"ha":829,"x_min":85,"x_max":788,"o":"m 788 236 l 788 0 l 85 0 l 85 986 l 775 986 l 775 750 l 356 750 l 356 611 l 714 611 l 714 392 l 356 392 l 356 236 l 788 236 m 321 1269 l 439 1182 l 557 1269 l 690 1211 l 533 1051 l 344 1051 l 188 1211 l 321 1269 z "},"Ê":{"ha":829,"x_min":85,"x_max":788,"o":"m 788 236 l 788 0 l 85 0 l 85 986 l 775 986 l 775 750 l 356 750 l 356 611 l 714 611 l 714 392 l 356 392 l 356 236 l 788 236 m 188 1110 l 344 1269 l 533 1269 l 690 1110 l 557 1051 l 439 1139 l 321 1051 l 188 1110 z "},"Ë":{"ha":829,"x_min":85,"x_max":788,"o":"m 788 236 l 788 0 l 85 0 l 85 986 l 775 986 l 775 750 l 356 750 l 356 611 l 714 611 l 714 392 l 356 392 l 356 236 l 788 236 m 171 1063 l 171 1257 l 388 1257 l 388 1063 l 171 1063 m 490 1063 l 490 1257 l 707 1257 l 707 1063 l 490 1063 z "},"Ė":{"ha":829,"x_min":85,"x_max":788,"o":"m 788 236 l 788 0 l 85 0 l 85 986 l 775 986 l 775 750 l 356 750 l 356 611 l 714 611 l 714 392 l 356 392 l 356 236 l 788 236 m 321 1061 l 321 1269 l 557 1269 l 557 1061 l 321 1061 z "},"È":{"ha":829,"x_min":85,"x_max":788,"o":"m 788 236 l 788 0 l 85 0 l 85 986 l 775 986 l 775 750 l 356 750 l 356 611 l 714 611 l 714 392 l 356 392 l 356 236 l 788 236 m 221 1271 l 456 1271 l 525 1074 l 358 1029 l 221 1271 z "},"Ē":{"ha":829,"x_min":85,"x_max":788,"o":"m 788 236 l 788 0 l 85 0 l 85 986 l 775 986 l 775 750 l 356 750 l 356 611 l 714 611 l 714 392 l 356 392 l 356 236 l 788 236 m 225 1099 l 225 1256 l 656 1256 l 656 1099 l 225 1099 z "},"Ŋ":{"ha":1021,"x_min":85,"x_max":935,"o":"m 356 476 l 356 0 l 85 0 l 85 986 l 293 986 l 664 499 l 664 985 l 935 985 l 935 7 q 913 -116 935 -61 q 853 -210 892 -171 q 762 -269 814 -249 q 649 -290 710 -290 q 538 -271 590 -290 q 442 -215 485 -251 l 550 -36 q 615 -64 575 -64 q 671 -4 671 -64 l 671 61 l 356 476 z "},"Ę":{"ha":831,"x_min":85,"x_max":788,"o":"m 736 -299 q 576 -247 628 -286 q 525 -160 525 -208 q 555 -78 525 -119 q 644 0 585 -36 l 85 0 l 85 986 l 775 986 l 775 750 l 356 750 l 356 611 l 714 611 l 714 392 l 356 392 l 356 236 l 788 236 l 788 0 q 713 -56 739 -28 q 688 -108 688 -85 q 711 -146 688 -132 q 785 -160 735 -160 l 736 -299 l 736 -299 z "},"Ð":{"ha":1000,"x_min":39,"x_max":967,"o":"m 90 0 l 90 399 l 39 399 l 39 593 l 90 593 l 90 986 l 469 986 q 685 947 592 986 q 840 842 778 908 q 935 685 903 775 q 967 494 967 596 q 931 291 967 382 q 831 135 896 200 q 674 35 765 71 q 469 0 582 0 l 90 0 m 692 494 q 676 599 692 551 q 633 679 661 646 q 563 731 604 713 q 469 750 521 750 l 361 750 l 361 593 l 519 593 l 519 399 l 361 399 l 361 236 l 469 236 q 564 256 522 236 q 634 310 606 275 q 677 392 663 344 q 692 494 692 439 z "},"Ẽ":{"ha":829,"x_min":85,"x_max":788,"o":"m 788 236 l 788 0 l 85 0 l 85 986 l 775 986 l 775 750 l 356 750 l 356 611 l 714 611 l 714 392 l 356 392 l 356 236 l 788 236 m 528 1050 q 472 1060 496 1050 q 426 1083 447 1071 q 385 1106 406 1096 q 342 1117 365 1117 q 306 1107 318 1117 q 287 1085 293 1097 q 279 1062 281 1072 q 278 1050 278 1051 l 138 1050 q 148 1105 138 1068 q 182 1178 158 1142 q 242 1242 206 1214 q 331 1269 278 1269 q 389 1258 364 1269 q 435 1234 414 1247 q 475 1210 456 1221 q 518 1199 494 1199 q 554 1209 540 1199 q 576 1233 568 1219 q 585 1257 583 1246 q 588 1269 588 1268 l 726 1269 q 715 1222 726 1257 q 681 1148 704 1186 q 619 1080 657 1110 q 528 1050 582 1050 z "},"€":{"ha":1114,"x_min":47,"x_max":1060,"o":"m 164 644 q 228 777 186 714 q 332 888 271 840 q 472 964 393 936 q 646 992 550 992 q 894 933 789 992 q 1050 776 999 874 l 843 629 q 806 689 829 665 q 756 726 783 713 q 698 746 728 740 q 640 751 668 751 q 526 721 572 751 q 454 644 481 690 l 704 644 l 649 506 l 417 506 q 417 470 417 483 q 419 446 418 457 l 665 446 l 610 307 l 481 307 q 550 252 510 272 q 643 232 590 232 q 700 238 671 232 q 756 259 729 244 q 805 297 783 274 q 839 353 826 319 l 1060 221 q 992 124 1038 167 q 890 51 947 81 q 766 7 832 22 q 638 -8 700 -8 q 485 16 557 -8 q 356 83 414 40 q 253 184 297 126 q 182 307 208 242 l 47 307 l 103 446 l 144 446 q 142 474 143 460 q 142 506 142 488 l 47 506 l 103 644 l 164 644 z "},"F":{"ha":782,"x_min":85,"x_max":761,"o":"m 85 0 l 85 986 l 761 986 l 761 750 l 356 750 l 356 586 l 686 586 l 686 367 l 356 367 l 356 0 l 85 0 z "},"G":{"ha":1026,"x_min":32,"x_max":978,"o":"m 754 82 q 511 -7 649 -7 q 328 27 415 -7 q 175 126 240 61 q 71 286 110 192 q 32 501 32 381 q 71 695 32 606 q 178 851 110 785 q 338 955 246 917 q 538 993 431 993 q 665 978 604 993 q 778 935 726 964 q 872 867 831 907 q 940 778 914 828 l 739 624 q 651 717 710 682 q 528 753 593 753 q 439 733 479 753 q 369 679 399 714 q 324 597 340 644 q 307 492 307 549 q 324 386 307 433 q 370 305 340 339 q 442 252 400 271 q 535 233 483 233 q 743 331 653 233 l 572 331 l 572 525 l 978 525 l 978 0 l 754 0 l 754 82 z "},"Ğ":{"ha":1026,"x_min":32,"x_max":978,"o":"m 754 82 q 511 -7 649 -7 q 328 27 415 -7 q 175 126 240 61 q 71 286 110 192 q 32 501 32 381 q 71 695 32 606 q 178 851 110 785 q 338 955 246 917 q 538 993 431 993 q 665 978 604 993 q 778 935 726 964 q 872 867 831 907 q 940 778 914 828 l 739 624 q 651 717 710 682 q 528 753 593 753 q 439 733 479 753 q 369 679 399 714 q 324 597 340 644 q 307 492 307 549 q 324 386 307 433 q 370 305 340 339 q 442 252 400 271 q 535 233 483 233 q 743 331 653 233 l 572 331 l 572 525 l 978 525 l 978 0 l 754 0 l 754 82 m 540 1157 q 597 1189 572 1157 q 625 1269 621 1221 l 761 1269 q 745 1178 761 1219 q 700 1108 729 1138 q 630 1061 671 1078 q 540 1044 589 1044 q 451 1061 492 1044 q 381 1108 410 1078 q 335 1178 351 1138 q 319 1269 319 1219 l 456 1269 q 481 1190 456 1224 q 540 1157 506 1157 z "},"Ĝ":{"ha":1026,"x_min":32,"x_max":978,"o":"m 754 82 q 511 -7 649 -7 q 328 27 415 -7 q 175 126 240 61 q 71 286 110 192 q 32 501 32 381 q 71 695 32 606 q 178 851 110 785 q 338 955 246 917 q 538 993 431 993 q 665 978 604 993 q 778 935 726 964 q 872 867 831 907 q 940 778 914 828 l 739 624 q 651 717 710 682 q 528 753 593 753 q 439 733 479 753 q 369 679 399 714 q 324 597 340 644 q 307 492 307 549 q 324 386 307 433 q 370 305 340 339 q 442 252 400 271 q 535 233 483 233 q 743 331 653 233 l 572 331 l 572 525 l 978 525 l 978 0 l 754 0 l 754 82 m 289 1110 l 446 1269 l 635 1269 l 792 1110 l 658 1051 l 540 1139 l 422 1051 l 289 1110 z "},"Ģ":{"ha":1026,"x_min":32,"x_max":978,"o":"m 754 82 q 511 -7 649 -7 q 328 27 415 -7 q 175 126 240 61 q 71 286 110 192 q 32 501 32 381 q 71 695 32 606 q 178 851 110 785 q 338 955 246 917 q 538 993 431 993 q 665 978 604 993 q 778 935 726 964 q 872 867 831 907 q 940 778 914 828 l 739 624 q 651 717 710 682 q 528 753 593 753 q 439 733 479 753 q 369 679 399 714 q 324 597 340 644 q 307 492 307 549 q 324 386 307 433 q 370 305 340 339 q 442 252 400 271 q 535 233 483 233 q 743 331 653 233 l 572 331 l 572 525 l 978 525 l 978 0 l 754 0 l 754 82 m 435 -296 l 485 -211 l 406 -211 l 406 -64 l 624 -64 l 624 -211 l 549 -296 l 435 -296 z "},"":{"ha":335,"x_min":89,"x_max":307,"o":"m 118 -296 l 168 -211 l 89 -211 l 89 -64 l 307 -64 l 307 -211 l 232 -296 l 118 -296 z "},"Ġ":{"ha":1026,"x_min":32,"x_max":978,"o":"m 754 82 q 511 -7 649 -7 q 328 27 415 -7 q 175 126 240 61 q 71 286 110 192 q 32 501 32 381 q 71 695 32 606 q 178 851 110 785 q 338 955 246 917 q 538 993 431 993 q 665 978 604 993 q 778 935 726 964 q 872 867 831 907 q 940 778 914 828 l 739 624 q 651 717 710 682 q 528 753 593 753 q 439 733 479 753 q 369 679 399 714 q 324 597 340 644 q 307 492 307 549 q 324 386 307 433 q 370 305 340 339 q 442 252 400 271 q 535 233 483 233 q 743 331 653 233 l 572 331 l 572 525 l 978 525 l 978 0 l 754 0 l 754 82 m 425 1061 l 425 1269 l 661 1269 l 661 1061 l 425 1061 z "},"H":{"ha":1042,"x_min":85,"x_max":957,"o":"m 957 986 l 957 0 l 686 0 l 686 386 l 356 386 l 356 0 l 85 0 l 85 986 l 356 986 l 356 622 l 686 622 l 686 986 l 957 986 z "},"Ħ":{"ha":1050,"x_min":19,"x_max":1031,"o":"m 961 986 l 961 869 l 1031 869 l 1031 747 l 961 747 l 961 0 l 690 0 l 690 386 l 360 386 l 360 0 l 89 0 l 89 747 l 19 747 l 19 869 l 89 869 l 89 986 l 360 986 l 360 869 l 690 869 l 690 986 l 961 986 m 690 622 l 690 747 l 360 747 l 360 622 l 690 622 z "},"Ĥ":{"ha":1042,"x_min":85,"x_max":957,"o":"m 957 986 l 957 0 l 686 0 l 686 386 l 356 386 l 356 0 l 85 0 l 85 986 l 356 986 l 356 622 l 686 622 l 686 986 l 957 986 m 274 1108 l 431 1268 l 619 1268 l 776 1108 l 643 1050 l 525 1138 l 407 1050 l 274 1108 z "},"I":{"ha":440,"x_min":85,"x_max":356,"o":"m 85 0 l 85 986 l 356 986 l 356 0 l 85 0 z "},"Ĳ":{"ha":1132,"x_min":85,"x_max":1058,"o":"m 85 0 l 85 986 l 356 986 l 356 0 l 85 0 m 499 267 q 517 257 503 264 q 551 243 531 250 q 599 231 572 236 q 656 225 626 225 q 725 239 699 225 q 765 284 751 253 q 783 365 779 315 q 788 485 788 414 l 788 986 l 1058 986 l 1058 485 q 1046 280 1058 372 q 992 122 1033 188 q 870 21 950 57 q 656 -15 790 -15 q 442 46 531 -15 l 499 267 z "},"J":{"ha":692,"x_min":1,"x_max":618,"o":"m 58 267 q 76 257 63 264 q 111 243 90 250 q 159 231 132 236 q 215 225 186 225 q 285 239 258 225 q 325 284 311 253 q 343 365 339 315 q 347 485 347 414 l 347 986 l 618 986 l 618 485 q 606 280 618 372 q 551 122 593 188 q 430 21 510 57 q 215 -15 350 -15 q 1 46 90 -15 l 58 267 z "},"Í":{"ha":440,"x_min":85,"x_max":438,"o":"m 85 0 l 85 986 l 356 986 l 356 0 l 85 0 m 300 1028 l 133 1072 l 203 1269 l 438 1269 l 300 1028 z "},"Ĭ":{"ha":440,"x_min":-1,"x_max":440,"o":"m 85 0 l 85 986 l 356 986 l 356 0 l 85 0 m 219 1157 q 276 1189 251 1157 q 304 1269 300 1221 l 440 1269 q 424 1178 440 1219 q 379 1108 408 1138 q 309 1061 350 1078 q 219 1044 268 1044 q 130 1061 171 1044 q 60 1108 89 1078 q 15 1178 31 1138 q -1 1269 -1 1219 l 135 1269 q 160 1190 135 1224 q 219 1157 185 1157 z "},"Î":{"ha":440,"x_min":-32,"x_max":471,"o":"m 85 0 l 85 986 l 356 986 l 356 0 l 85 0 m -32 1110 l 125 1269 l 314 1269 l 471 1110 l 338 1051 l 219 1139 l 101 1051 l -32 1110 z "},"Ï":{"ha":440,"x_min":-49,"x_max":488,"o":"m 85 0 l 85 986 l 356 986 l 356 0 l 85 0 m -49 1063 l -49 1257 l 168 1257 l 168 1063 l -49 1063 m 271 1063 l 271 1257 l 488 1257 l 488 1063 l 271 1063 z "},"İ":{"ha":440,"x_min":85,"x_max":356,"o":"m 85 0 l 85 986 l 356 986 l 356 0 l 85 0 m 101 1061 l 101 1269 l 338 1269 l 338 1061 l 101 1061 z "},"Ì":{"ha":440,"x_min":1,"x_max":356,"o":"m 85 0 l 85 986 l 356 986 l 356 0 l 85 0 m 1 1271 l 236 1271 l 306 1074 l 139 1029 l 1 1271 z "},"Ī":{"ha":440,"x_min":6,"x_max":436,"o":"m 85 0 l 85 986 l 356 986 l 356 0 l 85 0 m 6 1099 l 6 1256 l 436 1256 l 436 1099 l 6 1099 z "},"Į":{"ha":442,"x_min":85,"x_max":356,"o":"m 304 -299 q 144 -247 196 -286 q 93 -160 93 -208 q 123 -78 93 -119 q 213 0 153 -36 l 85 0 l 85 986 l 356 986 l 356 0 q 281 -56 307 -28 q 256 -108 256 -85 q 279 -146 256 -132 q 353 -160 303 -160 l 304 -299 l 304 -299 z "},"Ĩ":{"ha":440,"x_min":-82,"x_max":507,"o":"m 85 0 l 85 986 l 356 986 l 356 0 l 85 0 m 308 1050 q 252 1060 276 1050 q 207 1083 228 1071 q 166 1106 186 1096 q 122 1117 146 1117 q 86 1107 99 1117 q 67 1085 74 1097 q 60 1062 61 1072 q 58 1050 58 1051 l -82 1050 q -72 1105 -82 1068 q -37 1178 -61 1142 q 22 1242 -14 1214 q 111 1269 58 1269 q 169 1258 144 1269 q 215 1234 194 1247 q 256 1210 236 1221 q 299 1199 275 1199 q 335 1209 321 1199 q 356 1233 349 1219 q 366 1257 364 1246 q 368 1269 368 1268 l 507 1269 q 496 1222 507 1257 q 461 1148 485 1186 q 400 1080 438 1110 q 308 1050 363 1050 z "},"Ĵ":{"ha":692,"x_min":1,"x_max":738,"o":"m 58 267 q 76 257 63 264 q 111 243 90 250 q 159 231 132 236 q 215 225 186 225 q 285 239 258 225 q 325 284 311 253 q 343 365 339 315 q 347 485 347 414 l 347 986 l 618 986 l 618 485 q 606 280 618 372 q 551 122 593 188 q 430 21 510 57 q 215 -15 350 -15 q 1 46 90 -15 l 58 267 m 235 1110 l 392 1269 l 581 1269 l 738 1110 l 604 1051 l 486 1139 l 368 1051 l 235 1110 z "},"K":{"ha":958,"x_min":85,"x_max":986,"o":"m 85 0 l 85 986 l 356 986 l 356 611 l 656 986 l 961 986 l 603 544 l 986 0 l 675 0 l 431 363 l 356 285 l 356 0 l 85 0 z "},"Ķ":{"ha":958,"x_min":85,"x_max":986,"o":"m 85 0 l 85 986 l 356 986 l 356 611 l 656 986 l 961 986 l 603 544 l 986 0 l 675 0 l 431 363 l 356 285 l 356 0 l 85 0 m 429 -296 l 479 -211 l 400 -211 l 400 -64 l 618 -64 l 618 -211 l 543 -296 l 429 -296 z "},"L":{"ha":813,"x_min":85,"x_max":803,"o":"m 85 0 l 85 986 l 356 986 l 356 236 l 803 236 l 803 0 l 85 0 z "},"Ĺ":{"ha":813,"x_min":85,"x_max":803,"o":"m 85 0 l 85 986 l 356 986 l 356 236 l 803 236 l 803 0 l 85 0 m 596 1028 l 429 1072 l 499 1269 l 733 1269 l 596 1028 z "},"Ľ":{"ha":813,"x_min":85,"x_max":803,"o":"m 85 0 l 85 986 l 356 986 l 356 236 l 803 236 l 803 0 l 85 0 m 610 771 l 443 815 l 513 1013 l 747 1013 l 610 771 z "},"Ļ":{"ha":813,"x_min":85,"x_max":803,"o":"m 85 0 l 85 986 l 356 986 l 356 236 l 803 236 l 803 0 l 85 0 m 383 -296 l 433 -211 l 354 -211 l 354 -64 l 572 -64 l 572 -211 l 497 -296 l 383 -296 z "},"Ŀ":{"ha":813,"x_min":85,"x_max":803,"o":"m 85 0 l 85 986 l 356 986 l 356 236 l 803 236 l 803 0 l 85 0 m 506 440 l 506 696 l 719 696 l 719 440 l 506 440 z "},"·":{"ha":353,"x_min":69,"x_max":283,"o":"m 69 331 l 69 586 l 283 586 l 283 331 l 69 331 z "},"Ł":{"ha":829,"x_min":-24,"x_max":819,"o":"m 101 0 l 101 382 l 36 350 l -24 490 l 101 551 l 101 986 l 372 986 l 372 683 l 471 732 l 531 592 l 372 514 l 372 236 l 819 236 l 819 0 l 101 0 z "},"M":{"ha":1186,"x_min":85,"x_max":1101,"o":"m 831 0 l 831 519 l 665 154 l 521 154 l 356 519 l 356 0 l 85 0 l 85 986 l 381 986 l 593 522 l 807 986 l 1101 986 l 1101 0 l 831 0 z "},"N":{"ha":1047,"x_min":85,"x_max":963,"o":"m 356 485 l 356 0 l 85 0 l 85 986 l 296 986 l 692 485 l 692 986 l 963 986 l 963 0 l 747 0 l 356 485 z "},"\u0000":{"ha":0,"x_min":0,"x_max":0,"o":""},"Ń":{"ha":1047,"x_min":85,"x_max":963,"o":"m 356 485 l 356 0 l 85 0 l 85 986 l 296 986 l 692 485 l 692 986 l 963 986 l 963 0 l 747 0 l 356 485 m 600 1026 l 433 1071 l 503 1268 l 738 1268 l 600 1026 z "},"Ň":{"ha":1047,"x_min":85,"x_max":963,"o":"m 356 485 l 356 0 l 85 0 l 85 986 l 296 986 l 692 485 l 692 986 l 963 986 l 963 0 l 747 0 l 356 485 m 401 1268 l 519 1181 l 638 1268 l 771 1210 l 614 1050 l 425 1050 l 268 1210 l 401 1268 z "},"Ņ":{"ha":1047,"x_min":85,"x_max":963,"o":"m 356 485 l 356 0 l 85 0 l 85 986 l 296 986 l 692 485 l 692 986 l 963 986 l 963 0 l 747 0 l 356 485 m 435 -296 l 485 -211 l 406 -211 l 406 -64 l 624 -64 l 624 -211 l 549 -296 l 435 -296 z "},"Ṅ":{"ha":1047,"x_min":85,"x_max":963,"o":"m 356 485 l 356 0 l 85 0 l 85 986 l 296 986 l 692 485 l 692 986 l 963 986 l 963 0 l 747 0 l 356 485 m 401 1060 l 401 1268 l 638 1268 l 638 1060 l 401 1060 z "},"Ñ":{"ha":1047,"x_min":85,"x_max":963,"o":"m 356 485 l 356 0 l 85 0 l 85 986 l 296 986 l 692 485 l 692 986 l 963 986 l 963 0 l 747 0 l 356 485 m 608 1049 q 552 1059 576 1049 q 507 1082 528 1069 q 466 1105 486 1094 q 422 1115 446 1115 q 386 1106 399 1115 q 367 1083 374 1096 q 360 1060 361 1071 q 358 1049 358 1050 l 218 1049 q 228 1103 218 1067 q 263 1176 239 1140 q 322 1240 286 1213 q 411 1268 358 1268 q 469 1257 444 1268 q 515 1233 494 1246 q 556 1208 536 1219 q 599 1197 575 1197 q 635 1208 621 1197 q 656 1231 649 1218 q 666 1256 664 1244 q 668 1268 668 1267 l 807 1268 q 796 1220 807 1256 q 761 1147 785 1185 q 700 1078 738 1108 q 608 1049 663 1049 z "},"O":{"ha":1063,"x_min":31,"x_max":1032,"o":"m 529 -8 q 325 35 417 -8 q 168 148 233 78 q 67 308 103 218 q 31 494 31 399 q 68 682 31 592 q 173 841 106 772 q 333 951 240 910 q 535 992 425 992 q 739 949 647 992 q 896 835 831 906 q 997 674 961 764 q 1032 489 1032 583 q 994 302 1032 392 q 890 144 957 213 q 731 33 824 75 q 529 -8 639 -8 m 306 492 q 319 395 306 442 q 361 313 333 349 q 431 254 389 276 q 532 232 474 232 q 633 255 590 232 q 703 315 676 278 q 744 399 731 351 q 757 494 757 446 q 743 591 757 544 q 701 673 729 638 q 630 730 672 708 q 531 751 588 751 q 430 729 472 751 q 360 670 388 707 q 319 587 332 633 q 306 492 306 540 z "},"Œ":{"ha":1431,"x_min":31,"x_max":1389,"o":"m 1389 236 l 1389 0 l 714 0 l 714 57 q 613 10 667 28 q 501 -7 560 -7 q 309 35 396 -7 q 160 148 222 78 q 65 308 99 218 q 31 494 31 399 q 66 682 31 592 q 165 842 101 772 q 316 952 229 911 q 507 993 403 993 q 617 976 565 993 q 714 931 668 960 l 714 986 l 1376 986 l 1376 750 l 985 750 l 985 619 l 1301 619 l 1301 383 l 985 383 l 985 236 l 1389 236 m 504 233 q 593 256 556 233 q 654 316 631 279 q 690 399 678 353 q 701 494 701 446 q 689 591 701 544 q 652 674 676 638 q 590 731 628 710 q 503 753 553 753 q 415 730 451 753 q 353 670 378 707 q 317 587 329 633 q 306 492 306 540 q 317 395 306 442 q 354 313 329 349 q 417 255 379 276 q 504 233 454 233 z "},"Ó":{"ha":1063,"x_min":31,"x_max":1032,"o":"m 529 -8 q 325 35 417 -8 q 168 148 233 78 q 67 308 103 218 q 31 494 31 399 q 68 682 31 592 q 173 841 106 772 q 333 951 240 910 q 535 992 425 992 q 739 949 647 992 q 896 835 831 906 q 997 674 961 764 q 1032 489 1032 583 q 994 302 1032 392 q 890 144 957 213 q 731 33 824 75 q 529 -8 639 -8 m 306 492 q 319 395 306 442 q 361 313 333 349 q 431 254 389 276 q 532 232 474 232 q 633 255 590 232 q 703 315 676 278 q 744 399 731 351 q 757 494 757 446 q 743 591 757 544 q 701 673 729 638 q 630 730 672 708 q 531 751 588 751 q 430 729 472 751 q 360 670 388 707 q 319 587 332 633 q 306 492 306 540 m 626 1028 l 460 1072 l 529 1269 l 764 1269 l 626 1028 z "},"Ŏ":{"ha":1063,"x_min":31,"x_max":1032,"o":"m 529 -8 q 325 35 417 -8 q 168 148 233 78 q 67 308 103 218 q 31 494 31 399 q 68 682 31 592 q 173 841 106 772 q 333 951 240 910 q 535 992 425 992 q 739 949 647 992 q 896 835 831 906 q 997 674 961 764 q 1032 489 1032 583 q 994 302 1032 392 q 890 144 957 213 q 731 33 824 75 q 529 -8 639 -8 m 306 492 q 319 395 306 442 q 361 313 333 349 q 431 254 389 276 q 532 232 474 232 q 633 255 590 232 q 703 315 676 278 q 744 399 731 351 q 757 494 757 446 q 743 591 757 544 q 701 673 729 638 q 630 730 672 708 q 531 751 588 751 q 430 729 472 751 q 360 670 388 707 q 319 587 332 633 q 306 492 306 540 m 539 1157 q 595 1189 571 1157 q 624 1269 619 1221 l 760 1269 q 744 1178 760 1219 q 699 1108 728 1138 q 628 1061 669 1078 q 539 1044 588 1044 q 449 1061 490 1044 q 379 1108 408 1078 q 334 1178 350 1138 q 318 1269 318 1219 l 454 1269 q 479 1190 454 1224 q 539 1157 504 1157 z "},"Ô":{"ha":1063,"x_min":31,"x_max":1032,"o":"m 529 -8 q 325 35 417 -8 q 168 148 233 78 q 67 308 103 218 q 31 494 31 399 q 68 682 31 592 q 173 841 106 772 q 333 951 240 910 q 535 992 425 992 q 739 949 647 992 q 896 835 831 906 q 997 674 961 764 q 1032 489 1032 583 q 994 302 1032 392 q 890 144 957 213 q 731 33 824 75 q 529 -8 639 -8 m 306 492 q 319 395 306 442 q 361 313 333 349 q 431 254 389 276 q 532 232 474 232 q 633 255 590 232 q 703 315 676 278 q 744 399 731 351 q 757 494 757 446 q 743 591 757 544 q 701 673 729 638 q 630 730 672 708 q 531 751 588 751 q 430 729 472 751 q 360 670 388 707 q 319 587 332 633 q 306 492 306 540 m 282 1110 l 439 1269 l 628 1269 l 785 1110 l 651 1051 l 533 1139 l 415 1051 l 282 1110 z "},"Ö":{"ha":1063,"x_min":31,"x_max":1032,"o":"m 529 -8 q 325 35 417 -8 q 168 148 233 78 q 67 308 103 218 q 31 494 31 399 q 68 682 31 592 q 173 841 106 772 q 333 951 240 910 q 535 992 425 992 q 739 949 647 992 q 896 835 831 906 q 997 674 961 764 q 1032 489 1032 583 q 994 302 1032 392 q 890 144 957 213 q 731 33 824 75 q 529 -8 639 -8 m 306 492 q 319 395 306 442 q 361 313 333 349 q 431 254 389 276 q 532 232 474 232 q 633 255 590 232 q 703 315 676 278 q 744 399 731 351 q 757 494 757 446 q 743 591 757 544 q 701 673 729 638 q 630 730 672 708 q 531 751 588 751 q 430 729 472 751 q 360 670 388 707 q 319 587 332 633 q 306 492 306 540 m 265 1063 l 265 1257 l 482 1257 l 482 1063 l 265 1063 m 585 1063 l 585 1257 l 801 1257 l 801 1063 l 585 1063 z "},"Ò":{"ha":1063,"x_min":31,"x_max":1032,"o":"m 529 -8 q 325 35 417 -8 q 168 148 233 78 q 67 308 103 218 q 31 494 31 399 q 68 682 31 592 q 173 841 106 772 q 333 951 240 910 q 535 992 425 992 q 739 949 647 992 q 896 835 831 906 q 997 674 961 764 q 1032 489 1032 583 q 994 302 1032 392 q 890 144 957 213 q 731 33 824 75 q 529 -8 639 -8 m 306 492 q 319 395 306 442 q 361 313 333 349 q 431 254 389 276 q 532 232 474 232 q 633 255 590 232 q 703 315 676 278 q 744 399 731 351 q 757 494 757 446 q 743 591 757 544 q 701 673 729 638 q 630 730 672 708 q 531 751 588 751 q 430 729 472 751 q 360 670 388 707 q 319 587 332 633 q 306 492 306 540 m 324 1271 l 558 1271 l 628 1074 l 461 1029 l 324 1271 z "},"Ő":{"ha":1063,"x_min":31,"x_max":1032,"o":"m 529 -8 q 325 35 417 -8 q 168 148 233 78 q 67 308 103 218 q 31 494 31 399 q 68 682 31 592 q 173 841 106 772 q 333 951 240 910 q 535 992 425 992 q 739 949 647 992 q 896 835 831 906 q 997 674 961 764 q 1032 489 1032 583 q 994 302 1032 392 q 890 144 957 213 q 731 33 824 75 q 529 -8 639 -8 m 306 492 q 319 395 306 442 q 361 313 333 349 q 431 254 389 276 q 532 232 474 232 q 633 255 590 232 q 703 315 676 278 q 744 399 731 351 q 757 494 757 446 q 743 591 757 544 q 701 673 729 638 q 630 730 672 708 q 531 751 588 751 q 430 729 472 751 q 360 670 388 707 q 319 587 332 633 q 306 492 306 540 m 451 1029 l 326 1074 l 382 1271 l 575 1271 l 451 1029 m 715 1029 l 590 1074 l 646 1271 l 839 1271 l 715 1029 z "},"˝":{"ha":554,"x_min":35,"x_max":547,"o":"m 160 772 l 35 817 l 90 1014 l 283 1014 l 160 772 m 424 772 l 299 817 l 354 1014 l 547 1014 l 424 772 z "},"Ō":{"ha":1063,"x_min":31,"x_max":1032,"o":"m 529 -8 q 325 35 417 -8 q 168 148 233 78 q 67 308 103 218 q 31 494 31 399 q 68 682 31 592 q 173 841 106 772 q 333 951 240 910 q 535 992 425 992 q 739 949 647 992 q 896 835 831 906 q 997 674 961 764 q 1032 489 1032 583 q 994 302 1032 392 q 890 144 957 213 q 731 33 824 75 q 529 -8 639 -8 m 306 492 q 319 395 306 442 q 361 313 333 349 q 431 254 389 276 q 532 232 474 232 q 633 255 590 232 q 703 315 676 278 q 744 399 731 351 q 757 494 757 446 q 743 591 757 544 q 701 673 729 638 q 630 730 672 708 q 531 751 588 751 q 430 729 472 751 q 360 670 388 707 q 319 587 332 633 q 306 492 306 540 m 322 1099 l 322 1256 l 753 1256 l 753 1099 l 322 1099 z "},"Ǫ":{"ha":1063,"x_min":31,"x_max":1032,"o":"m 539 -297 q 379 -246 431 -285 q 328 -158 328 -207 q 356 -78 328 -118 q 442 -1 385 -37 q 272 61 347 14 q 142 176 196 108 q 60 326 89 244 q 31 494 31 408 q 68 682 31 592 q 173 841 106 772 q 333 951 240 910 q 535 992 425 992 q 739 949 647 992 q 896 835 831 906 q 997 674 961 764 q 1032 489 1032 583 q 999 312 1032 397 q 906 159 965 226 q 762 48 846 92 q 578 -6 678 4 q 513 -58 536 -32 q 490 -107 490 -83 q 514 -144 490 -131 q 588 -158 538 -158 l 539 -297 m 306 492 q 319 395 306 442 q 361 313 333 349 q 431 254 389 276 q 532 232 474 232 q 633 255 590 232 q 703 315 676 278 q 744 399 731 351 q 757 494 757 446 q 743 591 757 544 q 701 673 729 638 q 630 730 672 708 q 531 751 588 751 q 430 729 472 751 q 360 670 388 707 q 319 587 332 633 q 306 492 306 540 z "},"Ø":{"ha":1060,"x_min":28,"x_max":1035,"o":"m 1035 986 l 910 815 q 999 661 968 746 q 1031 489 1031 576 q 993 302 1031 392 q 889 144 956 213 q 730 33 822 75 q 528 -8 638 -8 q 338 28 425 -8 l 318 0 l 28 0 l 149 167 q 60 320 90 236 q 29 494 29 404 q 67 682 29 592 q 172 841 104 772 q 331 951 239 910 q 533 992 424 992 q 631 982 585 992 q 721 956 678 972 l 743 986 l 1035 986 m 304 492 q 317 399 304 442 l 571 747 q 529 751 550 751 q 428 729 471 751 q 358 670 386 707 q 317 587 331 633 q 304 492 304 540 m 756 494 q 743 585 756 543 l 489 235 q 509 233 499 233 q 531 232 519 232 q 632 255 589 232 q 702 315 675 278 q 742 399 729 351 q 756 494 756 446 z "},"/":{"ha":1079,"x_min":36,"x_max":1043,"o":"m 1043 986 l 326 0 l 36 0 l 751 986 l 1043 986 z "},"Ǿ":{"ha":1060,"x_min":28,"x_max":1035,"o":"m 1035 986 l 910 815 q 999 661 968 746 q 1031 489 1031 576 q 993 302 1031 392 q 889 144 956 213 q 730 33 822 75 q 528 -8 638 -8 q 338 28 425 -8 l 318 0 l 28 0 l 149 167 q 60 320 90 236 q 29 494 29 404 q 67 682 29 592 q 172 841 104 772 q 331 951 239 910 q 533 992 424 992 q 631 982 585 992 q 721 956 678 972 l 743 986 l 1035 986 m 610 1028 l 443 1072 l 513 1269 l 747 1269 l 610 1028 m 304 492 q 317 399 304 442 l 571 747 q 529 751 550 751 q 428 729 471 751 q 358 670 386 707 q 317 587 331 633 q 304 492 304 540 m 756 494 q 743 585 756 543 l 489 235 q 509 233 499 233 q 531 232 519 232 q 632 255 589 232 q 702 315 675 278 q 742 399 729 351 q 756 494 756 446 z "},"Õ":{"ha":1063,"x_min":31,"x_max":1032,"o":"m 529 -8 q 325 35 417 -8 q 168 148 233 78 q 67 308 103 218 q 31 494 31 399 q 68 682 31 592 q 173 841 106 772 q 333 951 240 910 q 535 992 425 992 q 739 949 647 992 q 896 835 831 906 q 997 674 961 764 q 1032 489 1032 583 q 994 302 1032 392 q 890 144 957 213 q 731 33 824 75 q 529 -8 639 -8 m 306 492 q 319 395 306 442 q 361 313 333 349 q 431 254 389 276 q 532 232 474 232 q 633 255 590 232 q 703 315 676 278 q 744 399 731 351 q 757 494 757 446 q 743 591 757 544 q 701 673 729 638 q 630 730 672 708 q 531 751 588 751 q 430 729 472 751 q 360 670 388 707 q 319 587 332 633 q 306 492 306 540 m 628 1050 q 572 1060 596 1050 q 526 1083 547 1071 q 485 1106 506 1096 q 442 1117 465 1117 q 406 1107 418 1117 q 387 1085 393 1097 q 379 1062 381 1072 q 378 1050 378 1051 l 238 1050 q 248 1105 238 1068 q 282 1178 258 1142 q 342 1242 306 1214 q 431 1269 378 1269 q 489 1258 464 1269 q 535 1234 514 1247 q 575 1210 556 1221 q 618 1199 594 1199 q 654 1209 640 1199 q 676 1233 668 1219 q 685 1257 683 1246 q 688 1269 688 1268 l 826 1269 q 815 1222 826 1257 q 781 1148 804 1186 q 719 1080 757 1110 q 628 1050 682 1050 z "},"P":{"ha":865,"x_min":85,"x_max":842,"o":"m 85 0 l 85 986 l 510 986 q 643 956 582 986 q 748 878 704 926 q 817 769 792 831 q 842 644 842 707 q 818 517 842 579 q 752 408 794 456 q 649 331 710 360 q 517 303 589 303 l 356 303 l 356 0 l 85 0 m 356 539 l 499 539 q 545 562 524 539 q 567 644 567 585 q 542 728 567 706 q 492 750 517 750 l 356 750 l 356 539 z "},"Q":{"ha":1063,"x_min":31,"x_max":1057,"o":"m 760 47 q 651 7 708 21 q 529 -7 593 -7 q 325 35 417 -7 q 168 148 233 78 q 67 308 103 218 q 31 494 31 399 q 68 682 31 592 q 173 842 106 772 q 333 952 240 911 q 535 993 425 993 q 739 949 647 993 q 896 835 831 906 q 997 674 961 764 q 1032 489 1032 583 q 999 313 1032 397 q 907 163 967 229 l 1057 0 l 804 0 l 760 47 m 532 233 q 583 239 563 233 l 421 417 l 674 417 l 728 357 q 750 424 743 389 q 757 494 757 458 q 743 591 757 544 q 701 674 729 638 q 630 731 672 710 q 531 753 588 753 q 430 730 472 753 q 360 670 388 707 q 319 587 332 633 q 306 492 306 540 q 319 395 306 442 q 361 313 333 349 q 431 255 389 276 q 532 233 474 233 z "},"R":{"ha":938,"x_min":85,"x_max":936,"o":"m 85 0 l 85 986 l 538 986 q 671 956 610 986 q 776 878 732 926 q 844 769 819 831 q 869 644 869 707 q 832 484 869 558 q 728 363 794 410 l 936 0 l 631 0 l 457 303 l 356 303 l 356 0 l 85 0 m 356 539 l 526 539 q 573 567 551 539 q 594 644 594 594 q 569 723 594 696 q 519 750 544 750 l 356 750 l 356 539 z "},"Ŕ":{"ha":938,"x_min":85,"x_max":936,"o":"m 85 0 l 85 986 l 538 986 q 671 956 610 986 q 776 878 732 926 q 844 769 819 831 q 869 644 869 707 q 832 484 869 558 q 728 363 794 410 l 936 0 l 631 0 l 457 303 l 356 303 l 356 0 l 85 0 m 356 539 l 526 539 q 573 567 551 539 q 594 644 594 594 q 569 723 594 696 q 519 750 544 750 l 356 750 l 356 539 m 524 1026 l 357 1071 l 426 1268 l 661 1268 l 524 1026 z "},"Ř":{"ha":938,"x_min":85,"x_max":936,"o":"m 85 0 l 85 986 l 538 986 q 671 956 610 986 q 776 878 732 926 q 844 769 819 831 q 869 644 869 707 q 832 484 869 558 q 728 363 794 410 l 936 0 l 631 0 l 457 303 l 356 303 l 356 0 l 85 0 m 356 539 l 526 539 q 573 567 551 539 q 594 644 594 594 q 569 723 594 696 q 519 750 544 750 l 356 750 l 356 539 m 325 1268 l 443 1181 l 561 1268 l 694 1210 l 538 1050 l 349 1050 l 192 1210 l 325 1268 z "},"Ŗ":{"ha":938,"x_min":85,"x_max":936,"o":"m 85 0 l 85 986 l 538 986 q 671 956 610 986 q 776 878 732 926 q 844 769 819 831 q 869 644 869 707 q 832 484 869 558 q 728 363 794 410 l 936 0 l 631 0 l 457 303 l 356 303 l 356 0 l 85 0 m 356 539 l 526 539 q 573 567 551 539 q 594 644 594 594 q 569 723 594 696 q 519 750 544 750 l 356 750 l 356 539 m 407 -296 l 457 -211 l 378 -211 l 378 -64 l 596 -64 l 596 -211 l 521 -296 l 407 -296 z "},"S":{"ha":857,"x_min":18,"x_max":822,"o":"m 682 664 q 596 708 640 689 q 512 740 558 725 q 421 754 465 754 q 363 743 385 754 q 342 706 342 732 q 354 674 342 686 q 390 651 367 661 q 448 631 414 640 q 525 607 482 621 q 648 561 593 586 q 742 502 703 536 q 801 419 781 468 q 822 301 822 371 q 790 152 822 213 q 703 56 757 92 q 583 3 650 19 q 447 -12 515 -12 q 336 -4 393 -12 q 223 19 279 4 q 115 56 167 35 q 18 103 63 76 l 135 340 q 236 286 183 310 q 337 249 281 265 q 451 232 393 232 q 513 244 496 232 q 531 275 531 256 q 513 310 531 296 q 465 336 496 325 q 395 358 435 347 q 311 385 356 369 q 199 433 246 407 q 121 491 151 458 q 76 565 90 524 q 61 661 61 607 q 91 806 61 743 q 172 910 121 868 q 290 973 224 951 q 429 994 356 994 q 535 984 483 994 q 634 958 586 974 q 724 923 682 942 q 799 888 765 904 l 682 664 z "},"Ś":{"ha":857,"x_min":18,"x_max":822,"o":"m 682 664 q 596 708 640 689 q 512 740 558 725 q 421 754 465 754 q 363 743 385 754 q 342 706 342 732 q 354 674 342 686 q 390 651 367 661 q 448 631 414 640 q 525 607 482 621 q 648 561 593 586 q 742 502 703 536 q 801 419 781 468 q 822 301 822 371 q 790 152 822 213 q 703 56 757 92 q 583 3 650 19 q 447 -12 515 -12 q 336 -4 393 -12 q 223 19 279 4 q 115 56 167 35 q 18 103 63 76 l 135 340 q 236 286 183 310 q 337 249 281 265 q 451 232 393 232 q 513 244 496 232 q 531 275 531 256 q 513 310 531 296 q 465 336 496 325 q 395 358 435 347 q 311 385 356 369 q 199 433 246 407 q 121 491 151 458 q 76 565 90 524 q 61 661 61 607 q 91 806 61 743 q 172 910 121 868 q 290 973 224 951 q 429 994 356 994 q 535 984 483 994 q 634 958 586 974 q 724 923 682 942 q 799 888 765 904 l 682 664 m 535 1028 l 368 1072 l 438 1269 l 672 1269 l 535 1028 z "},"Š":{"ha":857,"x_min":18,"x_max":822,"o":"m 682 664 q 596 708 640 689 q 512 740 558 725 q 421 754 465 754 q 363 743 385 754 q 342 706 342 732 q 354 674 342 686 q 390 651 367 661 q 448 631 414 640 q 525 607 482 621 q 648 561 593 586 q 742 502 703 536 q 801 419 781 468 q 822 301 822 371 q 790 152 822 213 q 703 56 757 92 q 583 3 650 19 q 447 -12 515 -12 q 336 -4 393 -12 q 223 19 279 4 q 115 56 167 35 q 18 103 63 76 l 135 340 q 236 286 183 310 q 337 249 281 265 q 451 232 393 232 q 513 244 496 232 q 531 275 531 256 q 513 310 531 296 q 465 336 496 325 q 395 358 435 347 q 311 385 356 369 q 199 433 246 407 q 121 491 151 458 q 76 565 90 524 q 61 661 61 607 q 91 806 61 743 q 172 910 121 868 q 290 973 224 951 q 429 994 356 994 q 535 984 483 994 q 634 958 586 974 q 724 923 682 942 q 799 888 765 904 l 682 664 m 336 1269 l 454 1182 l 572 1269 l 706 1211 l 549 1051 l 360 1051 l 203 1211 l 336 1269 z "},"Ŝ":{"ha":857,"x_min":18,"x_max":822,"o":"m 682 664 q 596 708 640 689 q 512 740 558 725 q 421 754 465 754 q 363 743 385 754 q 342 706 342 732 q 354 674 342 686 q 390 651 367 661 q 448 631 414 640 q 525 607 482 621 q 648 561 593 586 q 742 502 703 536 q 801 419 781 468 q 822 301 822 371 q 790 152 822 213 q 703 56 757 92 q 583 3 650 19 q 447 -12 515 -12 q 336 -4 393 -12 q 223 19 279 4 q 115 56 167 35 q 18 103 63 76 l 135 340 q 236 286 183 310 q 337 249 281 265 q 451 232 393 232 q 513 244 496 232 q 531 275 531 256 q 513 310 531 296 q 465 336 496 325 q 395 358 435 347 q 311 385 356 369 q 199 433 246 407 q 121 491 151 458 q 76 565 90 524 q 61 661 61 607 q 91 806 61 743 q 172 910 121 868 q 290 973 224 951 q 429 994 356 994 q 535 984 483 994 q 634 958 586 974 q 724 923 682 942 q 799 888 765 904 l 682 664 m 203 1110 l 360 1269 l 549 1269 l 706 1110 l 572 1051 l 454 1139 l 336 1051 l 203 1110 z "},"T":{"ha":867,"x_min":14,"x_max":853,"o":"m 853 750 l 569 750 l 569 0 l 299 0 l 299 750 l 14 750 l 14 986 l 853 986 l 853 750 z "},"Ŧ":{"ha":897,"x_min":29,"x_max":868,"o":"m 868 750 l 585 750 l 585 494 l 813 494 l 813 372 l 585 372 l 585 0 l 314 0 l 314 372 l 85 372 l 85 494 l 314 494 l 314 750 l 29 750 l 29 986 l 868 986 l 868 750 z "},"Ť":{"ha":867,"x_min":14,"x_max":853,"o":"m 853 750 l 569 750 l 569 0 l 299 0 l 299 750 l 14 750 l 14 986 l 853 986 l 853 750 m 326 1269 l 444 1182 l 563 1269 l 696 1211 l 539 1051 l 350 1051 l 193 1211 l 326 1269 z "},"Þ":{"ha":840,"x_min":85,"x_max":821,"o":"m 489 822 q 622 792 561 822 q 727 715 683 763 q 796 606 771 667 q 821 482 821 544 q 797 354 821 415 q 731 245 774 293 q 628 169 689 197 q 496 140 568 140 l 356 140 l 356 0 l 85 0 l 85 986 l 356 986 l 356 822 l 489 822 m 482 376 q 529 405 508 376 q 550 482 550 433 q 526 560 550 533 q 475 586 501 586 l 356 586 l 356 376 l 482 376 z "},"U":{"ha":1032,"x_min":71,"x_max":961,"o":"m 515 232 q 596 253 563 232 q 650 308 629 274 q 681 386 671 342 q 690 479 690 431 l 690 986 l 961 986 l 961 479 q 935 287 961 376 q 853 132 908 197 q 713 29 797 67 q 515 -8 629 -8 q 313 31 397 -8 q 175 138 229 71 q 96 292 121 204 q 71 479 71 381 l 71 986 l 342 986 l 342 479 q 351 385 342 431 q 382 306 361 340 q 435 252 403 272 q 515 232 468 232 z "},"Ú":{"ha":1032,"x_min":71,"x_max":961,"o":"m 515 232 q 596 253 563 232 q 650 308 629 274 q 681 386 671 342 q 690 479 690 431 l 690 986 l 961 986 l 961 479 q 935 287 961 376 q 853 132 908 197 q 713 29 797 67 q 515 -8 629 -8 q 313 31 397 -8 q 175 138 229 71 q 96 292 121 204 q 71 479 71 381 l 71 986 l 342 986 l 342 479 q 351 385 342 431 q 382 306 361 340 q 435 252 403 272 q 515 232 468 232 m 596 1028 l 429 1072 l 499 1269 l 733 1269 l 596 1028 z "},"Ŭ":{"ha":1032,"x_min":71,"x_max":961,"o":"m 515 232 q 596 253 563 232 q 650 308 629 274 q 681 386 671 342 q 690 479 690 431 l 690 986 l 961 986 l 961 479 q 935 287 961 376 q 853 132 908 197 q 713 29 797 67 q 515 -8 629 -8 q 313 31 397 -8 q 175 138 229 71 q 96 292 121 204 q 71 479 71 381 l 71 986 l 342 986 l 342 479 q 351 385 342 431 q 382 306 361 340 q 435 252 403 272 q 515 232 468 232 m 515 1157 q 572 1189 547 1157 q 600 1269 596 1221 l 736 1269 q 720 1178 736 1219 q 675 1108 704 1138 q 605 1061 646 1078 q 515 1044 564 1044 q 426 1061 467 1044 q 356 1108 385 1078 q 310 1178 326 1138 q 294 1269 294 1219 l 431 1269 q 456 1190 431 1224 q 515 1157 481 1157 z "},"Û":{"ha":1032,"x_min":71,"x_max":961,"o":"m 515 232 q 596 253 563 232 q 650 308 629 274 q 681 386 671 342 q 690 479 690 431 l 690 986 l 961 986 l 961 479 q 935 287 961 376 q 853 132 908 197 q 713 29 797 67 q 515 -8 629 -8 q 313 31 397 -8 q 175 138 229 71 q 96 292 121 204 q 71 479 71 381 l 71 986 l 342 986 l 342 479 q 351 385 342 431 q 382 306 361 340 q 435 252 403 272 q 515 232 468 232 m 264 1110 l 421 1269 l 610 1269 l 767 1110 l 633 1051 l 515 1139 l 397 1051 l 264 1110 z "},"Ü":{"ha":1032,"x_min":71,"x_max":961,"o":"m 515 232 q 596 253 563 232 q 650 308 629 274 q 681 386 671 342 q 690 479 690 431 l 690 986 l 961 986 l 961 479 q 935 287 961 376 q 853 132 908 197 q 713 29 797 67 q 515 -8 629 -8 q 313 31 397 -8 q 175 138 229 71 q 96 292 121 204 q 71 479 71 381 l 71 986 l 342 986 l 342 479 q 351 385 342 431 q 382 306 361 340 q 435 252 403 272 q 515 232 468 232 m 247 1063 l 247 1257 l 464 1257 l 464 1063 l 247 1063 m 567 1063 l 567 1257 l 783 1257 l 783 1063 l 567 1063 z "},"Ù":{"ha":1032,"x_min":71,"x_max":961,"o":"m 515 232 q 596 253 563 232 q 650 308 629 274 q 681 386 671 342 q 690 479 690 431 l 690 986 l 961 986 l 961 479 q 935 287 961 376 q 853 132 908 197 q 713 29 797 67 q 515 -8 629 -8 q 313 31 397 -8 q 175 138 229 71 q 96 292 121 204 q 71 479 71 381 l 71 986 l 342 986 l 342 479 q 351 385 342 431 q 382 306 361 340 q 435 252 403 272 q 515 232 468 232 m 297 1271 l 532 1271 l 601 1074 l 435 1029 l 297 1271 z "},"Ű":{"ha":1032,"x_min":71,"x_max":961,"o":"m 515 232 q 596 253 563 232 q 650 308 629 274 q 681 386 671 342 q 690 479 690 431 l 690 986 l 961 986 l 961 479 q 935 287 961 376 q 853 132 908 197 q 713 29 797 67 q 515 -8 629 -8 q 313 31 397 -8 q 175 138 229 71 q 96 292 121 204 q 71 479 71 381 l 71 986 l 342 986 l 342 479 q 351 385 342 431 q 382 306 361 340 q 435 252 403 272 q 515 232 468 232 m 428 1029 l 303 1074 l 358 1271 l 551 1271 l 428 1029 m 692 1029 l 567 1074 l 622 1271 l 815 1271 l 692 1029 z "},"Ū":{"ha":1032,"x_min":71,"x_max":961,"o":"m 515 232 q 596 253 563 232 q 650 308 629 274 q 681 386 671 342 q 690 479 690 431 l 690 986 l 961 986 l 961 479 q 935 287 961 376 q 853 132 908 197 q 713 29 797 67 q 515 -8 629 -8 q 313 31 397 -8 q 175 138 229 71 q 96 292 121 204 q 71 479 71 381 l 71 986 l 342 986 l 342 479 q 351 385 342 431 q 382 306 361 340 q 435 252 403 272 q 515 232 468 232 m 301 1099 l 301 1256 l 732 1256 l 732 1099 l 301 1099 z "},"Ų":{"ha":1032,"x_min":71,"x_max":961,"o":"m 535 -297 q 375 -246 426 -285 q 324 -158 324 -207 q 351 -78 324 -118 q 435 -3 379 -39 q 269 53 339 10 q 156 162 200 97 q 92 308 113 226 q 71 479 71 390 l 71 986 l 342 986 l 342 479 q 351 385 342 431 q 382 306 361 340 q 435 252 403 272 q 515 232 468 232 q 596 253 563 232 q 650 308 629 274 q 681 386 671 342 q 690 479 690 431 l 690 986 l 961 986 l 961 479 q 938 299 961 383 q 867 149 915 214 q 747 44 819 85 q 574 -6 674 4 q 509 -58 532 -32 q 486 -107 486 -83 q 510 -144 486 -131 q 583 -158 533 -158 l 535 -297 l 535 -297 z "},"Ů":{"ha":1032,"x_min":71,"x_max":961,"o":"m 515 232 q 596 253 563 232 q 650 308 629 274 q 681 386 671 342 q 690 479 690 431 l 690 986 l 961 986 l 961 479 q 935 287 961 376 q 853 132 908 197 q 713 29 797 67 q 515 -8 629 -8 q 313 31 397 -8 q 175 138 229 71 q 96 292 121 204 q 71 479 71 381 l 71 986 l 342 986 l 342 479 q 351 385 342 431 q 382 306 361 340 q 435 252 403 272 q 515 232 468 232 m 353 1149 q 397 1240 353 1210 q 515 1269 440 1269 q 634 1240 590 1269 q 678 1149 678 1210 q 634 1058 678 1088 q 515 1028 590 1028 q 397 1058 440 1028 q 353 1149 353 1088 m 515 1194 q 476 1182 492 1194 q 460 1150 460 1169 q 476 1116 460 1129 q 515 1103 492 1103 q 555 1116 539 1103 q 571 1150 571 1129 q 555 1182 571 1169 q 515 1194 539 1194 z "},"Ũ":{"ha":1032,"x_min":71,"x_max":961,"o":"m 515 232 q 596 253 563 232 q 650 308 629 274 q 681 386 671 342 q 690 479 690 431 l 690 986 l 961 986 l 961 479 q 935 287 961 376 q 853 132 908 197 q 713 29 797 67 q 515 -8 629 -8 q 313 31 397 -8 q 175 138 229 71 q 96 292 121 204 q 71 479 71 381 l 71 986 l 342 986 l 342 479 q 351 385 342 431 q 382 306 361 340 q 435 252 403 272 q 515 232 468 232 m 604 1050 q 548 1060 572 1050 q 503 1083 524 1071 q 462 1106 482 1096 q 418 1117 442 1117 q 382 1107 394 1117 q 363 1085 369 1097 q 356 1062 357 1072 q 354 1050 354 1051 l 214 1050 q 224 1105 214 1068 q 258 1178 235 1142 q 318 1242 282 1214 q 407 1269 354 1269 q 465 1258 440 1269 q 511 1234 490 1247 q 551 1210 532 1221 q 594 1199 571 1199 q 631 1209 617 1199 q 652 1233 644 1219 q 662 1257 660 1246 q 664 1269 664 1268 l 803 1269 q 792 1222 803 1257 q 757 1148 781 1186 q 696 1080 733 1110 q 604 1050 658 1050 z "},"V":{"ha":933,"x_min":-11,"x_max":943,"o":"m 275 986 l 468 340 l 658 986 l 943 986 l 581 0 l 356 0 l -11 986 l 275 986 z "},"W":{"ha":1468,"x_min":-17,"x_max":1485,"o":"m 399 986 l 647 986 l 733 682 l 821 986 l 1069 986 l 907 515 l 978 310 l 1190 986 l 1485 986 l 1099 0 l 874 0 l 733 353 l 594 0 l 369 0 l -17 986 l 276 986 l 490 310 l 558 515 l 399 986 z "},"Ẃ":{"ha":1468,"x_min":-17,"x_max":1485,"o":"m 399 986 l 647 986 l 733 682 l 821 986 l 1069 986 l 907 515 l 978 310 l 1190 986 l 1485 986 l 1099 0 l 874 0 l 733 353 l 594 0 l 369 0 l -17 986 l 276 986 l 490 310 l 558 515 l 399 986 m 814 1028 l 647 1072 l 717 1269 l 951 1269 l 814 1028 z "},"Ŵ":{"ha":1468,"x_min":-17,"x_max":1485,"o":"m 399 986 l 647 986 l 733 682 l 821 986 l 1069 986 l 907 515 l 978 310 l 1190 986 l 1485 986 l 1099 0 l 874 0 l 733 353 l 594 0 l 369 0 l -17 986 l 276 986 l 490 310 l 558 515 l 399 986 m 482 1110 l 639 1269 l 828 1269 l 985 1110 l 851 1051 l 733 1139 l 615 1051 l 482 1110 z "},"Ẅ":{"ha":1468,"x_min":-17,"x_max":1485,"o":"m 399 986 l 647 986 l 733 682 l 821 986 l 1069 986 l 907 515 l 978 310 l 1190 986 l 1485 986 l 1099 0 l 874 0 l 733 353 l 594 0 l 369 0 l -17 986 l 276 986 l 490 310 l 558 515 l 399 986 m 465 1063 l 465 1257 l 682 1257 l 682 1063 l 465 1063 m 785 1063 l 785 1257 l 1001 1257 l 1001 1063 l 785 1063 z "},"Ẁ":{"ha":1468,"x_min":-17,"x_max":1485,"o":"m 399 986 l 647 986 l 733 682 l 821 986 l 1069 986 l 907 515 l 978 310 l 1190 986 l 1485 986 l 1099 0 l 874 0 l 733 353 l 594 0 l 369 0 l -17 986 l 276 986 l 490 310 l 558 515 l 399 986 m 515 1271 l 750 1271 l 819 1074 l 653 1029 l 515 1271 z "},"X":{"ha":913,"x_min":-15,"x_max":928,"o":"m 278 986 l 457 675 l 636 986 l 928 986 l 599 486 l 917 0 l 625 0 l 457 297 l 289 0 l -4 0 l 314 486 l -15 986 l 278 986 z "},"Y":{"ha":925,"x_min":-8,"x_max":936,"o":"m 285 986 l 461 560 l 642 986 l 936 986 l 596 326 l 596 0 l 326 0 l 326 329 l -8 986 l 285 986 z "},"Ý":{"ha":925,"x_min":-8,"x_max":936,"o":"m 285 986 l 461 560 l 642 986 l 936 986 l 596 326 l 596 0 l 326 0 l 326 329 l -8 986 l 285 986 m 542 1028 l 375 1072 l 444 1269 l 679 1269 l 542 1028 z "},"Ŷ":{"ha":925,"x_min":-8,"x_max":936,"o":"m 285 986 l 461 560 l 642 986 l 936 986 l 596 326 l 596 0 l 326 0 l 326 329 l -8 986 l 285 986 m 210 1110 l 367 1269 l 556 1269 l 713 1110 l 579 1051 l 461 1139 l 343 1051 l 210 1110 z "},"Ÿ":{"ha":925,"x_min":-8,"x_max":936,"o":"m 285 986 l 461 560 l 642 986 l 936 986 l 596 326 l 596 0 l 326 0 l 326 329 l -8 986 l 285 986 m 193 1063 l 193 1257 l 410 1257 l 410 1063 l 193 1063 m 513 1063 l 513 1257 l 729 1257 l 729 1063 l 513 1063 z "},"Ỳ":{"ha":925,"x_min":-8,"x_max":936,"o":"m 285 986 l 461 560 l 642 986 l 936 986 l 596 326 l 596 0 l 326 0 l 326 329 l -8 986 l 285 986 m 243 1271 l 478 1271 l 547 1074 l 381 1029 l 243 1271 z "},"Ỹ":{"ha":925,"x_min":-8,"x_max":936,"o":"m 285 986 l 461 560 l 642 986 l 936 986 l 596 326 l 596 0 l 326 0 l 326 329 l -8 986 l 285 986 m 550 1050 q 494 1060 518 1050 q 449 1083 469 1071 q 408 1106 428 1096 q 364 1117 388 1117 q 328 1107 340 1117 q 309 1085 315 1097 q 301 1062 303 1072 q 300 1050 300 1051 l 160 1050 q 170 1105 160 1068 q 204 1178 181 1142 q 264 1242 228 1214 q 353 1269 300 1269 q 411 1258 386 1269 q 457 1234 436 1247 q 497 1210 478 1221 q 540 1199 517 1199 q 576 1209 563 1199 q 598 1233 590 1219 q 608 1257 606 1246 q 610 1269 610 1268 l 749 1269 q 738 1222 749 1257 q 703 1148 726 1186 q 642 1080 679 1110 q 550 1050 604 1050 z "},"Z":{"ha":864,"x_min":38,"x_max":819,"o":"m 38 201 l 499 750 l 58 750 l 58 986 l 811 986 l 811 785 l 378 236 l 819 236 l 819 0 l 38 0 l 38 201 z "},"Ź":{"ha":864,"x_min":38,"x_max":819,"o":"m 38 201 l 499 750 l 58 750 l 58 986 l 811 986 l 811 785 l 378 236 l 819 236 l 819 0 l 38 0 l 38 201 m 525 1028 l 358 1072 l 428 1269 l 663 1269 l 525 1028 z "},"Ž":{"ha":864,"x_min":38,"x_max":819,"o":"m 38 201 l 499 750 l 58 750 l 58 986 l 811 986 l 811 785 l 378 236 l 819 236 l 819 0 l 38 0 l 38 201 m 326 1269 l 444 1182 l 563 1269 l 696 1211 l 539 1051 l 350 1051 l 193 1211 l 326 1269 z "},"Ż":{"ha":864,"x_min":38,"x_max":819,"o":"m 38 201 l 499 750 l 58 750 l 58 986 l 811 986 l 811 785 l 378 236 l 819 236 l 819 0 l 38 0 l 38 201 m 326 1061 l 326 1269 l 563 1269 l 563 1061 l 326 1061 z "},"a":{"ha":832,"x_min":26,"x_max":803,"o":"m 282 -14 q 181 4 228 -14 q 99 53 133 22 q 46 128 65 85 q 26 221 26 171 q 50 322 26 276 q 115 401 74 368 q 215 453 157 435 q 342 471 272 471 q 489 443 431 471 l 489 465 q 459 542 489 517 q 363 567 429 567 q 247 547 300 567 q 136 488 194 526 l 60 651 q 389 744 204 744 q 658 667 564 744 q 753 433 753 589 l 753 292 q 764 240 753 254 q 803 222 775 225 l 803 0 q 742 -10 771 -7 q 692 -14 714 -14 q 584 12 621 -14 q 536 88 547 38 l 531 114 q 418 19 482 51 q 282 -14 354 -14 m 361 175 q 410 183 385 175 q 454 203 435 190 q 479 227 469 214 q 489 254 489 240 l 489 308 q 438 322 465 317 q 388 328 410 328 q 307 304 339 328 q 275 244 275 281 q 299 194 275 214 q 361 175 324 175 z "},"á":{"ha":832,"x_min":26,"x_max":803,"o":"m 282 -14 q 181 4 228 -14 q 99 53 133 22 q 46 128 65 85 q 26 221 26 171 q 50 322 26 276 q 115 401 74 368 q 215 453 157 435 q 342 471 272 471 q 489 443 431 471 l 489 465 q 459 542 489 517 q 363 567 429 567 q 247 547 300 567 q 136 488 194 526 l 60 651 q 389 744 204 744 q 658 667 564 744 q 753 433 753 589 l 753 292 q 764 240 753 254 q 803 222 775 225 l 803 0 q 742 -10 771 -7 q 692 -14 714 -14 q 584 12 621 -14 q 536 88 547 38 l 531 114 q 418 19 482 51 q 282 -14 354 -14 m 361 175 q 410 183 385 175 q 454 203 435 190 q 479 227 469 214 q 489 254 489 240 l 489 308 q 438 322 465 317 q 388 328 410 328 q 307 304 339 328 q 275 244 275 281 q 299 194 275 214 q 361 175 324 175 m 469 772 l 303 817 l 372 1014 l 607 1014 l 469 772 z "},"ă":{"ha":832,"x_min":26,"x_max":803,"o":"m 282 -14 q 181 4 228 -14 q 99 53 133 22 q 46 128 65 85 q 26 221 26 171 q 50 322 26 276 q 115 401 74 368 q 215 453 157 435 q 342 471 272 471 q 489 443 431 471 l 489 465 q 459 542 489 517 q 363 567 429 567 q 247 547 300 567 q 136 488 194 526 l 60 651 q 389 744 204 744 q 658 667 564 744 q 753 433 753 589 l 753 292 q 764 240 753 254 q 803 222 775 225 l 803 0 q 742 -10 771 -7 q 692 -14 714 -14 q 584 12 621 -14 q 536 88 547 38 l 531 114 q 418 19 482 51 q 282 -14 354 -14 m 361 175 q 410 183 385 175 q 454 203 435 190 q 479 227 469 214 q 489 254 489 240 l 489 308 q 438 322 465 317 q 388 328 410 328 q 307 304 339 328 q 275 244 275 281 q 299 194 275 214 q 361 175 324 175 m 389 901 q 445 933 421 901 q 474 1014 469 965 l 610 1014 q 594 923 610 964 q 549 852 578 882 q 478 806 519 822 q 389 789 438 789 q 299 806 340 789 q 229 852 258 822 q 184 923 200 882 q 168 1014 168 964 l 304 1014 q 329 935 304 968 q 389 901 354 901 z "},"â":{"ha":832,"x_min":26,"x_max":803,"o":"m 282 -14 q 181 4 228 -14 q 99 53 133 22 q 46 128 65 85 q 26 221 26 171 q 50 322 26 276 q 115 401 74 368 q 215 453 157 435 q 342 471 272 471 q 489 443 431 471 l 489 465 q 459 542 489 517 q 363 567 429 567 q 247 547 300 567 q 136 488 194 526 l 60 651 q 389 744 204 744 q 658 667 564 744 q 753 433 753 589 l 753 292 q 764 240 753 254 q 803 222 775 225 l 803 0 q 742 -10 771 -7 q 692 -14 714 -14 q 584 12 621 -14 q 536 88 547 38 l 531 114 q 418 19 482 51 q 282 -14 354 -14 m 361 175 q 410 183 385 175 q 454 203 435 190 q 479 227 469 214 q 489 254 489 240 l 489 308 q 438 322 465 317 q 388 328 410 328 q 307 304 339 328 q 275 244 275 281 q 299 194 275 214 q 361 175 324 175 m 138 854 l 294 1014 l 483 1014 l 640 854 l 507 796 l 389 883 l 271 796 l 138 854 z "},"ä":{"ha":832,"x_min":26,"x_max":803,"o":"m 282 -14 q 181 4 228 -14 q 99 53 133 22 q 46 128 65 85 q 26 221 26 171 q 50 322 26 276 q 115 401 74 368 q 215 453 157 435 q 342 471 272 471 q 489 443 431 471 l 489 465 q 459 542 489 517 q 363 567 429 567 q 247 547 300 567 q 136 488 194 526 l 60 651 q 389 744 204 744 q 658 667 564 744 q 753 433 753 589 l 753 292 q 764 240 753 254 q 803 222 775 225 l 803 0 q 742 -10 771 -7 q 692 -14 714 -14 q 584 12 621 -14 q 536 88 547 38 l 531 114 q 418 19 482 51 q 282 -14 354 -14 m 361 175 q 410 183 385 175 q 454 203 435 190 q 479 227 469 214 q 489 254 489 240 l 489 308 q 438 322 465 317 q 388 328 410 328 q 307 304 339 328 q 275 244 275 281 q 299 194 275 214 q 361 175 324 175 m 121 807 l 121 1001 l 338 1001 l 338 807 l 121 807 m 440 807 l 440 1001 l 657 1001 l 657 807 l 440 807 z "},"æ":{"ha":1308,"x_min":26,"x_max":1289,"o":"m 282 -14 q 181 4 228 -14 q 99 53 133 22 q 46 128 65 85 q 26 221 26 171 q 50 322 26 276 q 115 401 74 368 q 215 453 157 435 q 342 471 272 471 q 489 443 431 471 l 489 465 q 458 542 488 517 q 363 567 429 567 q 247 547 300 567 q 136 488 194 526 l 60 651 q 389 744 204 744 q 646 675 551 744 q 753 726 693 707 q 889 744 814 744 q 1061 713 986 744 q 1187 630 1136 682 q 1263 509 1238 578 q 1289 365 1289 440 q 1287 323 1289 344 q 1282 285 1285 301 l 769 285 q 813 201 774 226 q 897 175 851 175 q 978 194 940 175 q 1029 249 1017 214 l 1253 185 q 1116 42 1208 97 q 889 -14 1024 -14 q 697 25 778 -14 q 565 128 615 64 q 504 63 539 90 q 432 19 469 36 q 356 -6 394 3 q 282 -14 317 -14 m 361 175 q 410 183 385 175 q 454 203 435 190 q 479 227 469 214 q 489 254 489 240 l 489 308 q 438 322 465 317 q 388 328 410 328 q 307 304 339 328 q 275 244 275 281 q 299 194 275 214 q 361 175 324 175 m 1006 443 q 967 526 999 496 q 885 557 935 557 q 803 526 835 557 q 764 443 771 496 l 1006 443 z "},"ǽ":{"ha":1308,"x_min":26,"x_max":1289,"o":"m 282 -14 q 181 4 228 -14 q 99 53 133 22 q 46 128 65 85 q 26 221 26 171 q 50 322 26 276 q 115 401 74 368 q 215 453 157 435 q 342 471 272 471 q 489 443 431 471 l 489 465 q 458 542 488 517 q 363 567 429 567 q 247 547 300 567 q 136 488 194 526 l 60 651 q 389 744 204 744 q 646 675 551 744 q 753 726 693 707 q 889 744 814 744 q 1061 713 986 744 q 1187 630 1136 682 q 1263 509 1238 578 q 1289 365 1289 440 q 1287 323 1289 344 q 1282 285 1285 301 l 769 285 q 813 201 774 226 q 897 175 851 175 q 978 194 940 175 q 1029 249 1017 214 l 1253 185 q 1116 42 1208 97 q 889 -14 1024 -14 q 697 25 778 -14 q 565 128 615 64 q 504 63 539 90 q 432 19 469 36 q 356 -6 394 3 q 282 -14 317 -14 m 361 175 q 410 183 385 175 q 454 203 435 190 q 479 227 469 214 q 489 254 489 240 l 489 308 q 438 322 465 317 q 388 328 410 328 q 307 304 339 328 q 275 244 275 281 q 299 194 275 214 q 361 175 324 175 m 1006 443 q 967 526 999 496 q 885 557 935 557 q 803 526 835 557 q 764 443 771 496 l 1006 443 m 726 772 l 560 817 l 629 1014 l 864 1014 l 726 772 z "},"à":{"ha":832,"x_min":26,"x_max":803,"o":"m 282 -14 q 181 4 228 -14 q 99 53 133 22 q 46 128 65 85 q 26 221 26 171 q 50 322 26 276 q 115 401 74 368 q 215 453 157 435 q 342 471 272 471 q 489 443 431 471 l 489 465 q 459 542 489 517 q 363 567 429 567 q 247 547 300 567 q 136 488 194 526 l 60 651 q 389 744 204 744 q 658 667 564 744 q 753 433 753 589 l 753 292 q 764 240 753 254 q 803 222 775 225 l 803 0 q 742 -10 771 -7 q 692 -14 714 -14 q 584 12 621 -14 q 536 88 547 38 l 531 114 q 418 19 482 51 q 282 -14 354 -14 m 361 175 q 410 183 385 175 q 454 203 435 190 q 479 227 469 214 q 489 254 489 240 l 489 308 q 438 322 465 317 q 388 328 410 328 q 307 304 339 328 q 275 244 275 281 q 299 194 275 214 q 361 175 324 175 m 171 1015 l 406 1015 l 475 818 l 308 774 l 171 1015 z "},"ā":{"ha":832,"x_min":26,"x_max":803,"o":"m 282 -14 q 181 4 228 -14 q 99 53 133 22 q 46 128 65 85 q 26 221 26 171 q 50 322 26 276 q 115 401 74 368 q 215 453 157 435 q 342 471 272 471 q 489 443 431 471 l 489 465 q 459 542 489 517 q 363 567 429 567 q 247 547 300 567 q 136 488 194 526 l 60 651 q 389 744 204 744 q 658 667 564 744 q 753 433 753 589 l 753 292 q 764 240 753 254 q 803 222 775 225 l 803 0 q 742 -10 771 -7 q 692 -14 714 -14 q 584 12 621 -14 q 536 88 547 38 l 531 114 q 418 19 482 51 q 282 -14 354 -14 m 361 175 q 410 183 385 175 q 454 203 435 190 q 479 227 469 214 q 489 254 489 240 l 489 308 q 438 322 465 317 q 388 328 410 328 q 307 304 339 328 q 275 244 275 281 q 299 194 275 214 q 361 175 324 175 m 175 843 l 175 1000 l 606 1000 l 606 843 l 175 843 z "},"&":{"ha":1040,"x_min":49,"x_max":1049,"o":"m 703 0 l 650 56 q 526 3 590 19 q 396 -14 461 -14 q 245 14 310 -14 q 137 86 181 42 q 71 187 93 131 q 49 300 49 243 q 90 447 49 385 q 188 554 131 508 q 125 651 143 608 q 107 744 107 693 q 129 852 107 804 q 190 932 151 900 q 281 981 228 964 q 396 999 333 999 q 502 985 450 999 q 595 944 554 972 q 661 870 636 915 q 686 761 686 825 q 651 626 686 686 q 558 517 617 567 l 672 396 q 696 480 688 435 q 704 578 704 525 l 917 578 q 892 385 915 471 q 828 232 868 300 l 1049 0 l 703 0 m 424 192 q 506 210 465 192 l 349 378 q 301 300 301 339 q 308 266 301 285 q 328 231 314 247 q 367 203 343 214 q 424 192 390 192 m 346 756 q 356 724 346 738 q 392 688 367 711 q 432 722 419 707 q 444 758 444 736 q 431 794 444 782 q 396 807 418 807 q 359 792 372 807 q 346 756 346 778 z "},"ą":{"ha":833,"x_min":26,"x_max":803,"o":"m 751 -299 q 592 -247 643 -286 q 540 -160 540 -208 q 566 -83 540 -122 q 643 -10 592 -44 q 536 88 553 4 l 531 114 q 418 19 482 51 q 282 -14 354 -14 q 181 4 228 -14 q 99 53 133 22 q 46 128 65 85 q 26 221 26 171 q 50 322 26 276 q 115 401 74 368 q 215 453 157 435 q 342 471 272 471 q 489 443 431 471 l 489 465 q 459 542 489 517 q 363 567 429 567 q 247 547 300 567 q 136 488 194 526 l 60 651 q 389 744 204 744 q 658 667 564 744 q 753 433 753 589 l 753 292 q 764 240 753 254 q 803 222 775 225 l 803 0 q 728 -56 754 -28 q 703 -108 703 -85 q 726 -146 703 -132 q 800 -160 750 -160 l 751 -299 m 361 175 q 410 183 385 175 q 454 203 435 190 q 479 227 469 214 q 489 254 489 240 l 489 308 q 438 322 465 317 q 388 328 410 328 q 307 304 339 328 q 275 244 275 281 q 299 194 275 214 q 361 175 324 175 z "},"ʼ":{"ha":719,"x_min":222,"x_max":526,"o":"m 389 772 l 222 817 l 265 938 l 250 1014 l 526 1014 l 389 772 z "},"å":{"ha":832,"x_min":26,"x_max":803,"o":"m 282 -14 q 181 4 228 -14 q 99 53 133 22 q 46 128 65 85 q 26 221 26 171 q 50 322 26 276 q 115 401 74 368 q 215 453 157 435 q 342 471 272 471 q 489 443 431 471 l 489 465 q 459 542 489 517 q 363 567 429 567 q 247 547 300 567 q 136 488 194 526 l 60 651 q 389 744 204 744 q 658 667 564 744 q 753 433 753 589 l 753 292 q 764 240 753 254 q 803 222 775 225 l 803 0 q 742 -10 771 -7 q 692 -14 714 -14 q 584 12 621 -14 q 536 88 547 38 l 531 114 q 418 19 482 51 q 282 -14 354 -14 m 361 175 q 410 183 385 175 q 454 203 435 190 q 479 227 469 214 q 489 254 489 240 l 489 308 q 438 322 465 317 q 388 328 410 328 q 307 304 339 328 q 275 244 275 281 q 299 194 275 214 q 361 175 324 175 m 226 893 q 270 984 226 954 q 389 1014 314 1014 q 508 984 464 1014 q 551 893 551 954 q 508 802 551 832 q 389 772 464 772 q 270 802 314 772 q 226 893 226 832 m 389 939 q 349 926 365 939 q 333 894 333 914 q 349 860 333 874 q 389 847 365 847 q 428 860 413 847 q 444 894 444 874 q 428 926 444 914 q 389 939 413 939 z "},"ǻ":{"ha":832,"x_min":26,"x_max":803,"o":"m 282 -14 q 181 4 228 -14 q 99 53 133 22 q 46 128 65 85 q 26 221 26 171 q 50 322 26 276 q 115 401 74 368 q 215 453 157 435 q 342 471 272 471 q 489 443 431 471 l 489 465 q 459 542 489 517 q 363 567 429 567 q 247 547 300 567 q 136 488 194 526 l 60 651 q 389 744 204 744 q 658 667 564 744 q 753 433 753 589 l 753 292 q 764 240 753 254 q 803 222 775 225 l 803 0 q 742 -10 771 -7 q 692 -14 714 -14 q 584 12 621 -14 q 536 88 547 38 l 531 114 q 418 19 482 51 q 282 -14 354 -14 m 361 175 q 410 183 385 175 q 454 203 435 190 q 479 227 469 214 q 489 254 489 240 l 489 308 q 438 322 465 317 q 388 328 410 328 q 307 304 339 328 q 275 244 275 281 q 299 194 275 214 q 361 175 324 175 m 226 893 q 270 984 226 954 q 389 1014 314 1014 q 508 984 464 1014 q 551 893 551 954 q 508 802 551 832 q 389 772 464 772 q 270 802 314 772 q 226 893 226 832 m 389 939 q 349 926 365 939 q 333 894 333 914 q 349 860 333 874 q 389 847 365 847 q 428 860 413 847 q 444 894 444 874 q 428 926 444 914 q 389 939 413 939 m 469 1033 l 303 1078 l 372 1275 l 607 1275 l 469 1033 z "},"^":{"ha":868,"x_min":50,"x_max":818,"o":"m 50 421 l 325 986 l 544 986 l 818 421 l 606 421 l 435 772 l 260 421 l 50 421 z "},"~":{"ha":847,"x_min":63,"x_max":790,"o":"m 63 300 q 74 353 63 317 q 112 427 85 390 q 183 492 139 464 q 293 519 226 519 q 369 508 335 519 q 433 484 403 497 q 493 460 464 471 q 556 449 522 449 q 606 459 586 449 q 635 482 625 469 q 648 506 644 494 q 651 519 651 517 l 790 519 q 778 473 790 508 q 740 399 767 438 q 667 330 713 360 q 554 300 622 300 q 481 310 514 300 q 416 333 447 321 q 355 356 385 346 q 292 367 325 367 q 242 357 260 367 q 215 335 224 347 q 205 312 207 322 q 203 300 203 301 l 63 300 l 63 300 z "},"*":{"ha":506,"x_min":58,"x_max":447,"o":"m 90 693 l 158 801 l 58 831 l 92 938 l 196 888 l 186 1001 l 319 1001 l 310 888 l 414 938 l 447 831 l 347 801 l 415 693 l 319 631 l 253 746 l 186 631 l 90 693 z "},"@":{"ha":1183,"x_min":51,"x_max":1121,"o":"m 590 838 q 788 806 692 838 q 958 710 883 775 q 1076 546 1032 646 q 1121 307 1121 446 q 1119 256 1121 288 q 1110 188 1117 224 q 1088 114 1103 151 q 1049 46 1074 76 q 986 -3 1024 15 q 896 -22 949 -22 q 831 -12 857 -22 q 788 13 804 -3 q 763 46 771 28 q 751 79 754 64 q 643 13 704 35 q 517 -8 582 -8 q 356 46 410 -8 q 301 192 301 100 q 324 292 301 251 q 382 358 346 333 q 465 394 418 383 q 560 406 511 406 q 647 397 613 406 q 701 378 682 388 q 694 429 701 406 q 671 469 688 453 q 626 495 654 486 q 554 504 597 504 q 451 489 496 504 q 378 447 406 474 l 333 582 q 449 634 386 618 q 581 650 511 650 q 736 621 681 650 q 818 547 792 592 q 849 451 844 503 q 854 354 854 400 l 854 261 q 856 200 854 231 q 864 144 857 169 q 884 104 871 119 q 922 89 897 89 q 974 115 956 89 q 1003 178 993 142 q 1017 253 1014 215 q 1019 313 1019 290 q 989 484 1019 406 q 901 619 958 563 q 764 708 844 676 q 582 740 683 740 q 402 708 482 740 q 267 620 322 676 q 183 487 213 564 q 154 318 154 410 q 181 153 154 231 q 260 19 208 76 q 388 -72 313 -39 q 560 -106 463 -106 q 625 -101 596 -106 q 680 -89 654 -96 q 729 -72 706 -82 q 779 -53 753 -62 l 807 -147 q 683 -189 747 -175 q 556 -203 618 -203 q 360 -166 451 -203 q 199 -61 268 -129 q 91 103 131 7 q 51 321 51 200 q 96 545 51 449 q 215 707 140 642 q 386 805 289 772 q 590 838 483 838 m 646 139 q 682 165 664 149 q 700 206 700 182 l 700 263 q 641 280 679 271 q 563 289 603 289 q 478 265 504 289 q 453 193 453 242 q 535 115 453 115 q 586 119 554 115 q 646 139 618 124 z "},"ã":{"ha":832,"x_min":26,"x_max":803,"o":"m 282 -14 q 181 4 228 -14 q 99 53 133 22 q 46 128 65 85 q 26 221 26 171 q 50 322 26 276 q 115 401 74 368 q 215 453 157 435 q 342 471 272 471 q 489 443 431 471 l 489 465 q 459 542 489 517 q 363 567 429 567 q 247 547 300 567 q 136 488 194 526 l 60 651 q 389 744 204 744 q 658 667 564 744 q 753 433 753 589 l 753 292 q 764 240 753 254 q 803 222 775 225 l 803 0 q 742 -10 771 -7 q 692 -14 714 -14 q 584 12 621 -14 q 536 88 547 38 l 531 114 q 418 19 482 51 q 282 -14 354 -14 m 361 175 q 410 183 385 175 q 454 203 435 190 q 479 227 469 214 q 489 254 489 240 l 489 308 q 438 322 465 317 q 388 328 410 328 q 307 304 339 328 q 275 244 275 281 q 299 194 275 214 q 361 175 324 175 m 478 794 q 422 805 446 794 q 376 828 397 815 q 335 851 356 840 q 292 861 315 861 q 256 851 268 861 q 237 829 243 842 q 229 806 231 817 q 228 794 228 796 l 88 794 q 98 849 88 813 q 132 922 108 886 q 192 986 156 958 q 281 1014 228 1014 q 339 1003 314 1014 q 385 978 364 992 q 425 954 406 965 q 468 943 444 943 q 504 953 490 943 q 526 977 518 964 q 535 1001 533 990 q 538 1014 538 1013 l 676 1014 q 665 966 676 1001 q 631 892 654 931 q 569 824 607 854 q 478 794 532 794 z "},"b":{"ha":899,"x_min":67,"x_max":871,"o":"m 532 -14 q 296 114 367 -14 l 296 0 l 67 0 l 67 1014 l 331 1014 l 331 622 q 421 713 363 682 q 558 744 479 744 q 683 715 625 744 q 782 635 740 686 q 847 515 824 585 q 871 363 871 444 q 845 212 871 281 q 774 93 819 143 q 667 15 729 43 q 532 -14 604 -14 m 456 208 q 560 250 521 208 q 600 361 600 292 q 590 424 600 394 q 562 475 579 453 q 520 510 544 497 q 467 522 496 522 q 388 492 425 522 q 331 414 350 463 l 331 283 q 456 208 382 208 z "},"\\":{"ha":964,"x_min":35,"x_max":931,"o":"m 326 986 l 931 0 l 640 0 l 35 986 l 326 986 z "},"|":{"ha":433,"x_min":106,"x_max":328,"o":"m 106 -181 l 106 1076 l 328 1076 l 328 -181 l 106 -181 z "},"{":{"ha":519,"x_min":49,"x_max":444,"o":"m 368 819 l 368 606 q 351 543 368 567 q 311 500 333 519 q 350 456 332 481 q 368 394 368 432 l 368 165 l 444 165 l 444 -43 l 164 -43 q 144 -35 156 -43 q 132 -1 132 -28 l 132 304 q 105 376 132 349 q 49 411 78 404 l 49 592 q 78 601 63 592 q 105 624 93 610 q 124 658 117 639 q 132 696 132 676 l 132 986 q 144 1019 132 1011 q 164 1028 156 1028 l 444 1028 l 444 819 l 368 819 z "},"}":{"ha":519,"x_min":75,"x_max":471,"o":"m 75 819 l 75 1028 l 356 1028 q 376 1019 364 1028 q 388 986 388 1011 l 388 696 q 395 658 388 676 q 415 624 403 639 q 441 601 426 610 q 471 592 456 592 l 471 411 q 415 376 442 404 q 388 304 388 349 l 388 -1 q 376 -35 388 -28 q 356 -43 364 -43 l 75 -43 l 75 165 l 151 165 l 151 394 q 169 456 151 432 q 208 500 188 481 q 169 543 186 519 q 151 606 151 567 l 151 819 l 75 819 z "},"[":{"ha":515,"x_min":110,"x_max":450,"o":"m 110 -56 l 110 1028 l 450 1028 l 450 819 l 353 819 l 353 153 l 450 153 l 450 -56 l 110 -56 z "},"]":{"ha":515,"x_min":65,"x_max":406,"o":"m 65 -56 l 65 153 l 163 153 l 163 819 l 65 819 l 65 1028 l 406 1028 l 406 -56 l 65 -56 z "},"¦":{"ha":439,"x_min":108,"x_max":331,"o":"m 331 353 l 331 -181 l 108 -181 l 108 353 l 331 353 m 331 1076 l 331 543 l 108 543 l 108 1076 l 331 1076 z "},"•":{"ha":515,"x_min":94,"x_max":419,"o":"m 419 490 q 407 427 419 457 q 372 375 394 397 q 320 340 350 353 q 257 328 290 328 q 194 340 224 328 q 142 375 164 353 q 108 427 121 397 q 94 490 94 457 q 108 553 94 524 q 142 605 121 583 q 194 640 164 626 q 257 653 224 653 q 320 640 290 653 q 372 605 350 626 q 407 553 394 583 q 419 490 419 524 z "},"c":{"ha":801,"x_min":26,"x_max":785,"o":"m 26 365 q 53 509 26 440 q 130 630 79 578 q 256 713 181 682 q 428 744 331 744 q 651 689 561 744 q 785 546 740 633 l 528 468 q 426 522 490 522 q 335 481 372 522 q 297 365 297 440 q 335 249 297 290 q 426 208 372 208 q 528 263 490 208 l 785 185 q 651 42 740 97 q 428 -14 561 -14 q 256 17 331 -14 q 130 101 181 49 q 53 222 79 153 q 26 365 26 290 z "},"ć":{"ha":801,"x_min":26,"x_max":785,"o":"m 26 365 q 53 509 26 440 q 130 630 79 578 q 256 713 181 682 q 428 744 331 744 q 651 689 561 744 q 785 546 740 633 l 528 468 q 426 522 490 522 q 335 481 372 522 q 297 365 297 440 q 335 249 297 290 q 426 208 372 208 q 528 263 490 208 l 785 185 q 651 42 740 97 q 428 -14 561 -14 q 256 17 331 -14 q 130 101 181 49 q 53 222 79 153 q 26 365 26 290 m 508 772 l 342 817 l 411 1014 l 646 1014 l 508 772 z "},"č":{"ha":801,"x_min":26,"x_max":785,"o":"m 26 365 q 53 509 26 440 q 130 630 79 578 q 256 713 181 682 q 428 744 331 744 q 651 689 561 744 q 785 546 740 633 l 528 468 q 426 522 490 522 q 335 481 372 522 q 297 365 297 440 q 335 249 297 290 q 426 208 372 208 q 528 263 490 208 l 785 185 q 651 42 740 97 q 428 -14 561 -14 q 256 17 331 -14 q 130 101 181 49 q 53 222 79 153 q 26 365 26 290 m 310 1014 l 428 926 l 546 1014 l 679 956 l 522 796 l 333 796 l 176 956 l 310 1014 z "},"ç":{"ha":801,"x_min":26,"x_max":785,"o":"m 300 -178 q 351 -197 315 -187 q 425 -206 388 -206 q 480 -196 457 -206 q 503 -162 503 -186 q 482 -130 503 -139 q 426 -121 461 -121 q 365 -126 397 -121 q 317 -133 332 -131 l 375 -11 q 226 31 290 -3 q 117 115 161 64 q 49 231 72 167 q 26 365 26 296 q 53 509 26 440 q 130 630 79 578 q 256 713 181 682 q 428 744 331 744 q 651 689 561 744 q 785 546 740 633 l 528 468 q 426 522 490 522 q 335 481 372 522 q 297 365 297 440 q 335 249 297 290 q 426 208 372 208 q 528 263 490 208 l 785 185 q 667 52 744 106 q 476 -11 589 -1 l 451 -47 q 469 -45 460 -46 q 489 -44 478 -44 q 538 -51 514 -44 q 579 -69 561 -57 q 608 -103 597 -82 q 619 -153 619 -124 q 569 -253 619 -211 q 408 -296 518 -296 q 319 -287 358 -296 q 251 -267 279 -278 l 300 -178 z "},"ĉ":{"ha":801,"x_min":26,"x_max":785,"o":"m 26 365 q 53 509 26 440 q 130 630 79 578 q 256 713 181 682 q 428 744 331 744 q 651 689 561 744 q 785 546 740 633 l 528 468 q 426 522 490 522 q 335 481 372 522 q 297 365 297 440 q 335 249 297 290 q 426 208 372 208 q 528 263 490 208 l 785 185 q 651 42 740 97 q 428 -14 561 -14 q 256 17 331 -14 q 130 101 181 49 q 53 222 79 153 q 26 365 26 290 m 176 854 l 333 1014 l 522 1014 l 679 854 l 546 796 l 428 883 l 310 796 l 176 854 z "},"ċ":{"ha":801,"x_min":26,"x_max":785,"o":"m 26 365 q 53 509 26 440 q 130 630 79 578 q 256 713 181 682 q 428 744 331 744 q 651 689 561 744 q 785 546 740 633 l 528 468 q 426 522 490 522 q 335 481 372 522 q 297 365 297 440 q 335 249 297 290 q 426 208 372 208 q 528 263 490 208 l 785 185 q 651 42 740 97 q 428 -14 561 -14 q 256 17 331 -14 q 130 101 181 49 q 53 222 79 153 q 26 365 26 290 m 310 806 l 310 1014 l 546 1014 l 546 806 l 310 806 z "},"¢":{"ha":858,"x_min":50,"x_max":810,"o":"m 383 -167 l 383 -12 q 249 27 310 -7 q 144 113 188 61 q 75 228 100 164 q 50 358 50 292 q 71 492 50 429 q 133 605 92 554 q 238 691 175 656 q 383 742 300 726 l 383 896 l 494 896 l 494 742 q 672 691 586 739 q 810 546 758 643 l 553 468 q 526 498 543 485 q 494 514 510 511 l 494 215 q 531 237 517 225 q 553 263 544 249 l 810 185 q 747 97 786 135 q 663 35 707 60 q 573 -1 618 11 q 494 -14 528 -14 l 494 -167 l 383 -167 m 322 358 q 337 285 322 319 q 383 228 351 251 l 383 501 q 339 448 356 486 q 322 358 322 410 z "},":":{"ha":422,"x_min":104,"x_max":318,"o":"m 104 465 l 104 721 l 318 721 l 318 465 l 104 465 m 104 0 l 104 256 l 318 256 l 318 0 l 104 0 z "},",":{"ha":357,"x_min":69,"x_max":288,"o":"m 99 -218 l 149 0 l 69 0 l 69 256 l 288 256 l 288 0 l 213 -218 l 99 -218 z "},"©":{"ha":1176,"x_min":53,"x_max":1125,"o":"m 582 -10 q 371 28 468 -10 q 203 134 274 67 q 92 293 132 201 q 53 493 53 385 q 92 692 53 600 q 203 850 132 783 q 371 955 274 917 q 582 993 468 993 q 799 955 699 993 q 971 850 899 917 q 1084 692 1043 783 q 1125 493 1125 600 q 1084 293 1125 385 q 971 134 1043 201 q 799 28 899 67 q 582 -10 699 -10 m 582 79 q 757 110 675 79 q 899 194 839 140 q 993 325 958 249 q 1028 493 1028 401 q 994 653 1028 578 q 901 784 960 728 q 760 872 842 840 q 582 904 678 904 q 411 872 490 904 q 274 784 332 840 q 183 653 215 728 q 150 493 150 578 q 183 331 150 407 q 273 199 215 256 q 410 111 331 143 q 582 79 489 79 m 596 154 q 435 182 506 154 q 318 256 365 210 q 247 364 271 303 q 222 492 222 425 q 247 619 222 558 q 318 727 271 681 q 435 801 365 774 q 596 829 506 829 q 810 774 724 829 q 939 631 896 718 l 682 553 q 594 607 650 607 q 523 577 553 607 q 493 492 493 547 q 523 406 493 436 q 594 376 553 376 q 682 431 650 376 l 939 353 q 810 210 896 265 q 596 154 724 154 z "},"d":{"ha":924,"x_min":28,"x_max":882,"o":"m 372 -14 q 234 14 297 -14 q 125 92 171 42 q 53 213 79 143 q 28 367 28 283 q 51 517 28 447 q 117 637 75 586 q 218 716 160 688 q 347 744 276 744 q 477 713 418 744 q 568 622 536 681 l 568 1014 l 832 1014 l 832 292 q 843 240 832 254 q 882 222 854 225 l 882 0 q 771 -14 814 -14 q 615 88 636 -14 l 610 114 q 508 17 572 47 q 372 -14 444 -14 m 444 208 q 569 283 517 208 l 569 414 q 513 492 550 463 q 433 522 475 522 q 380 510 404 522 q 338 475 356 497 q 310 424 321 453 q 300 361 300 394 q 340 250 300 292 q 444 208 379 208 z "},"†":{"ha":707,"x_min":46,"x_max":661,"o":"m 229 -181 l 229 258 l 46 258 l 46 494 l 229 494 l 229 1076 l 479 1076 l 479 494 l 661 494 l 661 258 l 479 258 l 479 -181 l 229 -181 z "},"‡":{"ha":746,"x_min":65,"x_max":681,"o":"m 249 -181 l 249 74 l 65 74 l 65 310 l 249 310 l 249 467 l 65 467 l 65 703 l 249 703 l 249 1076 l 499 1076 l 499 703 l 681 703 l 681 467 l 499 467 l 499 310 l 681 310 l 681 74 l 499 74 l 499 -181 l 249 -181 z "},"ď":{"ha":924,"x_min":28,"x_max":1164,"o":"m 372 -14 q 234 14 297 -14 q 125 92 171 42 q 53 213 79 143 q 28 367 28 283 q 51 517 28 447 q 117 637 75 586 q 218 716 160 688 q 347 744 276 744 q 477 713 418 744 q 568 622 536 681 l 568 1014 l 832 1014 l 832 292 q 843 240 832 254 q 882 222 854 225 l 882 0 q 771 -14 814 -14 q 615 88 636 -14 l 610 114 q 508 17 572 47 q 372 -14 444 -14 m 444 208 q 569 283 517 208 l 569 414 q 513 492 550 463 q 433 522 475 522 q 380 510 404 522 q 338 475 356 497 q 310 424 321 453 q 300 361 300 394 q 340 250 300 292 q 444 208 379 208 m 1026 772 l 860 817 l 929 1014 l 1164 1014 l 1026 772 z "},"đ":{"ha":924,"x_min":28,"x_max":913,"o":"m 372 -14 q 234 14 297 -14 q 125 92 171 42 q 53 213 79 143 q 28 367 28 283 q 51 517 28 447 q 117 637 75 586 q 218 716 160 688 q 347 744 276 744 q 477 713 418 744 q 568 622 536 681 l 568 804 l 447 804 l 447 956 l 568 956 l 568 1014 l 832 1014 l 832 956 l 913 956 l 913 804 l 832 804 l 832 292 q 843 240 832 254 q 882 222 854 225 l 882 0 q 771 -14 814 -14 q 615 88 636 -14 l 610 114 q 508 17 572 47 q 372 -14 444 -14 m 444 208 q 569 283 517 208 l 569 414 q 513 492 550 463 q 433 522 475 522 q 380 510 404 522 q 338 475 356 497 q 310 424 321 453 q 300 361 300 394 q 340 250 300 292 q 444 208 379 208 z "},"°":{"ha":417,"x_min":43,"x_max":374,"o":"m 43 847 q 89 960 43 915 q 208 1006 135 1006 q 328 960 282 1006 q 374 847 374 915 q 328 722 374 768 q 208 675 282 675 q 89 723 135 675 q 43 847 43 771 m 176 871 q 164 840 164 858 q 176 810 164 822 q 208 796 190 796 q 239 810 228 796 q 249 824 246 815 q 251 840 251 833 q 239 871 251 860 q 225 881 233 878 q 208 883 217 883 q 176 871 189 883 z "},"÷":{"ha":674,"x_min":57,"x_max":618,"o":"m 228 604 l 228 826 l 449 826 l 449 604 l 228 604 m 228 38 l 228 260 l 449 260 l 449 38 l 228 38 m 57 326 l 57 535 l 618 535 l 618 326 l 57 326 z "},"$":{"ha":901,"x_min":44,"x_max":849,"o":"m 708 664 q 642 700 678 683 q 573 728 611 715 q 496 749 535 742 l 496 624 q 522 616 508 621 q 551 607 536 611 q 674 561 619 586 q 768 502 729 536 q 828 419 807 468 q 849 301 849 371 q 820 162 849 219 q 745 67 792 104 q 639 12 699 31 q 515 -11 579 -7 l 515 -179 l 404 -179 l 404 -8 q 214 29 308 0 q 44 103 119 58 l 161 340 q 242 296 199 317 q 326 260 278 278 q 424 236 374 243 l 424 358 q 338 385 381 369 q 225 433 272 407 q 147 491 178 458 q 102 565 117 524 q 88 661 88 607 q 113 794 88 736 q 181 893 138 851 q 281 960 224 935 q 404 992 339 985 l 404 1132 l 515 1132 l 515 990 q 604 974 561 985 q 687 948 647 963 q 761 917 726 933 q 825 888 796 901 l 708 664 m 557 275 q 540 309 557 294 q 496 335 524 324 l 496 232 q 543 246 529 235 q 557 275 557 257 m 368 706 q 382 672 368 685 q 424 647 396 658 l 424 753 q 368 706 368 746 z "},"ı":{"ha":397,"x_min":67,"x_max":331,"o":"m 67 0 l 67 731 l 331 731 l 331 0 l 67 0 z "},"ȷ":{"ha":397,"x_min":-162,"x_max":331,"o":"m 44 -290 q -67 -271 -14 -290 q -162 -215 -119 -251 l -54 -36 q 11 -64 -29 -64 q 67 -4 67 -64 l 67 731 l 331 731 l 331 17 q 310 -108 331 -51 q 251 -205 289 -164 q 160 -268 213 -246 q 44 -290 107 -290 z "},"e":{"ha":846,"x_min":26,"x_max":826,"o":"m 426 -14 q 256 16 331 -14 q 130 97 181 46 q 53 215 79 149 q 26 356 26 282 q 52 506 26 435 q 128 629 78 576 q 253 713 179 682 q 426 744 328 744 q 599 713 524 744 q 724 630 674 682 q 801 509 775 578 q 826 365 826 440 q 824 323 826 344 q 819 285 822 301 l 307 285 q 350 201 311 226 q 435 175 389 175 q 516 194 478 175 q 567 249 554 214 l 790 185 q 653 42 746 97 q 426 -14 561 -14 m 543 443 q 504 526 536 496 q 422 557 472 557 q 340 526 372 557 q 301 443 308 496 l 543 443 z "},"é":{"ha":846,"x_min":26,"x_max":826,"o":"m 426 -14 q 256 16 331 -14 q 130 97 181 46 q 53 215 79 149 q 26 356 26 282 q 52 506 26 435 q 128 629 78 576 q 253 713 179 682 q 426 744 328 744 q 599 713 524 744 q 724 630 674 682 q 801 509 775 578 q 826 365 826 440 q 824 323 826 344 q 819 285 822 301 l 307 285 q 350 201 311 226 q 435 175 389 175 q 516 194 478 175 q 567 249 554 214 l 790 185 q 653 42 746 97 q 426 -14 561 -14 m 543 443 q 504 526 536 496 q 422 557 472 557 q 340 526 372 557 q 301 443 308 496 l 543 443 m 507 772 l 340 817 l 410 1014 l 644 1014 l 507 772 z "},"ĕ":{"ha":846,"x_min":26,"x_max":826,"o":"m 426 -14 q 256 16 331 -14 q 130 97 181 46 q 53 215 79 149 q 26 356 26 282 q 52 506 26 435 q 128 629 78 576 q 253 713 179 682 q 426 744 328 744 q 599 713 524 744 q 724 630 674 682 q 801 509 775 578 q 826 365 826 440 q 824 323 826 344 q 819 285 822 301 l 307 285 q 350 201 311 226 q 435 175 389 175 q 516 194 478 175 q 567 249 554 214 l 790 185 q 653 42 746 97 q 426 -14 561 -14 m 543 443 q 504 526 536 496 q 422 557 472 557 q 340 526 372 557 q 301 443 308 496 l 543 443 m 426 901 q 483 933 458 901 q 511 1014 507 965 l 647 1014 q 631 923 647 964 q 586 852 615 882 q 516 806 557 822 q 426 789 475 789 q 337 806 378 789 q 267 852 296 822 q 222 923 238 882 q 206 1014 206 964 l 342 1014 q 367 935 342 968 q 426 901 392 901 z "},"ě":{"ha":846,"x_min":26,"x_max":826,"o":"m 426 -14 q 256 16 331 -14 q 130 97 181 46 q 53 215 79 149 q 26 356 26 282 q 52 506 26 435 q 128 629 78 576 q 253 713 179 682 q 426 744 328 744 q 599 713 524 744 q 724 630 674 682 q 801 509 775 578 q 826 365 826 440 q 824 323 826 344 q 819 285 822 301 l 307 285 q 350 201 311 226 q 435 175 389 175 q 516 194 478 175 q 567 249 554 214 l 790 185 q 653 42 746 97 q 426 -14 561 -14 m 543 443 q 504 526 536 496 q 422 557 472 557 q 340 526 372 557 q 301 443 308 496 l 543 443 m 308 1014 l 426 926 l 544 1014 l 678 956 l 521 796 l 332 796 l 175 956 l 308 1014 z "},"ê":{"ha":846,"x_min":26,"x_max":826,"o":"m 426 -14 q 256 16 331 -14 q 130 97 181 46 q 53 215 79 149 q 26 356 26 282 q 52 506 26 435 q 128 629 78 576 q 253 713 179 682 q 426 744 328 744 q 599 713 524 744 q 724 630 674 682 q 801 509 775 578 q 826 365 826 440 q 824 323 826 344 q 819 285 822 301 l 307 285 q 350 201 311 226 q 435 175 389 175 q 516 194 478 175 q 567 249 554 214 l 790 185 q 653 42 746 97 q 426 -14 561 -14 m 543 443 q 504 526 536 496 q 422 557 472 557 q 340 526 372 557 q 301 443 308 496 l 543 443 m 175 854 l 332 1014 l 521 1014 l 678 854 l 544 796 l 426 883 l 308 796 l 175 854 z "},"ë":{"ha":846,"x_min":26,"x_max":826,"o":"m 426 -14 q 256 16 331 -14 q 130 97 181 46 q 53 215 79 149 q 26 356 26 282 q 52 506 26 435 q 128 629 78 576 q 253 713 179 682 q 426 744 328 744 q 599 713 524 744 q 724 630 674 682 q 801 509 775 578 q 826 365 826 440 q 824 323 826 344 q 819 285 822 301 l 307 285 q 350 201 311 226 q 435 175 389 175 q 516 194 478 175 q 567 249 554 214 l 790 185 q 653 42 746 97 q 426 -14 561 -14 m 543 443 q 504 526 536 496 q 422 557 472 557 q 340 526 372 557 q 301 443 308 496 l 543 443 m 158 807 l 158 1001 l 375 1001 l 375 807 l 158 807 m 478 807 l 478 1001 l 694 1001 l 694 807 l 478 807 z "},"ė":{"ha":846,"x_min":26,"x_max":826,"o":"m 426 -14 q 256 16 331 -14 q 130 97 181 46 q 53 215 79 149 q 26 356 26 282 q 52 506 26 435 q 128 629 78 576 q 253 713 179 682 q 426 744 328 744 q 599 713 524 744 q 724 630 674 682 q 801 509 775 578 q 826 365 826 440 q 824 323 826 344 q 819 285 822 301 l 307 285 q 350 201 311 226 q 435 175 389 175 q 516 194 478 175 q 567 249 554 214 l 790 185 q 653 42 746 97 q 426 -14 561 -14 m 543 443 q 504 526 536 496 q 422 557 472 557 q 340 526 372 557 q 301 443 308 496 l 543 443 m 308 806 l 308 1014 l 544 1014 l 544 806 l 308 806 z "},"è":{"ha":846,"x_min":26,"x_max":826,"o":"m 426 -14 q 256 16 331 -14 q 130 97 181 46 q 53 215 79 149 q 26 356 26 282 q 52 506 26 435 q 128 629 78 576 q 253 713 179 682 q 426 744 328 744 q 599 713 524 744 q 724 630 674 682 q 801 509 775 578 q 826 365 826 440 q 824 323 826 344 q 819 285 822 301 l 307 285 q 350 201 311 226 q 435 175 389 175 q 516 194 478 175 q 567 249 554 214 l 790 185 q 653 42 746 97 q 426 -14 561 -14 m 543 443 q 504 526 536 496 q 422 557 472 557 q 340 526 372 557 q 301 443 308 496 l 543 443 m 208 1015 l 443 1015 l 513 818 l 346 774 l 208 1015 z "},"₈":{"ha":610,"x_min":38,"x_max":572,"o":"m 572 60 q 551 -17 572 18 q 493 -78 529 -53 q 408 -119 457 -104 q 306 -133 360 -133 q 202 -119 251 -133 q 117 -78 153 -104 q 59 -15 81 -51 q 38 63 38 21 q 47 110 38 89 q 70 147 56 131 q 105 177 85 164 q 147 201 125 190 q 87 243 113 217 q 61 313 61 269 q 83 382 61 350 q 139 437 104 414 q 217 473 174 460 q 304 486 261 486 q 391 474 347 486 q 470 438 435 461 q 528 384 506 415 q 550 315 550 353 q 525 247 550 275 q 463 201 500 218 q 542 144 511 178 q 572 60 572 111 m 419 76 q 384 118 419 103 q 304 133 349 133 q 224 117 257 133 q 190 76 190 101 q 226 34 190 50 q 306 18 263 18 q 385 35 350 18 q 419 76 419 51 m 211 299 q 241 268 211 279 q 304 257 271 257 q 368 268 338 257 q 399 299 399 279 q 370 329 399 318 q 304 340 342 340 q 239 329 267 340 q 211 299 211 318 z "},"⁸":{"ha":610,"x_min":38,"x_max":572,"o":"m 572 713 q 551 635 572 671 q 493 574 529 600 q 408 534 457 549 q 306 519 360 519 q 202 534 251 519 q 117 575 153 549 q 59 638 81 601 q 38 715 38 674 q 47 763 38 742 q 70 800 56 783 q 105 830 85 817 q 147 854 125 843 q 87 896 113 869 q 61 965 61 922 q 83 1035 61 1003 q 139 1090 104 1067 q 217 1126 174 1113 q 304 1139 261 1139 q 391 1126 347 1139 q 470 1091 435 1114 q 528 1037 506 1068 q 550 968 550 1006 q 525 899 550 928 q 463 854 500 871 q 542 797 511 831 q 572 713 572 764 m 419 729 q 384 771 419 756 q 304 786 349 786 q 224 770 257 786 q 190 729 190 754 q 226 687 190 703 q 306 671 263 671 q 385 688 350 671 q 419 729 419 704 m 211 951 q 241 921 211 932 q 304 910 271 910 q 368 921 338 910 q 399 951 399 932 q 370 982 399 971 q 304 993 342 993 q 239 982 267 993 q 211 951 211 971 z "},"…":{"ha":1003,"x_min":69,"x_max":933,"o":"m 69 0 l 69 256 l 283 256 l 283 0 l 69 0 m 394 0 l 394 256 l 608 256 l 608 0 l 394 0 m 719 0 l 719 256 l 933 256 l 933 0 l 719 0 z "},"ē":{"ha":846,"x_min":26,"x_max":826,"o":"m 426 -14 q 256 16 331 -14 q 130 97 181 46 q 53 215 79 149 q 26 356 26 282 q 52 506 26 435 q 128 629 78 576 q 253 713 179 682 q 426 744 328 744 q 599 713 524 744 q 724 630 674 682 q 801 509 775 578 q 826 365 826 440 q 824 323 826 344 q 819 285 822 301 l 307 285 q 350 201 311 226 q 435 175 389 175 q 516 194 478 175 q 567 249 554 214 l 790 185 q 653 42 746 97 q 426 -14 561 -14 m 543 443 q 504 526 536 496 q 422 557 472 557 q 340 526 372 557 q 301 443 308 496 l 543 443 m 213 843 l 213 1000 l 643 1000 l 643 843 l 213 843 z "},"—":{"ha":1317,"x_min":69,"x_max":1247,"o":"m 69 265 l 69 501 l 1247 501 l 1247 265 l 69 265 z "},"–":{"ha":874,"x_min":69,"x_max":804,"o":"m 69 265 l 69 501 l 804 501 l 804 265 l 69 265 z "},"ŋ":{"ha":861,"x_min":67,"x_max":800,"o":"m 514 -290 q 403 -271 456 -290 q 307 -215 350 -251 l 415 -36 q 481 -64 440 -64 q 522 -48 507 -64 q 538 -4 538 -32 l 538 411 q 513 490 538 465 q 457 514 489 514 q 386 485 424 514 q 331 410 349 456 l 331 0 l 67 0 l 67 731 l 304 731 l 304 622 q 413 713 343 682 q 579 744 483 744 q 698 717 654 744 q 765 650 742 690 q 794 564 788 610 q 800 481 800 518 l 800 17 q 778 -108 800 -51 q 719 -205 757 -164 q 628 -268 681 -246 q 514 -290 576 -290 z "},"ę":{"ha":846,"x_min":26,"x_max":826,"o":"m 506 -296 q 346 -244 397 -283 q 294 -157 294 -206 q 318 -83 294 -121 q 390 -12 342 -46 q 235 25 303 -7 q 120 107 167 57 q 50 222 74 157 q 26 356 26 286 q 52 506 26 435 q 128 629 78 576 q 253 713 179 682 q 426 744 328 744 q 599 713 524 744 q 724 630 674 682 q 801 509 775 578 q 826 365 826 440 q 824 323 826 344 q 819 285 822 301 l 307 285 q 350 201 311 226 q 435 175 389 175 q 516 194 478 175 q 567 249 554 214 l 790 185 q 698 72 757 119 q 556 1 639 24 q 457 -106 457 -54 q 481 -143 457 -129 q 554 -157 504 -157 l 506 -296 m 543 443 q 504 526 536 496 q 422 557 472 557 q 340 526 372 557 q 301 443 308 496 l 543 443 z "},"=":{"ha":601,"x_min":76,"x_max":525,"o":"m 76 140 l 76 307 l 525 307 l 525 140 l 76 140 m 76 460 l 76 626 l 525 626 l 525 460 l 76 460 z "},"ð":{"ha":863,"x_min":31,"x_max":831,"o":"m 765 890 l 679 846 q 790 640 750 754 q 831 404 831 526 q 803 228 831 306 q 724 97 775 151 q 598 15 672 43 q 431 -14 524 -14 q 269 11 343 -14 q 142 81 196 36 q 60 188 89 126 q 31 325 31 250 q 56 454 31 394 q 126 558 82 514 q 231 628 171 603 q 361 654 292 654 q 468 638 417 654 q 560 590 519 621 q 527 678 547 636 q 478 761 507 721 l 372 708 l 300 807 l 393 854 q 150 1014 300 939 l 469 1014 q 533 980 501 999 q 593 936 564 961 l 693 989 l 765 890 m 301 326 q 337 241 301 274 q 431 208 372 208 q 524 241 489 208 q 560 326 560 274 q 524 412 560 379 q 431 444 489 444 q 337 412 372 444 q 301 326 301 379 z "},"ẽ":{"ha":846,"x_min":26,"x_max":826,"o":"m 426 -14 q 256 16 331 -14 q 130 97 181 46 q 53 215 79 149 q 26 356 26 282 q 52 506 26 435 q 128 629 78 576 q 253 713 179 682 q 426 744 328 744 q 599 713 524 744 q 724 630 674 682 q 801 509 775 578 q 826 365 826 440 q 824 323 826 344 q 819 285 822 301 l 307 285 q 350 201 311 226 q 435 175 389 175 q 516 194 478 175 q 567 249 554 214 l 790 185 q 653 42 746 97 q 426 -14 561 -14 m 543 443 q 504 526 536 496 q 422 557 472 557 q 340 526 372 557 q 301 443 308 496 l 543 443 m 515 794 q 459 805 483 794 q 414 828 435 815 q 373 851 393 840 q 329 861 353 861 q 293 851 306 861 q 274 829 281 842 q 267 806 268 817 q 265 794 265 796 l 125 794 q 135 849 125 813 q 169 922 146 886 q 229 986 193 958 q 318 1014 265 1014 q 376 1003 351 1014 q 422 978 401 992 q 463 954 443 965 q 506 943 482 943 q 542 953 528 943 q 563 977 556 964 q 573 1001 571 990 q 575 1014 575 1013 l 714 1014 q 703 966 714 1001 q 668 892 692 931 q 607 824 644 854 q 515 794 569 794 z "},"!":{"ha":503,"x_min":119,"x_max":383,"o":"m 119 417 l 119 996 l 383 996 l 383 417 l 119 417 m 119 0 l 119 256 l 383 256 l 383 0 l 119 0 z "},"¡":{"ha":500,"x_min":118,"x_max":382,"o":"m 382 569 l 382 -10 l 118 -10 l 118 569 l 382 569 m 382 986 l 382 731 l 118 731 l 118 986 l 382 986 z "},"f":{"ha":558,"x_min":28,"x_max":589,"o":"m 118 0 l 118 447 l 28 447 l 28 646 l 118 646 l 118 725 q 138 849 118 793 q 192 945 157 906 q 276 1006 226 985 q 386 1028 325 1028 q 589 986 478 1028 l 544 786 q 494 800 521 794 q 446 806 467 806 q 382 735 382 806 l 382 646 l 542 646 l 542 447 l 382 447 l 382 0 l 118 0 z "},"ﬀ":{"ha":960,"x_min":28,"x_max":990,"o":"m 849 806 q 783 735 783 806 l 783 646 l 943 646 l 943 447 l 783 447 l 783 0 l 519 0 l 519 447 l 382 447 l 382 0 l 118 0 l 118 447 l 28 447 l 28 646 l 118 646 l 118 678 q 137 802 118 746 q 191 898 156 858 q 277 959 226 938 q 390 981 328 981 q 588 939 476 981 q 674 1004 624 981 q 792 1028 725 1028 q 990 986 879 1028 l 946 786 q 895 800 922 794 q 849 806 868 806 m 519 746 q 481 755 500 751 q 446 758 461 758 q 382 688 382 758 l 382 646 l 519 646 l 519 746 z "},"ﬃ":{"ha":1265,"x_min":28,"x_max":1200,"o":"m 118 447 l 28 447 l 28 646 l 118 646 l 118 678 q 137 802 118 746 q 191 898 156 858 q 277 959 226 938 q 390 981 328 981 q 588 939 476 981 q 698 1004 632 981 q 847 1028 764 1028 q 998 1001 918 1028 q 1171 917 1078 975 l 1071 717 q 972 781 1026 757 q 876 806 918 806 q 783 735 783 806 l 783 646 l 1200 646 l 1200 0 l 935 0 l 935 447 l 783 447 l 783 0 l 519 0 l 519 447 l 382 447 l 382 0 l 118 0 l 118 447 m 519 646 l 519 746 q 481 755 500 751 q 446 758 461 758 q 382 688 382 758 l 382 646 l 519 646 z "},"ﬄ":{"ha":1397,"x_min":28,"x_max":1400,"o":"m 1188 -12 q 1094 1 1135 -12 q 1024 40 1053 15 q 981 95 996 64 q 965 163 965 126 l 965 671 q 963 726 965 701 q 949 768 960 750 q 920 796 939 786 q 871 806 901 806 q 801 770 821 806 q 782 686 782 735 l 782 646 l 878 646 l 878 447 l 782 447 l 782 0 l 518 0 l 518 447 l 382 447 l 382 0 l 118 0 l 118 447 l 28 447 l 28 646 l 118 646 l 118 678 q 138 802 118 746 q 192 898 157 858 q 276 959 226 938 q 386 981 325 981 q 589 939 478 981 q 706 1006 635 985 q 868 1028 778 1028 q 1031 1005 963 1028 q 1143 940 1099 982 q 1208 840 1188 899 q 1229 708 1229 781 l 1229 301 q 1242 249 1229 275 q 1289 222 1256 222 q 1314 226 1300 222 q 1339 233 1328 229 q 1358 241 1350 238 q 1368 244 1367 244 l 1400 33 q 1379 24 1399 32 q 1330 8 1360 17 q 1263 -6 1300 0 q 1188 -12 1225 -12 m 518 646 l 518 747 q 446 758 478 758 q 382 688 382 758 l 382 646 l 518 646 z "},"ﬁ":{"ha":863,"x_min":28,"x_max":797,"o":"m 118 447 l 28 447 l 28 646 l 118 646 l 118 725 q 142 849 118 793 q 211 945 167 906 q 316 1006 256 985 q 450 1028 376 1028 q 606 1001 531 1028 q 769 917 682 974 l 669 717 q 569 782 621 758 q 468 806 517 806 q 405 788 428 806 q 382 735 382 771 l 382 646 l 797 646 l 797 0 l 533 0 l 533 447 l 382 447 l 382 0 l 118 0 l 118 447 z "},"ﬂ":{"ha":997,"x_min":28,"x_max":1000,"o":"m 1000 33 q 979 24 999 32 q 930 8 960 17 q 863 -6 900 0 q 788 -12 825 -12 q 694 1 735 -12 q 624 40 653 15 q 581 95 596 64 q 565 163 565 126 l 565 657 q 550 769 565 732 q 479 806 535 806 q 402 772 422 806 q 382 686 382 739 l 382 646 l 478 646 l 478 447 l 382 447 l 382 0 l 118 0 l 118 447 l 28 447 l 28 646 l 118 646 l 118 750 q 144 875 118 822 q 215 962 169 928 q 326 1012 261 996 q 468 1028 390 1028 q 631 1005 563 1028 q 743 940 699 982 q 808 840 788 899 q 829 708 829 781 l 829 301 q 842 249 829 275 q 889 222 856 222 q 914 226 900 222 q 939 233 928 229 q 958 241 950 238 q 968 244 967 244 l 1000 33 z "},"⅝":{"ha":1486,"x_min":44,"x_max":1439,"o":"m 310 90 l 703 533 l 1051 1001 l 1167 897 l 790 468 l 425 -14 l 310 90 m 1439 185 q 1417 108 1439 143 q 1360 47 1396 72 q 1275 6 1324 21 q 1172 -8 1226 -8 q 1069 6 1118 -8 q 983 47 1019 21 q 926 110 947 74 q 904 188 904 146 q 913 235 904 214 q 937 272 922 256 q 972 302 951 289 q 1014 326 992 315 q 953 368 979 342 q 928 438 928 394 q 949 507 928 475 q 1006 562 971 539 q 1084 598 1040 585 q 1171 611 1128 611 q 1258 599 1214 611 q 1337 563 1301 586 q 1394 509 1372 540 q 1417 440 1417 478 q 1392 372 1417 400 q 1329 326 1367 343 q 1408 269 1378 303 q 1439 185 1439 236 m 1286 201 q 1251 243 1286 228 q 1171 258 1215 258 q 1090 242 1124 258 q 1057 201 1057 226 q 1093 159 1057 175 q 1172 143 1129 143 q 1251 160 1217 143 q 1286 201 1286 176 m 1078 424 q 1108 393 1078 404 q 1171 382 1138 382 q 1235 393 1204 382 q 1265 424 1265 404 q 1237 454 1265 443 q 1171 465 1208 465 q 1106 454 1133 465 q 1078 424 1078 443 m 317 804 q 412 790 368 804 q 488 749 456 775 q 539 685 521 722 q 557 606 557 649 q 537 521 557 560 q 480 453 517 482 q 392 410 443 425 q 282 394 342 394 q 142 420 206 394 q 44 490 79 446 l 131 596 q 201 555 160 569 q 292 540 242 540 q 370 556 338 540 q 403 614 403 572 q 394 650 403 635 q 370 675 385 665 q 339 689 356 685 q 307 693 322 693 q 242 676 275 693 q 194 633 208 660 l 64 633 q 107 824 82 729 q 149 1015 132 918 l 507 1015 l 507 864 l 257 864 l 233 793 q 263 800 243 796 q 317 804 283 804 z "},"⁵":{"ha":572,"x_min":28,"x_max":540,"o":"m 300 929 q 395 915 351 929 q 472 874 439 900 q 522 810 504 847 q 540 731 540 774 q 520 646 540 685 q 463 578 500 607 q 376 535 426 550 q 265 519 325 519 q 126 545 189 519 q 28 615 63 571 l 114 721 q 184 680 143 694 q 275 665 225 665 q 353 681 321 665 q 386 739 386 697 q 377 775 386 760 q 353 800 368 790 q 322 814 339 810 q 290 818 306 818 q 225 801 258 818 q 178 758 192 785 l 47 758 q 90 949 65 854 q 132 1140 115 1043 l 490 1140 l 490 989 l 240 989 l 217 918 q 247 925 226 921 q 300 929 267 929 z "},"⁄":{"ha":333,"x_min":-262,"x_max":594,"o":"m -262 90 l 131 533 l 479 1001 l 594 897 l 218 468 l -147 -14 l -262 90 z "},"₅":{"ha":571,"x_min":26,"x_max":539,"o":"m 299 276 q 394 262 350 276 q 470 221 438 247 q 521 158 503 194 q 539 78 539 121 q 519 -7 539 32 q 462 -74 499 -46 q 374 -118 425 -103 q 264 -133 324 -133 q 124 -108 188 -133 q 26 -37 61 -82 l 113 68 q 183 27 142 42 q 274 13 224 13 q 352 28 319 13 q 385 86 385 44 q 376 122 385 107 q 352 147 367 138 q 321 161 338 157 q 289 165 304 165 q 224 149 257 165 q 176 106 190 132 l 46 106 q 89 296 64 201 q 131 488 114 390 l 489 488 l 489 336 l 239 336 l 215 265 q 245 272 225 268 q 299 276 265 276 z "},"ƒ":{"ha":785,"x_min":39,"x_max":739,"o":"m 246 -290 q 135 -271 188 -290 q 39 -215 82 -251 l 147 -36 q 213 -64 172 -64 q 268 -4 268 -64 l 268 447 l 178 447 l 178 646 l 268 646 l 268 725 q 288 849 268 793 q 342 945 307 906 q 426 1006 376 985 q 536 1028 475 1028 q 739 986 628 1028 l 694 786 q 644 800 671 794 q 596 806 617 806 q 532 735 532 806 l 532 646 l 692 646 l 692 447 l 532 447 l 532 3 q 510 -117 532 -62 q 451 -209 489 -171 q 360 -269 413 -247 q 246 -290 307 -290 z "},"₄":{"ha":599,"x_min":26,"x_max":564,"o":"m 325 -124 l 325 -8 l 26 -8 l 26 140 l 372 488 l 475 488 l 475 140 l 564 140 l 564 -8 l 475 -8 l 475 -124 l 325 -124 m 167 140 l 331 140 l 331 308 l 167 140 z "},"⁴":{"ha":599,"x_min":26,"x_max":564,"o":"m 325 529 l 325 644 l 26 644 l 26 793 l 372 1140 l 475 1140 l 475 793 l 564 793 l 564 644 l 475 644 l 475 529 l 325 529 m 167 793 l 331 793 l 331 961 l 167 793 z "},"g":{"ha":899,"x_min":29,"x_max":832,"o":"m 347 0 q 217 28 276 0 q 117 106 158 57 q 52 222 75 156 q 29 367 29 289 q 54 518 29 449 q 124 638 79 588 q 232 716 169 688 q 369 744 294 744 q 508 713 449 744 q 603 622 568 682 l 603 731 l 832 731 l 832 67 q 800 -89 832 -19 q 710 -207 768 -158 q 569 -283 651 -256 q 388 -310 488 -310 q 185 -274 271 -310 q 32 -169 99 -237 l 171 -25 q 267 -88 211 -62 q 388 -114 324 -114 q 456 -104 424 -114 q 514 -73 489 -94 q 553 -17 539 -51 q 568 67 568 18 l 568 114 q 477 28 536 56 q 347 0 418 0 m 442 208 q 512 227 482 208 q 568 283 542 246 l 568 414 q 510 493 549 464 q 431 522 472 522 q 378 509 403 522 q 336 474 354 496 q 308 423 318 453 q 299 360 299 393 q 339 250 299 292 q 442 208 379 208 z "},"ğ":{"ha":899,"x_min":29,"x_max":832,"o":"m 347 0 q 217 28 276 0 q 117 106 158 57 q 52 222 75 156 q 29 367 29 289 q 54 518 29 449 q 124 638 79 588 q 232 716 169 688 q 369 744 294 744 q 508 713 449 744 q 603 622 568 682 l 603 731 l 832 731 l 832 67 q 800 -89 832 -19 q 710 -207 768 -158 q 569 -283 651 -256 q 388 -310 488 -310 q 185 -274 271 -310 q 32 -169 99 -237 l 171 -25 q 267 -88 211 -62 q 388 -114 324 -114 q 456 -104 424 -114 q 514 -73 489 -94 q 553 -17 539 -51 q 568 67 568 18 l 568 114 q 477 28 536 56 q 347 0 418 0 m 442 208 q 512 227 482 208 q 568 283 542 246 l 568 414 q 510 493 549 464 q 431 522 472 522 q 378 509 403 522 q 336 474 354 496 q 308 423 318 453 q 299 360 299 393 q 339 250 299 292 q 442 208 379 208 m 490 901 q 547 933 522 901 q 575 1014 571 965 l 711 1014 q 695 923 711 964 q 650 852 679 882 q 580 806 621 822 q 490 789 539 789 q 401 806 442 789 q 331 852 360 822 q 285 923 301 882 q 269 1014 269 964 l 406 1014 q 431 935 406 968 q 490 901 456 901 z "},"ĝ":{"ha":899,"x_min":29,"x_max":832,"o":"m 347 0 q 217 28 276 0 q 117 106 158 57 q 52 222 75 156 q 29 367 29 289 q 54 518 29 449 q 124 638 79 588 q 232 716 169 688 q 369 744 294 744 q 508 713 449 744 q 603 622 568 682 l 603 731 l 832 731 l 832 67 q 800 -89 832 -19 q 710 -207 768 -158 q 569 -283 651 -256 q 388 -310 488 -310 q 185 -274 271 -310 q 32 -169 99 -237 l 171 -25 q 267 -88 211 -62 q 388 -114 324 -114 q 456 -104 424 -114 q 514 -73 489 -94 q 553 -17 539 -51 q 568 67 568 18 l 568 114 q 477 28 536 56 q 347 0 418 0 m 442 208 q 512 227 482 208 q 568 283 542 246 l 568 414 q 510 493 549 464 q 431 522 472 522 q 378 509 403 522 q 336 474 354 496 q 308 423 318 453 q 299 360 299 393 q 339 250 299 292 q 442 208 379 208 m 239 854 l 396 1014 l 585 1014 l 742 854 l 608 796 l 490 883 l 372 796 l 239 854 z "},"ģ":{"ha":899,"x_min":29,"x_max":832,"o":"m 347 0 q 217 28 276 0 q 117 106 158 57 q 52 222 75 156 q 29 367 29 289 q 54 518 29 449 q 124 638 79 588 q 232 716 169 688 q 369 744 294 744 q 508 713 449 744 q 603 622 568 682 l 603 731 l 832 731 l 832 67 q 800 -89 832 -19 q 710 -207 768 -158 q 569 -283 651 -256 q 388 -310 488 -310 q 185 -274 271 -310 q 32 -169 99 -237 l 171 -25 q 267 -88 211 -62 q 388 -114 324 -114 q 456 -104 424 -114 q 514 -73 489 -94 q 553 -17 539 -51 q 568 67 568 18 l 568 114 q 477 28 536 56 q 347 0 418 0 m 442 208 q 512 227 482 208 q 568 283 542 246 l 568 414 q 510 493 549 464 q 431 522 472 522 q 378 509 403 522 q 336 474 354 496 q 308 423 318 453 q 299 360 299 393 q 339 250 299 292 q 442 208 379 208 m 550 1042 l 500 957 l 579 957 l 579 810 l 361 810 l 361 957 l 436 1042 l 550 1042 z "},"ġ":{"ha":899,"x_min":29,"x_max":832,"o":"m 347 0 q 217 28 276 0 q 117 106 158 57 q 52 222 75 156 q 29 367 29 289 q 54 518 29 449 q 124 638 79 588 q 232 716 169 688 q 369 744 294 744 q 508 713 449 744 q 603 622 568 682 l 603 731 l 832 731 l 832 67 q 800 -89 832 -19 q 710 -207 768 -158 q 569 -283 651 -256 q 388 -310 488 -310 q 185 -274 271 -310 q 32 -169 99 -237 l 171 -25 q 267 -88 211 -62 q 388 -114 324 -114 q 456 -104 424 -114 q 514 -73 489 -94 q 553 -17 539 -51 q 568 67 568 18 l 568 114 q 477 28 536 56 q 347 0 418 0 m 442 208 q 512 227 482 208 q 568 283 542 246 l 568 414 q 510 493 549 464 q 431 522 472 522 q 378 509 403 522 q 336 474 354 496 q 308 423 318 453 q 299 360 299 393 q 339 250 299 292 q 442 208 379 208 m 372 806 l 372 1014 l 608 1014 l 608 806 l 372 806 z "},"ß":{"ha":782,"x_min":67,"x_max":756,"o":"m 353 233 q 441 258 404 233 q 478 329 478 282 q 467 372 478 354 q 442 400 457 389 q 410 416 426 411 q 382 421 394 421 l 350 421 l 350 657 l 379 657 q 421 672 408 657 q 433 711 433 688 q 424 745 433 733 q 404 763 415 757 q 384 769 393 768 q 374 769 375 769 q 341 759 353 769 q 324 735 329 749 q 317 707 318 721 q 317 686 317 693 l 317 0 l 67 0 l 67 735 q 92 837 67 790 q 163 918 118 883 q 269 972 208 953 q 400 992 329 992 q 513 976 461 992 q 603 931 565 961 q 662 858 640 901 q 683 758 683 814 q 675 692 683 724 q 653 634 667 660 q 622 589 640 608 q 585 560 604 569 q 710 463 664 529 q 756 296 756 396 q 719 147 756 206 q 624 53 682 88 q 495 6 567 19 q 353 -8 424 -8 l 353 233 z "},">":{"ha":724,"x_min":92,"x_max":681,"o":"m 681 292 l 92 -56 l 92 239 l 297 360 l 92 492 l 92 772 l 681 414 l 681 292 z "},"«":{"ha":990,"x_min":42,"x_max":914,"o":"m 42 414 l 426 689 l 426 478 l 249 360 l 426 253 l 426 42 l 42 292 l 42 414 m 529 414 l 914 689 l 914 478 l 736 360 l 914 253 l 914 42 l 529 292 l 529 414 z "},"»":{"ha":990,"x_min":76,"x_max":949,"o":"m 949 292 l 564 42 l 564 253 l 742 360 l 564 478 l 564 689 l 949 414 l 949 292 m 461 292 l 76 42 l 76 253 l 254 360 l 76 478 l 76 689 l 461 414 l 461 292 z "},"‹":{"ha":503,"x_min":42,"x_max":426,"o":"m 42 414 l 426 689 l 426 478 l 249 360 l 426 253 l 426 42 l 42 292 l 42 414 z "},"›":{"ha":503,"x_min":76,"x_max":461,"o":"m 461 292 l 76 42 l 76 253 l 254 360 l 76 478 l 76 689 l 461 414 l 461 292 z "},"h":{"ha":863,"x_min":67,"x_max":801,"o":"m 801 0 l 538 0 l 538 411 q 513 490 538 465 q 453 514 489 514 q 423 506 440 514 q 388 485 406 499 q 356 453 371 472 q 331 410 340 433 l 331 0 l 67 0 l 67 1014 l 331 1014 l 331 622 q 432 713 369 682 q 572 744 494 744 q 694 718 649 744 q 764 652 740 692 q 794 567 788 613 q 801 481 801 521 l 801 0 z "},"ħ":{"ha":863,"x_min":25,"x_max":801,"o":"m 801 0 l 538 0 l 538 411 q 513 490 538 465 q 453 514 489 514 q 423 506 440 514 q 388 485 406 499 q 356 453 371 472 q 331 410 340 433 l 331 0 l 67 0 l 67 804 l 25 804 l 25 956 l 67 956 l 67 1014 l 331 1014 l 331 956 l 490 956 l 490 804 l 331 804 l 331 622 q 432 713 369 682 q 572 744 494 744 q 694 718 649 744 q 764 652 740 692 q 794 567 788 613 q 801 481 801 521 l 801 0 z "},"ĥ":{"ha":863,"x_min":67,"x_max":801,"o":"m 801 0 l 538 0 l 538 411 q 513 490 538 465 q 453 514 489 514 q 423 506 440 514 q 388 485 406 499 q 356 453 371 472 q 331 410 340 433 l 331 0 l 67 0 l 67 1014 l 331 1014 l 331 622 q 432 713 369 682 q 572 744 494 744 q 694 718 649 744 q 764 652 740 692 q 794 567 788 613 q 801 481 801 521 l 801 0 m 369 857 l 499 1013 l 653 1013 l 781 857 l 672 801 l 575 886 l 479 801 l 369 857 z "},"-":{"ha":574,"x_min":69,"x_max":504,"o":"m 69 265 l 69 501 l 504 501 l 504 265 l 69 265 z "},"i":{"ha":397,"x_min":67,"x_max":331,"o":"m 67 0 l 67 731 l 331 731 l 331 0 l 67 0 m 67 792 l 67 1014 l 331 1014 l 331 792 l 67 792 z "},"í":{"ha":397,"x_min":67,"x_max":417,"o":"m 67 0 l 67 731 l 331 731 l 331 0 l 67 0 m 279 772 l 113 817 l 182 1014 l 417 1014 l 279 772 z "},"ĭ":{"ha":397,"x_min":-22,"x_max":419,"o":"m 67 0 l 67 731 l 331 731 l 331 0 l 67 0 m 199 901 q 255 933 231 901 q 283 1014 279 965 l 419 1014 q 403 923 419 964 q 358 852 388 882 q 288 806 329 822 q 199 789 247 789 q 109 806 150 789 q 39 852 68 822 q -6 923 10 882 q -22 1014 -22 964 l 114 1014 q 139 935 114 968 q 199 901 164 901 z "},"î":{"ha":397,"x_min":-53,"x_max":450,"o":"m 67 0 l 67 731 l 331 731 l 331 0 l 67 0 m -53 854 l 104 1014 l 293 1014 l 450 854 l 317 796 l 199 883 l 81 796 l -53 854 z "},"ï":{"ha":397,"x_min":-69,"x_max":467,"o":"m 67 0 l 67 731 l 331 731 l 331 0 l 67 0 m -69 807 l -69 1001 l 147 1001 l 147 807 l -69 807 m 250 807 l 250 1001 l 467 1001 l 467 807 l 250 807 z "},"ì":{"ha":397,"x_min":-19,"x_max":331,"o":"m 67 0 l 67 731 l 331 731 l 331 0 l 67 0 m -19 1015 l 215 1015 l 285 818 l 118 774 l -19 1015 z "},"ĳ":{"ha":800,"x_min":67,"x_max":733,"o":"m 67 0 l 67 731 l 331 731 l 331 0 l 67 0 m 67 792 l 67 1014 l 331 1014 l 331 792 l 67 792 m 447 -290 q 336 -271 389 -290 q 240 -215 283 -251 l 349 -36 q 414 -64 374 -64 q 469 -4 469 -64 l 469 731 l 733 731 l 733 17 q 713 -108 733 -51 q 653 -205 692 -164 q 563 -268 615 -246 q 447 -290 510 -290 m 469 792 l 469 1014 l 733 1014 l 733 792 l 469 792 z "},"j":{"ha":403,"x_min":-157,"x_max":336,"o":"m 50 -290 q -61 -271 -8 -290 q -157 -215 -114 -251 l -49 -36 q 17 -64 -24 -64 q 72 -4 72 -64 l 72 731 l 336 731 l 336 17 q 315 -108 336 -51 q 256 -205 294 -164 q 165 -268 218 -246 q 50 -290 113 -290 m 72 792 l 72 1014 l 336 1014 l 336 792 l 72 792 z "},"ī":{"ha":397,"x_min":-15,"x_max":415,"o":"m 67 0 l 67 731 l 331 731 l 331 0 l 67 0 m -15 843 l -15 1000 l 415 1000 l 415 843 l -15 843 z "},"į":{"ha":397,"x_min":67,"x_max":331,"o":"m 279 -299 q 119 -247 171 -286 q 68 -160 68 -208 q 98 -78 68 -119 q 188 0 128 -36 l 67 0 l 67 731 l 331 731 l 331 0 q 256 -56 282 -28 q 231 -108 231 -85 q 254 -146 231 -132 q 328 -160 278 -160 l 279 -299 m 67 792 l 67 1014 l 331 1014 l 331 792 l 67 792 z "},"ĩ":{"ha":397,"x_min":-103,"x_max":486,"o":"m 67 0 l 67 731 l 331 731 l 331 0 l 67 0 m 288 794 q 231 805 256 794 q 186 828 207 815 q 145 851 165 840 q 101 861 125 861 q 65 851 78 861 q 47 829 53 842 q 39 806 40 817 q 38 794 38 796 l -103 794 q -92 849 -103 813 q -58 922 -82 886 q 1 986 -35 958 q 90 1014 38 1014 q 149 1003 124 1014 q 194 978 174 992 q 235 954 215 965 q 278 943 254 943 q 314 953 300 943 q 335 977 328 964 q 345 1001 343 990 q 347 1014 347 1013 l 486 1014 q 475 966 486 1001 q 440 892 464 931 q 379 824 417 854 q 288 794 342 794 z "},"ĵ":{"ha":397,"x_min":-162,"x_max":450,"o":"m 44 -290 q -67 -271 -14 -290 q -162 -215 -119 -251 l -54 -36 q 11 -64 -29 -64 q 67 -4 67 -64 l 67 731 l 331 731 l 331 17 q 310 -108 331 -51 q 251 -205 289 -164 q 160 -268 213 -246 q 44 -290 107 -290 m -53 854 l 104 1014 l 293 1014 l 450 854 l 317 796 l 199 883 l 81 796 l -53 854 z "},"k":{"ha":808,"x_min":67,"x_max":828,"o":"m 549 0 l 383 267 l 331 208 l 331 0 l 67 0 l 67 1014 l 331 1014 l 331 460 l 525 731 l 803 731 l 551 411 l 828 0 l 549 0 z "},"ķ":{"ha":808,"x_min":67,"x_max":828,"o":"m 549 0 l 383 267 l 331 208 l 331 0 l 67 0 l 67 1014 l 331 1014 l 331 460 l 525 731 l 803 731 l 551 411 l 828 0 l 549 0 m 332 -296 l 382 -211 l 303 -211 l 303 -64 l 521 -64 l 521 -211 l 446 -296 l 332 -296 z "},"ĸ":{"ha":808,"x_min":67,"x_max":828,"o":"m 549 0 l 383 267 l 331 208 l 331 0 l 67 0 l 67 731 l 331 731 l 331 460 l 525 731 l 803 731 l 551 411 l 828 0 l 549 0 z "},"l":{"ha":493,"x_min":61,"x_max":499,"o":"m 61 1014 l 325 1014 l 325 290 q 393 207 325 207 q 429 213 410 207 q 465 228 449 218 l 499 33 q 392 -1 451 11 q 281 -14 333 -14 q 118 40 175 -14 q 61 197 61 94 l 61 1014 z "},"ĺ":{"ha":493,"x_min":61,"x_max":499,"o":"m 61 1014 l 325 1014 l 325 290 q 393 207 325 207 q 429 213 410 207 q 465 228 449 218 l 499 33 q 392 -1 451 11 q 281 -14 333 -14 q 118 40 175 -14 q 61 197 61 94 l 61 1014 m 274 1053 l 107 1097 l 176 1294 l 411 1294 l 274 1053 z "},"ľ":{"ha":493,"x_min":61,"x_max":678,"o":"m 61 1014 l 325 1014 l 325 290 q 393 207 325 207 q 429 213 410 207 q 465 228 449 218 l 499 33 q 392 -1 451 11 q 281 -14 333 -14 q 118 40 175 -14 q 61 197 61 94 l 61 1014 m 540 771 l 374 815 l 443 1013 l 678 1013 l 540 771 z "},"ļ":{"ha":493,"x_min":61,"x_max":499,"o":"m 61 1014 l 325 1014 l 325 290 q 393 207 325 207 q 429 213 410 207 q 465 228 449 218 l 499 33 q 392 -1 451 11 q 281 -14 333 -14 q 118 40 175 -14 q 61 197 61 94 l 61 1014 m 196 -296 l 246 -211 l 167 -211 l 167 -64 l 385 -64 l 385 -211 l 310 -296 l 196 -296 z "},"ŀ":{"ha":649,"x_min":61,"x_max":624,"o":"m 61 1014 l 325 1014 l 325 290 q 393 207 325 207 q 429 213 410 207 q 465 228 449 218 l 499 33 q 392 -1 451 11 q 281 -14 333 -14 q 118 40 175 -14 q 61 197 61 94 l 61 1014 m 410 415 l 410 671 l 624 671 l 624 415 l 410 415 z "},"<":{"ha":724,"x_min":43,"x_max":632,"o":"m 43 414 l 632 772 l 632 492 l 426 360 l 632 239 l 632 -56 l 43 292 l 43 414 z "},"¬":{"ha":885,"x_min":68,"x_max":803,"o":"m 803 599 l 803 124 l 581 124 l 581 363 l 68 363 l 68 599 l 803 599 z "},"ł":{"ha":538,"x_min":-15,"x_max":539,"o":"m 100 376 l 44 350 l -15 490 l 100 546 l 100 1014 l 364 1014 l 364 675 l 479 732 l 539 592 l 364 506 l 364 290 q 432 207 364 207 q 468 213 449 207 q 504 228 488 218 l 538 33 q 431 -1 490 11 q 319 -14 372 -14 q 157 40 214 -14 q 100 197 100 94 l 100 376 z "},"m":{"ha":1306,"x_min":67,"x_max":1244,"o":"m 1244 0 l 981 0 l 981 411 q 959 490 981 465 q 907 514 938 514 q 840 485 875 514 q 788 410 804 456 l 788 0 l 524 0 l 524 411 q 502 490 524 465 q 450 514 481 514 q 383 485 418 514 q 331 410 347 456 l 331 0 l 67 0 l 67 731 l 304 731 l 304 622 q 411 713 343 682 q 572 744 479 744 q 650 734 617 744 q 708 706 683 724 q 747 665 732 688 q 769 618 761 643 q 876 711 808 678 q 1029 744 943 744 q 1144 717 1101 744 q 1208 650 1186 690 q 1238 564 1231 610 q 1244 481 1244 518 l 1244 0 z "},"−":{"ha":714,"x_min":76,"x_max":638,"o":"m 76 389 l 76 597 l 638 597 l 638 389 l 76 389 z "},"µ":{"ha":983,"x_min":104,"x_max":903,"o":"m 104 731 l 368 731 l 368 310 q 389 235 368 261 q 454 208 410 208 q 511 222 479 208 q 575 283 543 236 l 575 731 l 839 731 l 839 292 q 853 240 839 254 q 903 222 867 225 l 903 0 q 832 -10 863 -7 q 778 -14 801 -14 q 622 88 643 -14 l 617 114 q 588 70 608 93 q 542 28 568 47 q 486 -3 515 10 q 431 -15 457 -15 q 386 -3 407 -15 q 351 36 365 8 l 351 -296 l 104 -296 l 104 731 z "},"×":{"ha":683,"x_min":57,"x_max":626,"o":"m 626 265 l 461 101 l 340 222 l 219 101 l 57 265 l 176 385 l 65 497 l 231 661 l 342 550 l 453 661 l 615 497 l 504 386 l 626 265 z "},"n":{"ha":863,"x_min":67,"x_max":801,"o":"m 801 0 l 538 0 l 538 411 q 513 490 538 465 q 457 514 489 514 q 386 485 424 514 q 331 410 349 456 l 331 0 l 67 0 l 67 731 l 304 731 l 304 622 q 413 713 343 682 q 579 744 483 744 q 698 717 654 744 q 765 650 742 690 q 794 564 788 610 q 801 481 801 518 l 801 0 z "},"ń":{"ha":863,"x_min":67,"x_max":801,"o":"m 801 0 l 538 0 l 538 411 q 513 490 538 465 q 457 514 489 514 q 386 485 424 514 q 331 410 349 456 l 331 0 l 67 0 l 67 731 l 304 731 l 304 622 q 413 713 343 682 q 579 744 483 744 q 698 717 654 744 q 765 650 742 690 q 794 564 788 610 q 801 481 801 518 l 801 0 m 543 772 l 376 817 l 446 1014 l 681 1014 l 543 772 z "},"ŉ":{"ha":863,"x_min":-57,"x_max":801,"o":"m 801 0 l 538 0 l 538 411 q 513 490 538 465 q 457 514 489 514 q 386 485 424 514 q 331 410 349 456 l 331 0 l 67 0 l 67 731 l 304 731 l 304 622 q 413 713 343 682 q 579 744 483 744 q 698 717 654 744 q 765 650 742 690 q 794 564 788 610 q 801 481 801 518 l 801 0 m 110 772 l -57 817 l -14 938 l -29 1014 l 247 1014 l 110 772 z "},"ň":{"ha":863,"x_min":67,"x_max":801,"o":"m 801 0 l 538 0 l 538 411 q 513 490 538 465 q 457 514 489 514 q 386 485 424 514 q 331 410 349 456 l 331 0 l 67 0 l 67 731 l 304 731 l 304 622 q 413 713 343 682 q 579 744 483 744 q 698 717 654 744 q 765 650 742 690 q 794 564 788 610 q 801 481 801 518 l 801 0 m 344 1014 l 463 926 l 581 1014 l 714 956 l 557 796 l 368 796 l 211 956 l 344 1014 z "},"ņ":{"ha":863,"x_min":67,"x_max":801,"o":"m 801 0 l 538 0 l 538 411 q 513 490 538 465 q 457 514 489 514 q 386 485 424 514 q 331 410 349 456 l 331 0 l 67 0 l 67 731 l 304 731 l 304 622 q 413 713 343 682 q 579 744 483 744 q 698 717 654 744 q 765 650 742 690 q 794 564 788 610 q 801 481 801 518 l 801 0 m 347 -296 l 397 -211 l 318 -211 l 318 -64 l 536 -64 l 536 -211 l 461 -296 l 347 -296 z "},"ṅ":{"ha":863,"x_min":67,"x_max":801,"o":"m 801 0 l 538 0 l 538 411 q 513 490 538 465 q 457 514 489 514 q 386 485 424 514 q 331 410 349 456 l 331 0 l 67 0 l 67 731 l 304 731 l 304 622 q 413 713 343 682 q 579 744 483 744 q 698 717 654 744 q 765 650 742 690 q 794 564 788 610 q 801 481 801 518 l 801 0 m 344 806 l 344 1014 l 581 1014 l 581 806 l 344 806 z "},"₉":{"ha":613,"x_min":35,"x_max":572,"o":"m 35 276 q 55 361 35 322 q 111 429 75 400 q 197 475 147 458 q 304 492 246 492 q 501 413 431 492 q 572 188 572 333 q 496 -48 572 38 q 285 -133 419 -133 q 160 -112 218 -133 q 61 -51 103 -92 l 147 56 q 209 22 171 33 q 290 10 247 10 q 392 34 354 10 q 433 103 431 58 q 372 81 411 88 q 296 75 332 75 q 190 90 238 75 q 108 133 142 106 q 54 197 74 160 q 35 276 35 233 m 301 353 q 215 330 251 353 q 179 276 179 307 q 215 227 179 247 q 303 207 251 207 q 390 227 354 207 q 426 276 426 247 q 390 330 426 307 q 301 353 353 353 z "},"⁹":{"ha":613,"x_min":35,"x_max":572,"o":"m 35 924 q 55 1008 35 969 q 111 1076 75 1047 q 197 1122 147 1106 q 304 1139 246 1139 q 501 1060 431 1139 q 572 835 572 981 q 496 599 572 685 q 285 514 419 514 q 160 535 218 514 q 61 596 103 556 l 147 703 q 209 669 171 681 q 290 657 247 657 q 392 681 354 657 q 433 750 431 706 q 372 728 411 735 q 296 722 332 722 q 190 738 238 722 q 108 780 142 753 q 54 844 74 807 q 35 924 35 881 m 301 1000 q 215 977 251 1000 q 179 924 179 954 q 215 874 179 894 q 303 854 251 854 q 390 874 354 854 q 426 924 426 894 q 390 977 426 954 q 301 1000 353 1000 z "},"ñ":{"ha":863,"x_min":67,"x_max":801,"o":"m 801 0 l 538 0 l 538 411 q 513 490 538 465 q 457 514 489 514 q 386 485 424 514 q 331 410 349 456 l 331 0 l 67 0 l 67 731 l 304 731 l 304 622 q 413 713 343 682 q 579 744 483 744 q 698 717 654 744 q 765 650 742 690 q 794 564 788 610 q 801 481 801 518 l 801 0 m 551 794 q 495 805 519 794 q 450 828 471 815 q 409 851 429 840 q 365 861 389 861 q 329 851 342 861 q 310 829 317 842 q 303 806 304 817 q 301 794 301 796 l 161 794 q 172 849 161 813 q 206 922 182 886 q 265 986 229 958 q 354 1014 301 1014 q 413 1003 388 1014 q 458 978 438 992 q 499 954 479 965 q 542 943 518 943 q 578 953 564 943 q 599 977 592 964 q 609 1001 607 990 q 611 1014 611 1013 l 750 1014 q 739 966 750 1001 q 704 892 728 931 q 643 824 681 854 q 551 794 606 794 z "},"#":{"ha":1051,"x_min":50,"x_max":1001,"o":"m 1001 551 l 781 551 l 753 431 l 931 431 l 931 236 l 706 236 l 649 0 l 439 0 l 497 236 l 414 236 l 357 0 l 147 0 l 206 236 l 50 236 l 50 431 l 253 431 l 281 551 l 121 551 l 121 732 l 325 732 l 388 986 l 597 986 l 533 732 l 617 732 l 679 986 l 889 986 l 825 732 l 1001 732 l 1001 551 m 544 431 l 572 551 l 489 551 l 461 431 l 544 431 z "},"o":{"ha":853,"x_min":26,"x_max":826,"o":"m 426 -14 q 253 17 328 -14 q 128 101 179 49 q 52 222 78 153 q 26 365 26 290 q 52 509 26 440 q 128 630 78 578 q 253 713 179 682 q 426 744 328 744 q 599 713 524 744 q 724 630 674 682 q 801 509 775 578 q 826 365 826 440 q 801 222 826 290 q 724 101 775 153 q 599 17 674 49 q 426 -14 524 -14 m 297 365 q 333 250 297 292 q 426 208 369 208 q 519 250 483 208 q 556 365 556 292 q 519 481 556 439 q 426 522 483 522 q 333 481 369 522 q 297 365 297 439 z "},"ó":{"ha":853,"x_min":26,"x_max":826,"o":"m 426 -14 q 253 17 328 -14 q 128 101 179 49 q 52 222 78 153 q 26 365 26 290 q 52 509 26 440 q 128 630 78 578 q 253 713 179 682 q 426 744 328 744 q 599 713 524 744 q 724 630 674 682 q 801 509 775 578 q 826 365 826 440 q 801 222 826 290 q 724 101 775 153 q 599 17 674 49 q 426 -14 524 -14 m 297 365 q 333 250 297 292 q 426 208 369 208 q 519 250 483 208 q 556 365 556 292 q 519 481 556 439 q 426 522 483 522 q 333 481 369 522 q 297 365 297 439 m 507 772 l 340 817 l 410 1014 l 644 1014 l 507 772 z "},"ŏ":{"ha":853,"x_min":26,"x_max":826,"o":"m 426 -14 q 253 17 328 -14 q 128 101 179 49 q 52 222 78 153 q 26 365 26 290 q 52 509 26 440 q 128 630 78 578 q 253 713 179 682 q 426 744 328 744 q 599 713 524 744 q 724 630 674 682 q 801 509 775 578 q 826 365 826 440 q 801 222 826 290 q 724 101 775 153 q 599 17 674 49 q 426 -14 524 -14 m 297 365 q 333 250 297 292 q 426 208 369 208 q 519 250 483 208 q 556 365 556 292 q 519 481 556 439 q 426 522 483 522 q 333 481 369 522 q 297 365 297 439 m 426 901 q 483 933 458 901 q 511 1014 507 965 l 647 1014 q 631 923 647 964 q 586 852 615 882 q 516 806 557 822 q 426 789 475 789 q 337 806 378 789 q 267 852 296 822 q 222 923 238 882 q 206 1014 206 964 l 342 1014 q 367 935 342 968 q 426 901 392 901 z "},"ô":{"ha":853,"x_min":26,"x_max":826,"o":"m 426 -14 q 253 17 328 -14 q 128 101 179 49 q 52 222 78 153 q 26 365 26 290 q 52 509 26 440 q 128 630 78 578 q 253 713 179 682 q 426 744 328 744 q 599 713 524 744 q 724 630 674 682 q 801 509 775 578 q 826 365 826 440 q 801 222 826 290 q 724 101 775 153 q 599 17 674 49 q 426 -14 524 -14 m 297 365 q 333 250 297 292 q 426 208 369 208 q 519 250 483 208 q 556 365 556 292 q 519 481 556 439 q 426 522 483 522 q 333 481 369 522 q 297 365 297 439 m 175 854 l 332 1014 l 521 1014 l 678 854 l 544 796 l 426 883 l 308 796 l 175 854 z "},"ö":{"ha":853,"x_min":26,"x_max":826,"o":"m 426 -14 q 253 17 328 -14 q 128 101 179 49 q 52 222 78 153 q 26 365 26 290 q 52 509 26 440 q 128 630 78 578 q 253 713 179 682 q 426 744 328 744 q 599 713 524 744 q 724 630 674 682 q 801 509 775 578 q 826 365 826 440 q 801 222 826 290 q 724 101 775 153 q 599 17 674 49 q 426 -14 524 -14 m 297 365 q 333 250 297 292 q 426 208 369 208 q 519 250 483 208 q 556 365 556 292 q 519 481 556 439 q 426 522 483 522 q 333 481 369 522 q 297 365 297 439 m 158 807 l 158 1001 l 375 1001 l 375 807 l 158 807 m 478 807 l 478 1001 l 694 1001 l 694 807 l 478 807 z "},"œ":{"ha":1376,"x_min":26,"x_max":1357,"o":"m 424 -14 q 263 14 336 -14 q 138 92 190 42 q 56 213 85 143 q 26 365 26 282 q 56 518 26 449 q 137 638 85 588 q 262 717 189 689 q 421 744 335 744 q 569 716 504 744 q 690 625 633 688 q 819 717 756 689 q 963 744 882 744 q 1122 716 1049 744 q 1247 638 1194 688 q 1328 518 1299 588 q 1357 365 1357 449 q 1355 323 1357 344 q 1350 285 1353 301 l 838 285 q 878 202 840 235 q 969 169 915 169 q 1052 192 1014 169 q 1104 249 1090 214 l 1321 185 q 1177 39 1272 92 q 961 -14 1082 -14 q 892 -8 924 -14 q 828 10 860 -3 q 763 45 796 24 q 690 97 729 67 q 619 44 651 65 q 555 10 586 24 q 492 -8 524 -3 q 424 -14 460 -14 m 426 208 q 520 251 485 208 q 556 365 556 294 q 520 479 556 436 q 426 522 485 522 q 333 479 368 522 q 297 365 297 436 q 333 251 297 294 q 426 208 368 208 m 1079 443 q 1039 526 1072 496 q 954 557 1006 557 q 868 526 901 557 q 829 443 835 496 l 1079 443 z "},"ò":{"ha":853,"x_min":26,"x_max":826,"o":"m 426 -14 q 253 17 328 -14 q 128 101 179 49 q 52 222 78 153 q 26 365 26 290 q 52 509 26 440 q 128 630 78 578 q 253 713 179 682 q 426 744 328 744 q 599 713 524 744 q 724 630 674 682 q 801 509 775 578 q 826 365 826 440 q 801 222 826 290 q 724 101 775 153 q 599 17 674 49 q 426 -14 524 -14 m 297 365 q 333 250 297 292 q 426 208 369 208 q 519 250 483 208 q 556 365 556 292 q 519 481 556 439 q 426 522 483 522 q 333 481 369 522 q 297 365 297 439 m 208 1015 l 443 1015 l 513 818 l 346 774 l 208 1015 z "},"ő":{"ha":853,"x_min":26,"x_max":826,"o":"m 426 -14 q 253 17 328 -14 q 128 101 179 49 q 52 222 78 153 q 26 365 26 290 q 52 509 26 440 q 128 630 78 578 q 253 713 179 682 q 426 744 328 744 q 599 713 524 744 q 724 630 674 682 q 801 509 775 578 q 826 365 826 440 q 801 222 826 290 q 724 101 775 153 q 599 17 674 49 q 426 -14 524 -14 m 297 365 q 333 250 297 292 q 426 208 369 208 q 519 250 483 208 q 556 365 556 292 q 519 481 556 439 q 426 522 483 522 q 333 481 369 522 q 297 365 297 439 m 339 774 l 214 818 l 269 1015 l 463 1015 l 339 774 m 603 774 l 478 818 l 533 1015 l 726 1015 l 603 774 z "},"ō":{"ha":853,"x_min":26,"x_max":826,"o":"m 426 -14 q 253 17 328 -14 q 128 101 179 49 q 52 222 78 153 q 26 365 26 290 q 52 509 26 440 q 128 630 78 578 q 253 713 179 682 q 426 744 328 744 q 599 713 524 744 q 724 630 674 682 q 801 509 775 578 q 826 365 826 440 q 801 222 826 290 q 724 101 775 153 q 599 17 674 49 q 426 -14 524 -14 m 297 365 q 333 250 297 292 q 426 208 369 208 q 519 250 483 208 q 556 365 556 292 q 519 481 556 439 q 426 522 483 522 q 333 481 369 522 q 297 365 297 439 m 213 843 l 213 1000 l 643 1000 l 643 843 l 213 843 z "},"⅛":{"ha":1439,"x_min":57,"x_max":1393,"o":"m 246 90 l 639 533 l 988 1001 l 1103 897 l 726 468 l 361 -14 l 246 90 m 432 549 l 432 400 l 81 400 l 81 549 l 186 549 l 186 856 q 164 833 179 846 q 131 809 149 821 q 93 790 113 797 q 57 782 74 782 l 57 933 q 101 946 78 933 q 142 974 124 958 q 174 1001 161 989 q 186 1015 186 1014 l 339 1015 l 339 549 l 432 549 m 1393 185 q 1372 108 1393 143 q 1314 47 1350 72 q 1229 6 1278 21 q 1126 -8 1181 -8 q 1023 6 1072 -8 q 938 47 974 21 q 880 110 901 74 q 858 188 858 146 q 867 235 858 214 q 891 272 876 256 q 926 302 906 289 q 968 326 946 315 q 908 368 933 342 q 882 438 882 394 q 903 507 882 475 q 960 562 925 539 q 1038 598 994 585 q 1125 611 1082 611 q 1212 599 1168 611 q 1291 563 1256 586 q 1349 509 1326 540 q 1371 440 1371 478 q 1346 372 1371 400 q 1283 326 1321 343 q 1363 269 1332 303 q 1393 185 1393 236 m 1240 201 q 1205 243 1240 228 q 1125 258 1169 258 q 1044 242 1078 258 q 1011 201 1011 226 q 1047 159 1011 175 q 1126 143 1083 143 q 1206 160 1171 143 q 1240 201 1240 176 m 1032 424 q 1062 393 1032 404 q 1125 382 1092 382 q 1189 393 1158 382 q 1219 424 1219 404 q 1191 454 1219 443 q 1125 465 1163 465 q 1060 454 1088 465 q 1032 424 1032 443 z "},"¹":{"ha":446,"x_min":42,"x_max":417,"o":"m 417 674 l 417 525 l 65 525 l 65 674 l 171 674 l 171 981 q 149 958 164 971 q 115 934 133 946 q 78 915 97 922 q 42 907 58 907 l 42 1058 q 85 1071 63 1058 q 127 1099 108 1083 q 158 1126 146 1114 q 171 1140 171 1139 l 324 1140 l 324 674 l 417 674 z "},"½":{"ha":1435,"x_min":51,"x_max":1383,"o":"m 238 90 l 631 533 l 979 1001 l 1094 897 l 718 468 l 353 -14 l 238 90 m 426 549 l 426 400 l 75 400 l 75 549 l 181 549 l 181 856 q 158 833 174 846 q 125 809 143 821 q 88 790 107 797 q 51 782 68 782 l 51 933 q 95 946 72 933 q 137 974 118 958 q 168 1001 156 989 q 181 1015 181 1014 l 333 1015 l 333 549 l 426 549 m 846 0 q 854 103 846 60 q 883 181 863 147 q 940 242 904 215 q 1033 292 976 268 q 1098 319 1067 306 q 1154 347 1129 332 q 1194 378 1179 361 q 1210 418 1210 394 q 1183 460 1210 450 q 1110 471 1156 471 q 1014 452 1057 471 q 943 410 971 433 l 849 521 q 953 590 879 561 q 1133 618 1026 618 q 1317 567 1253 618 q 1382 417 1382 517 q 1365 336 1382 369 q 1322 279 1347 303 q 1265 242 1296 256 q 1208 221 1235 228 q 1128 192 1158 207 q 1097 149 1097 176 l 1383 149 l 1383 0 l 846 0 z "},"₂":{"ha":621,"x_min":36,"x_max":574,"o":"m 36 -125 q 44 -22 36 -65 q 74 56 53 22 q 131 117 94 90 q 224 167 167 143 q 288 194 257 181 q 344 222 319 207 q 385 253 369 236 q 400 293 400 269 q 373 335 400 325 q 300 346 346 346 q 204 327 247 346 q 133 285 161 308 l 39 396 q 143 465 69 436 q 324 493 217 493 q 508 442 443 493 q 572 292 572 392 q 555 211 572 244 q 512 154 538 178 q 456 117 486 131 q 399 96 425 103 q 318 67 349 82 q 288 24 288 51 l 574 24 l 574 -125 l 36 -125 z "},"₁":{"ha":514,"x_min":42,"x_max":492,"o":"m 492 24 l 492 -125 l 65 -125 l 65 24 l 208 24 l 208 331 q 181 308 200 321 q 137 284 161 296 q 88 265 113 272 q 42 257 63 257 l 42 408 q 98 421 68 408 q 152 449 128 433 q 192 476 176 464 q 208 490 208 489 l 361 490 l 361 24 l 492 24 z "},"¼":{"ha":1417,"x_min":56,"x_max":1369,"o":"m 297 90 l 690 533 l 1039 1001 l 1154 897 l 778 468 l 413 -14 l 297 90 m 431 549 l 431 400 l 79 400 l 79 549 l 185 549 l 185 856 q 163 833 178 846 q 129 809 147 821 q 92 790 111 797 q 56 782 72 782 l 56 933 q 99 946 76 933 q 141 974 122 958 q 172 1001 160 989 q 185 1015 185 1014 l 338 1015 l 338 549 l 431 549 m 1131 1 l 1131 117 l 832 117 l 832 265 l 1178 613 l 1281 613 l 1281 265 l 1369 265 l 1369 117 l 1281 117 l 1281 1 l 1131 1 m 972 265 l 1136 265 l 1136 433 l 972 265 z "},"⅓":{"ha":1446,"x_min":56,"x_max":1400,"o":"m 228 90 l 621 533 l 969 1001 l 1085 897 l 708 468 l 343 -14 l 228 90 m 431 549 l 431 400 l 79 400 l 79 549 l 185 549 l 185 856 q 163 833 178 846 q 129 809 147 821 q 92 790 111 797 q 56 782 72 782 l 56 933 q 99 946 76 933 q 141 974 122 958 q 172 1001 160 989 q 185 1015 185 1014 l 338 1015 l 338 549 l 431 549 m 1124 -8 q 975 15 1036 -8 q 886 90 914 39 l 965 207 q 1028 163 993 182 q 1121 144 1064 144 q 1208 155 1171 144 q 1246 193 1246 165 q 1192 238 1246 225 q 1040 250 1138 250 l 1006 250 l 1006 388 l 1039 388 q 1172 399 1119 388 q 1225 443 1225 411 q 1215 461 1225 454 q 1191 472 1206 468 q 1160 478 1176 476 q 1132 479 1144 479 q 1043 463 1078 479 q 979 418 1008 446 l 883 542 q 929 576 901 561 q 990 600 957 590 q 1058 615 1022 610 q 1131 619 1094 619 q 1232 607 1185 619 q 1313 572 1279 594 q 1367 518 1347 549 q 1386 453 1386 488 q 1349 370 1386 403 q 1250 328 1313 338 q 1360 273 1321 318 q 1400 169 1400 228 q 1376 87 1400 121 q 1313 32 1351 53 q 1224 1 1274 11 q 1124 -8 1175 -8 z "},"₃":{"ha":586,"x_min":29,"x_max":546,"o":"m 269 -133 q 121 -110 182 -133 q 32 -35 60 -86 l 111 82 q 174 38 138 57 q 267 19 211 19 q 354 30 317 19 q 392 68 392 40 q 338 113 392 100 q 186 125 283 125 l 151 125 l 151 263 l 185 263 q 318 274 265 263 q 371 318 371 286 q 361 336 371 329 q 337 347 351 343 q 306 353 322 351 q 278 354 290 354 q 189 338 224 354 q 125 293 154 321 l 29 417 q 75 451 47 436 q 135 475 103 465 q 204 490 168 485 q 276 494 240 494 q 378 482 331 494 q 459 447 425 469 q 513 393 493 424 q 532 328 532 363 q 495 245 532 278 q 396 203 458 213 q 506 148 467 193 q 546 44 546 103 q 522 -38 546 -4 q 458 -93 497 -72 q 370 -124 419 -114 q 269 -133 321 -133 z "},"ǫ":{"ha":853,"x_min":26,"x_max":826,"o":"m 496 -297 q 336 -246 388 -285 q 285 -158 285 -207 q 310 -84 285 -122 q 383 -11 335 -46 q 229 29 296 -4 q 117 113 163 63 q 49 229 72 164 q 26 365 26 294 q 52 509 26 440 q 128 630 78 578 q 253 713 179 682 q 426 744 328 744 q 599 713 524 744 q 724 630 674 682 q 801 509 775 578 q 826 365 826 440 q 808 244 826 303 q 755 137 790 185 q 667 53 719 89 q 544 0 614 17 q 447 -107 447 -56 q 471 -144 447 -131 q 544 -158 494 -158 l 496 -297 m 297 365 q 333 250 297 292 q 426 208 369 208 q 519 250 483 208 q 556 365 556 292 q 519 481 556 439 q 426 522 483 522 q 333 481 369 522 q 297 365 297 439 z "},"ª":{"ha":626,"x_min":46,"x_max":572,"o":"m 215 463 q 148 475 179 463 q 94 509 117 488 q 58 560 71 531 q 46 626 46 590 q 61 697 46 665 q 104 752 76 729 q 170 788 132 775 q 254 801 208 801 q 349 782 313 801 l 349 797 q 331 851 349 833 q 268 869 313 869 q 193 856 228 869 q 119 814 158 842 l 67 928 q 286 993 163 993 q 467 938 404 993 q 529 775 529 883 l 529 676 q 539 640 529 650 q 572 628 549 629 l 572 472 q 526 465 549 467 q 488 463 504 463 q 414 480 439 463 q 382 533 389 497 l 378 553 q 215 463 313 463 m 269 594 q 299 600 283 594 q 326 614 315 606 q 349 650 349 629 l 349 688 q 317 698 335 694 q 286 701 300 701 q 235 685 256 701 q 215 643 215 668 q 231 608 215 622 q 269 594 246 594 z "},"º":{"ha":608,"x_min":39,"x_max":569,"o":"m 304 463 q 190 484 239 463 q 107 542 140 506 q 56 627 74 579 q 39 728 39 675 q 56 828 39 781 q 107 913 74 876 q 190 972 140 950 q 304 993 239 993 q 419 972 369 993 q 503 913 469 950 q 553 828 536 876 q 569 728 569 781 q 553 627 569 675 q 503 542 536 579 q 419 484 469 506 q 304 463 369 463 m 224 728 q 246 647 224 676 q 304 618 268 618 q 363 647 340 618 q 385 728 385 676 q 363 808 385 779 q 304 838 340 838 q 246 808 268 838 q 224 728 224 779 z "},"ø":{"ha":853,"x_min":19,"x_max":826,"o":"m 19 -8 l 122 107 q 50 226 74 160 q 26 365 26 292 q 52 509 26 440 q 128 630 78 578 q 253 713 179 682 q 426 744 328 744 q 543 731 490 744 q 640 694 596 718 l 681 739 l 821 739 l 724 631 q 801 509 775 578 q 826 365 826 440 q 801 222 826 290 q 724 101 775 153 q 599 17 674 49 q 426 -14 524 -14 q 303 1 360 -14 q 203 42 247 15 l 158 -8 l 19 -8 m 426 208 q 519 250 483 208 q 556 365 556 292 q 544 435 556 404 l 360 226 q 426 208 388 208 m 297 365 q 299 334 297 349 q 304 306 301 319 l 485 508 q 426 522 454 522 q 333 481 369 522 q 297 365 297 439 z "},"ǿ":{"ha":853,"x_min":19,"x_max":826,"o":"m 507 772 l 340 817 l 410 1014 l 644 1014 l 507 772 m 19 -8 l 122 107 q 50 226 74 160 q 26 365 26 292 q 52 509 26 440 q 128 630 78 578 q 253 713 179 682 q 426 744 328 744 q 543 731 490 744 q 640 694 596 718 l 681 739 l 821 739 l 724 631 q 801 509 775 578 q 826 365 826 440 q 801 222 826 290 q 724 101 775 153 q 599 17 674 49 q 426 -14 524 -14 q 303 1 360 -14 q 203 42 247 15 l 158 -8 l 19 -8 m 426 208 q 519 250 483 208 q 556 365 556 292 q 544 435 556 404 l 360 226 q 426 208 388 208 m 297 365 q 299 334 297 349 q 304 306 301 319 l 485 508 q 426 522 454 522 q 333 481 369 522 q 297 365 297 439 z "},"õ":{"ha":853,"x_min":26,"x_max":826,"o":"m 426 -14 q 253 17 328 -14 q 128 101 179 49 q 52 222 78 153 q 26 365 26 290 q 52 509 26 440 q 128 630 78 578 q 253 713 179 682 q 426 744 328 744 q 599 713 524 744 q 724 630 674 682 q 801 509 775 578 q 826 365 826 440 q 801 222 826 290 q 724 101 775 153 q 599 17 674 49 q 426 -14 524 -14 m 297 365 q 333 250 297 292 q 426 208 369 208 q 519 250 483 208 q 556 365 556 292 q 519 481 556 439 q 426 522 483 522 q 333 481 369 522 q 297 365 297 439 m 515 794 q 459 805 483 794 q 414 828 435 815 q 373 851 393 840 q 329 861 353 861 q 293 851 306 861 q 274 829 281 842 q 267 806 268 817 q 265 794 265 796 l 125 794 q 135 849 125 813 q 169 922 146 886 q 229 986 193 958 q 318 1014 265 1014 q 376 1003 351 1014 q 422 978 401 992 q 463 954 443 965 q 506 943 482 943 q 542 953 528 943 q 563 977 556 964 q 573 1001 571 990 q 575 1014 575 1013 l 714 1014 q 703 966 714 1001 q 668 892 692 931 q 607 824 644 854 q 515 794 569 794 z "},"p":{"ha":899,"x_min":67,"x_max":869,"o":"m 558 -14 q 421 17 479 -14 q 331 108 363 49 l 331 -296 l 67 -296 l 67 731 l 296 731 l 296 621 q 392 713 335 681 q 532 744 449 744 q 667 716 604 744 q 774 638 729 688 q 844 518 818 588 q 869 368 869 449 q 846 216 869 286 q 781 94 822 146 q 682 15 739 43 q 558 -14 625 -14 m 467 208 q 520 221 496 208 q 562 256 544 233 q 590 307 579 278 q 600 369 600 336 q 560 481 600 439 q 456 522 521 522 q 331 447 382 522 l 331 321 q 388 240 350 272 q 467 208 425 208 z "},"¶":{"ha":979,"x_min":47,"x_max":913,"o":"m 47 618 q 149 891 47 796 q 439 986 251 986 l 913 986 l 913 792 l 815 792 l 815 -111 l 593 -111 l 593 261 l 550 261 l 550 -111 l 328 -111 l 328 261 q 214 288 265 261 q 125 360 163 314 q 67 473 88 407 q 47 618 47 539 m 265 625 q 283 508 265 556 q 328 456 300 461 l 328 792 q 283 740 300 786 q 265 625 265 693 m 593 792 l 550 792 l 550 456 l 593 456 l 593 792 z "},"(":{"ha":475,"x_min":35,"x_max":453,"o":"m 35 483 q 51 626 35 554 q 97 770 68 697 q 166 919 126 843 q 251 1072 206 994 l 453 992 q 408 910 436 965 q 351 785 379 856 q 301 634 322 714 q 281 479 281 554 q 328 249 281 365 q 446 1 376 132 l 254 -92 q 172 42 211 -28 q 101 185 132 113 q 53 333 71 258 q 35 483 35 408 z "},")":{"ha":474,"x_min":21,"x_max":439,"o":"m 439 483 q 421 333 439 408 q 372 185 403 258 q 302 42 342 113 q 219 -92 263 -28 l 28 1 q 145 249 97 132 q 193 479 193 365 q 172 634 193 554 q 123 785 151 714 q 66 910 94 856 q 21 992 38 965 l 222 1072 q 308 919 268 994 q 376 770 347 843 q 422 626 406 697 q 439 483 439 554 z "},"%":{"ha":1182,"x_min":46,"x_max":1136,"o":"m 293 561 q 195 578 240 561 q 117 625 150 596 q 65 694 83 654 q 46 781 46 735 q 65 867 46 826 q 117 936 83 907 q 195 983 150 965 q 293 1000 240 1000 q 390 983 344 1000 q 468 936 435 965 q 521 867 501 907 q 540 781 540 826 q 521 694 540 735 q 468 625 501 654 q 390 578 435 596 q 293 561 344 561 m 293 686 q 340 714 321 686 q 360 781 360 742 q 340 847 360 819 q 293 875 321 875 q 246 847 265 875 q 226 781 226 819 q 246 714 226 742 q 293 686 265 686 m 889 -14 q 791 3 836 -14 q 713 50 746 21 q 660 119 679 79 q 642 206 642 160 q 660 292 642 251 q 713 361 679 332 q 791 408 746 390 q 889 425 836 425 q 985 408 940 425 q 1064 361 1031 390 q 1117 292 1097 332 q 1136 206 1136 251 q 1117 119 1136 160 q 1064 50 1097 79 q 985 3 1031 21 q 889 -14 940 -14 m 889 111 q 936 139 917 111 q 956 206 956 167 q 936 272 956 244 q 889 300 917 300 q 842 272 861 300 q 822 206 822 244 q 842 139 822 167 q 889 111 861 111 m 163 90 l 556 533 l 904 1001 l 1019 897 l 643 468 l 278 -14 l 163 90 z "},".":{"ha":353,"x_min":69,"x_max":283,"o":"m 69 0 l 69 256 l 283 256 l 283 0 l 69 0 z "},"‰":{"ha":1747,"x_min":50,"x_max":1704,"o":"m 297 561 q 199 578 244 561 q 121 625 154 596 q 69 694 88 654 q 50 781 50 735 q 69 867 50 826 q 121 936 88 907 q 199 983 154 965 q 297 1000 244 1000 q 394 983 349 1000 q 472 936 439 965 q 525 867 506 907 q 544 781 544 826 q 525 694 544 735 q 472 625 506 654 q 394 578 439 596 q 297 561 349 561 m 297 686 q 344 714 325 686 q 364 781 364 742 q 344 847 364 819 q 297 875 325 875 q 250 847 269 875 q 231 781 231 819 q 250 714 231 742 q 297 686 269 686 m 893 -14 q 795 3 840 -14 q 717 50 750 21 q 665 119 683 79 q 646 206 646 160 q 665 292 646 251 q 717 361 683 332 q 795 408 750 390 q 893 425 840 425 q 990 408 944 425 q 1068 361 1035 390 q 1121 292 1101 332 q 1140 206 1140 251 q 1121 119 1140 160 q 1068 50 1101 79 q 990 3 1035 21 q 893 -14 944 -14 m 893 111 q 940 139 921 111 q 960 206 960 167 q 940 272 960 244 q 893 300 921 300 q 846 272 865 300 q 826 206 826 244 q 846 139 826 167 q 893 111 865 111 m 1457 -14 q 1359 3 1404 -14 q 1281 50 1314 21 q 1228 119 1247 79 q 1210 206 1210 160 q 1228 292 1210 251 q 1281 361 1247 332 q 1359 408 1314 390 q 1457 425 1404 425 q 1553 408 1508 425 q 1632 361 1599 390 q 1685 292 1665 332 q 1704 206 1704 251 q 1685 119 1704 160 q 1632 50 1665 79 q 1553 3 1599 21 q 1457 -14 1508 -14 m 1457 111 q 1504 139 1485 111 q 1524 206 1524 167 q 1504 272 1524 244 q 1457 300 1485 300 q 1410 272 1429 300 q 1390 206 1390 244 q 1410 139 1390 167 q 1457 111 1429 111 m 167 90 l 560 533 l 908 1001 l 1024 897 l 647 468 l 282 -14 l 167 90 z "},"+":{"ha":594,"x_min":61,"x_max":533,"o":"m 533 597 l 533 389 l 415 389 l 415 257 l 179 257 l 179 389 l 61 389 l 61 597 l 179 597 l 179 729 l 415 729 l 415 597 l 533 597 z "},"±":{"ha":667,"x_min":68,"x_max":597,"o":"m 68 1 l 68 210 l 596 210 l 596 1 l 68 1 m 597 642 l 597 433 l 451 433 l 451 274 l 215 274 l 215 433 l 69 433 l 69 642 l 215 642 l 215 801 l 451 801 l 451 642 l 597 642 z "},"q":{"ha":899,"x_min":29,"x_max":896,"o":"m 340 -14 q 217 15 274 -14 q 118 94 160 43 q 53 216 76 146 q 29 368 29 286 q 55 518 29 449 q 125 638 81 588 q 231 716 169 688 q 367 744 293 744 q 507 711 450 744 q 603 618 564 678 l 603 731 l 832 731 l 832 10 q 846 -42 832 -28 q 896 -60 860 -57 l 896 -282 q 821 -292 861 -289 q 750 -296 781 -296 q 680 -284 713 -296 q 622 -251 647 -272 q 583 -201 597 -231 q 568 -133 568 -171 l 568 108 q 478 17 536 49 q 340 -14 419 -14 m 443 208 q 568 283 515 208 l 568 414 q 511 492 549 463 q 432 522 474 522 q 378 510 403 522 q 337 475 354 497 q 309 424 319 453 q 299 361 299 394 q 338 250 299 292 q 443 208 378 208 z "},"?":{"ha":688,"x_min":47,"x_max":642,"o":"m 132 360 q 135 417 132 389 q 149 472 138 446 q 182 521 160 497 q 242 564 204 544 q 285 586 257 572 q 342 619 314 600 q 392 663 371 639 q 413 717 413 688 q 388 767 413 749 q 329 786 363 786 q 286 776 304 786 q 255 753 268 767 q 233 724 242 739 q 215 700 224 710 l 47 819 q 161 951 83 904 q 339 999 239 999 q 446 983 392 999 q 544 935 500 968 q 615 847 588 901 q 642 715 642 793 q 617 594 642 649 q 531 497 593 539 q 468 461 500 476 q 409 431 436 446 q 365 399 382 415 q 347 360 347 382 l 132 360 m 136 0 l 136 228 l 351 228 l 351 0 l 136 0 z "},"¿":{"ha":676,"x_min":39,"x_max":633,"o":"m 549 343 q 546 285 549 314 q 532 231 543 257 q 499 182 521 206 q 439 139 476 158 q 394 117 424 131 q 338 83 365 103 q 289 40 310 64 q 268 -14 268 15 q 293 -65 268 -46 q 351 -83 318 -83 q 394 -74 376 -83 q 426 -50 413 -64 q 448 -22 439 -36 q 465 3 457 -7 l 633 -117 q 519 -249 597 -201 q 342 -296 442 -296 q 235 -281 289 -296 q 137 -232 181 -265 q 66 -144 93 -199 q 39 -12 39 -90 q 63 109 39 54 q 150 206 88 164 q 213 242 181 226 q 272 272 244 257 q 316 303 299 288 q 333 343 333 319 l 549 343 m 544 703 l 544 475 l 329 475 l 329 703 l 544 703 z "},"\"":{"ha":661,"x_min":74,"x_max":588,"o":"m 74 689 l 74 1014 l 296 1014 l 296 689 l 74 689 m 365 689 l 365 1014 l 588 1014 l 588 689 l 365 689 z "},"„":{"ha":742,"x_min":69,"x_max":672,"o":"m 106 -210 l 142 0 l 69 0 l 69 256 l 343 256 l 343 -7 l 285 -210 l 106 -210 m 435 -210 l 471 0 l 399 0 l 399 256 l 672 256 l 672 -7 l 614 -210 l 435 -210 z "},"‚":{"ha":413,"x_min":69,"x_max":343,"o":"m 106 -210 l 142 0 l 69 0 l 69 256 l 343 256 l 343 -7 l 285 -210 l 106 -210 z "},"“":{"ha":753,"x_min":68,"x_max":688,"o":"m 306 1014 l 269 832 l 342 832 l 342 610 l 68 610 l 68 839 l 126 1014 l 306 1014 m 651 1014 l 615 832 l 688 832 l 688 610 l 414 610 l 414 839 l 472 1014 l 651 1014 z "},"‘":{"ha":407,"x_min":68,"x_max":342,"o":"m 306 1014 l 269 832 l 342 832 l 342 610 l 68 610 l 68 839 l 126 1014 l 306 1014 z "},"”":{"ha":738,"x_min":60,"x_max":679,"o":"m 96 629 l 132 811 l 60 811 l 60 1033 l 333 1033 l 333 804 l 275 629 l 96 629 m 442 629 l 478 811 l 406 811 l 406 1033 l 679 1033 l 679 804 l 621 629 l 442 629 z "},"’":{"ha":392,"x_min":60,"x_max":333,"o":"m 96 629 l 132 811 l 60 811 l 60 1033 l 333 1033 l 333 804 l 275 629 l 96 629 z "},"'":{"ha":369,"x_min":74,"x_max":296,"o":"m 74 689 l 74 1014 l 296 1014 l 296 689 l 74 689 z "},"r":{"ha":578,"x_min":67,"x_max":563,"o":"m 563 506 q 424 489 486 506 q 331 433 361 472 l 331 0 l 67 0 l 67 731 l 308 731 l 308 592 q 405 705 347 665 q 529 744 463 744 q 563 743 556 744 l 563 506 z "},"ŕ":{"ha":578,"x_min":67,"x_max":578,"o":"m 563 506 q 424 489 486 506 q 331 433 361 472 l 331 0 l 67 0 l 67 731 l 308 731 l 308 592 q 405 705 347 665 q 529 744 463 744 q 563 743 556 744 l 563 506 m 440 772 l 274 817 l 343 1014 l 578 1014 l 440 772 z "},"ř":{"ha":578,"x_min":67,"x_max":611,"o":"m 563 506 q 424 489 486 506 q 331 433 361 472 l 331 0 l 67 0 l 67 731 l 308 731 l 308 592 q 405 705 347 665 q 529 744 463 744 q 563 743 556 744 l 563 506 m 242 1014 l 360 926 l 478 1014 l 611 956 l 454 796 l 265 796 l 108 956 l 242 1014 z "},"ŗ":{"ha":578,"x_min":67,"x_max":563,"o":"m 563 506 q 424 489 486 506 q 331 433 361 472 l 331 0 l 67 0 l 67 731 l 308 731 l 308 592 q 405 705 347 665 q 529 744 463 744 q 563 743 556 744 l 563 506 m 104 -296 l 154 -211 l 75 -211 l 75 -64 l 293 -64 l 293 -211 l 218 -296 l 104 -296 z "},"®":{"ha":1176,"x_min":53,"x_max":1125,"o":"m 585 -10 q 372 28 469 -10 q 203 134 274 67 q 92 293 132 201 q 53 493 53 385 q 92 692 53 600 q 203 850 132 783 q 372 955 274 917 q 585 993 469 993 q 799 955 700 993 q 971 850 899 917 q 1084 692 1043 783 q 1125 493 1125 600 q 1084 293 1125 385 q 971 134 1043 201 q 799 28 899 67 q 585 -10 700 -10 m 586 78 q 758 109 678 78 q 897 195 838 140 q 989 325 956 250 q 1022 489 1022 400 q 990 652 1022 576 q 899 784 957 728 q 760 872 840 840 q 586 904 681 904 q 413 872 492 904 q 276 784 333 840 q 188 653 219 728 q 156 492 156 578 q 188 331 156 406 q 276 199 219 256 q 413 110 333 143 q 586 78 492 78 m 349 794 l 625 794 q 706 776 668 794 q 769 728 743 758 q 811 661 796 699 q 826 586 826 624 q 803 492 826 538 q 740 418 779 446 l 874 200 l 669 200 l 557 382 l 532 382 l 532 200 l 349 200 l 349 794 m 606 538 q 633 547 621 538 q 646 586 646 557 q 632 626 646 618 q 603 635 618 635 l 532 635 l 532 538 l 606 538 z "},"s":{"ha":696,"x_min":25,"x_max":672,"o":"m 368 -14 q 181 17 272 -14 q 25 108 89 49 l 115 267 q 247 196 183 221 q 363 171 310 171 q 418 206 418 171 q 397 239 418 225 q 313 271 375 253 q 183 315 235 293 q 98 361 131 336 q 51 417 65 386 q 38 489 38 447 q 60 592 38 544 q 122 674 82 639 q 216 727 161 708 q 336 746 271 746 q 490 725 417 746 q 636 640 563 704 l 536 482 q 422 545 468 526 q 336 564 376 564 q 297 555 313 564 q 282 526 282 546 q 304 492 282 506 q 392 463 326 479 q 525 419 471 442 q 612 369 579 396 q 658 308 644 342 q 672 229 672 274 q 651 128 672 172 q 591 51 631 83 q 495 3 551 19 q 368 -14 439 -14 z "},"ﬆ":{"ha":1264,"x_min":13,"x_max":1256,"o":"m 1256 40 q 1137 1 1200 17 q 1013 -15 1074 -15 q 928 -4 968 -15 q 858 32 888 7 q 810 97 828 57 q 793 197 793 138 l 793 532 l 703 532 l 703 731 l 793 731 q 776 863 792 822 q 704 904 760 904 q 623 873 651 904 q 594 797 594 842 q 608 731 594 765 q 649 667 622 696 l 553 499 q 433 549 482 535 q 346 564 385 564 q 297 554 314 564 q 279 525 279 544 q 306 490 279 501 q 396 463 333 479 q 531 418 478 440 q 617 370 585 396 q 661 312 649 344 q 674 236 674 279 q 594 51 674 115 q 375 -14 514 -14 q 281 -7 331 -14 q 183 11 232 0 q 90 38 135 22 q 13 74 46 54 l 108 253 q 246 192 181 213 q 367 171 311 171 q 433 206 433 171 q 406 240 433 228 q 308 271 378 251 q 187 312 236 292 q 107 356 138 332 q 63 411 76 381 q 49 485 49 442 q 72 592 49 544 q 133 674 94 640 q 223 727 172 708 q 328 746 274 746 q 365 744 342 746 q 413 738 388 743 q 465 724 439 733 q 515 701 492 715 q 494 750 500 725 q 489 806 489 775 q 506 887 489 849 q 556 953 522 925 q 644 998 590 982 q 774 1014 699 1014 q 926 995 869 1014 q 1011 940 982 976 q 1049 850 1040 903 q 1057 731 1057 797 l 1200 731 l 1200 532 l 1057 532 l 1057 290 q 1072 240 1057 254 q 1114 225 1088 225 q 1158 231 1133 225 q 1208 249 1183 238 l 1256 40 z "},"ś":{"ha":696,"x_min":25,"x_max":672,"o":"m 368 -14 q 181 17 272 -14 q 25 108 89 49 l 115 267 q 247 196 183 221 q 363 171 310 171 q 418 206 418 171 q 397 239 418 225 q 313 271 375 253 q 183 315 235 293 q 98 361 131 336 q 51 417 65 386 q 38 489 38 447 q 60 592 38 544 q 122 674 82 639 q 216 727 161 708 q 336 746 271 746 q 490 725 417 746 q 636 640 563 704 l 536 482 q 422 545 468 526 q 336 564 376 564 q 297 555 313 564 q 282 526 282 546 q 304 492 282 506 q 392 463 326 479 q 525 419 471 442 q 612 369 579 396 q 658 308 644 342 q 672 229 672 274 q 651 128 672 172 q 591 51 631 83 q 495 3 551 19 q 368 -14 439 -14 m 417 772 l 250 817 l 319 1014 l 554 1014 l 417 772 z "},"š":{"ha":696,"x_min":25,"x_max":672,"o":"m 368 -14 q 181 17 272 -14 q 25 108 89 49 l 115 267 q 247 196 183 221 q 363 171 310 171 q 418 206 418 171 q 397 239 418 225 q 313 271 375 253 q 183 315 235 293 q 98 361 131 336 q 51 417 65 386 q 38 489 38 447 q 60 592 38 544 q 122 674 82 639 q 216 727 161 708 q 336 746 271 746 q 490 725 417 746 q 636 640 563 704 l 536 482 q 422 545 468 526 q 336 564 376 564 q 297 555 313 564 q 282 526 282 546 q 304 492 282 506 q 392 463 326 479 q 525 419 471 442 q 612 369 579 396 q 658 308 644 342 q 672 229 672 274 q 651 128 672 172 q 591 51 631 83 q 495 3 551 19 q 368 -14 439 -14 m 218 1014 l 336 926 l 454 1014 l 588 956 l 431 796 l 242 796 l 85 956 l 218 1014 z "},"ə":{"ha":846,"x_min":19,"x_max":819,"o":"m 419 -14 q 247 17 321 -14 q 122 101 172 49 q 45 222 71 153 q 19 365 19 290 q 22 408 19 386 q 26 446 24 429 l 539 446 q 496 530 535 504 q 411 556 457 556 q 330 536 368 556 q 279 482 292 517 l 56 546 q 192 689 100 633 q 419 744 285 744 q 590 715 515 744 q 716 633 665 685 q 793 515 767 582 q 819 375 819 449 q 794 225 819 296 q 717 101 768 154 q 592 17 667 49 q 419 -14 517 -14 m 424 174 q 506 204 474 174 q 544 288 538 235 l 303 288 q 342 204 310 235 q 424 174 374 174 z "},"ŝ":{"ha":696,"x_min":25,"x_max":672,"o":"m 368 -14 q 181 17 272 -14 q 25 108 89 49 l 115 267 q 247 196 183 221 q 363 171 310 171 q 418 206 418 171 q 397 239 418 225 q 313 271 375 253 q 183 315 235 293 q 98 361 131 336 q 51 417 65 386 q 38 489 38 447 q 60 592 38 544 q 122 674 82 639 q 216 727 161 708 q 336 746 271 746 q 490 725 417 746 q 636 640 563 704 l 536 482 q 422 545 468 526 q 336 564 376 564 q 297 555 313 564 q 282 526 282 546 q 304 492 282 506 q 392 463 326 479 q 525 419 471 442 q 612 369 579 396 q 658 308 644 342 q 672 229 672 274 q 651 128 672 172 q 591 51 631 83 q 495 3 551 19 q 368 -14 439 -14 m 85 854 l 242 1014 l 431 1014 l 588 854 l 454 796 l 336 883 l 218 796 l 85 854 z "},"§":{"ha":765,"x_min":53,"x_max":713,"o":"m 678 322 q 701 269 690 303 q 713 183 713 236 q 679 39 713 97 q 596 -56 646 -19 q 488 -107 546 -92 q 379 -122 429 -122 q 267 -104 319 -122 q 174 -60 215 -86 q 103 -8 132 -35 q 60 38 74 19 l 228 199 q 299 143 264 158 q 367 128 333 128 q 417 139 397 128 q 438 174 438 150 q 419 202 438 197 q 382 208 401 207 q 248 237 304 214 q 154 295 192 260 q 99 376 117 331 q 81 474 81 421 q 88 535 81 515 q 97 564 96 554 q 69 617 86 579 q 53 708 53 656 q 76 813 53 763 q 140 904 99 864 q 238 969 181 944 q 365 993 296 993 q 485 971 432 993 q 577 917 538 949 q 645 850 617 885 q 692 789 674 815 l 490 694 q 450 740 475 719 q 382 760 425 760 q 333 746 346 760 q 319 713 319 732 q 338 679 319 685 q 379 672 356 674 q 488 657 432 669 q 590 616 544 644 q 666 541 636 588 q 696 425 696 494 q 688 358 696 385 q 678 322 681 331 m 336 436 q 347 408 336 417 q 374 394 358 399 q 406 390 389 390 q 433 385 422 389 q 443 399 440 390 q 446 417 446 408 q 426 453 446 443 q 390 463 407 463 q 376 463 383 463 q 363 465 369 464 q 349 468 356 467 q 336 436 336 458 z "},";":{"ha":424,"x_min":103,"x_max":321,"o":"m 106 465 l 106 721 l 319 721 l 319 465 l 106 465 m 132 -218 l 182 0 l 103 0 l 103 256 l 321 256 l 321 0 l 246 -218 l 132 -218 z "},"⅞":{"ha":1379,"x_min":56,"x_max":1333,"o":"m 161 90 l 554 533 l 903 1001 l 1018 897 l 642 468 l 276 -14 l 161 90 m 1333 185 q 1312 108 1333 143 q 1254 47 1290 72 q 1169 6 1218 21 q 1067 -8 1121 -8 q 963 6 1013 -8 q 878 47 914 21 q 820 110 842 74 q 799 188 799 146 q 808 235 799 214 q 831 272 817 256 q 866 302 846 289 q 908 326 886 315 q 848 368 874 342 q 822 438 822 394 q 844 507 822 475 q 900 562 865 539 q 978 598 935 585 q 1065 611 1022 611 q 1152 599 1108 611 q 1231 563 1196 586 q 1289 509 1267 540 q 1311 440 1311 478 q 1286 372 1311 400 q 1224 326 1261 343 q 1303 269 1272 303 q 1333 185 1333 236 m 1181 201 q 1145 243 1181 228 q 1065 258 1110 258 q 985 242 1018 258 q 951 201 951 226 q 988 159 951 175 q 1067 143 1024 143 q 1146 160 1111 143 q 1181 201 1181 176 m 972 424 q 1002 393 972 404 q 1065 382 1032 382 q 1129 393 1099 382 q 1160 424 1160 404 q 1131 454 1160 443 q 1065 465 1103 465 q 1000 454 1028 465 q 972 424 972 443 m 375 864 l 56 864 l 56 1015 l 611 1015 l 251 404 l 81 404 l 375 864 z "},"⁷":{"ha":579,"x_min":32,"x_max":588,"o":"m 351 989 l 32 989 l 32 1140 l 588 1140 l 228 529 l 57 529 l 351 989 z "},"₇":{"ha":581,"x_min":32,"x_max":588,"o":"m 351 336 l 32 336 l 32 488 l 588 488 l 228 -124 l 57 -124 l 351 336 z "},"₆":{"ha":613,"x_min":40,"x_max":578,"o":"m 578 81 q 558 -3 578 36 q 501 -71 538 -42 q 416 -117 465 -100 q 308 -133 367 -133 q 111 -55 182 -133 q 40 169 40 24 q 117 406 40 319 q 329 492 194 492 q 452 471 394 492 q 551 410 510 450 l 465 303 q 403 336 442 325 q 322 347 365 347 q 220 324 258 347 q 179 256 182 300 q 242 276 203 271 q 315 282 282 282 q 422 267 374 282 q 506 224 471 251 q 559 160 540 197 q 578 81 578 124 m 311 6 q 398 28 361 6 q 435 81 435 50 q 399 131 435 111 q 311 151 363 151 q 222 131 258 151 q 186 81 186 111 q 224 28 186 50 q 311 6 261 6 z "},"⁶":{"ha":613,"x_min":40,"x_max":578,"o":"m 578 728 q 558 644 578 683 q 501 576 538 606 q 416 531 465 547 q 308 514 367 514 q 111 592 182 514 q 40 817 40 671 q 117 1053 40 967 q 329 1139 194 1139 q 452 1118 394 1139 q 551 1057 510 1097 l 465 950 q 403 983 442 972 q 322 994 365 994 q 220 971 258 994 q 179 903 182 947 q 242 924 203 918 q 315 929 282 929 q 422 914 374 929 q 506 872 471 899 q 559 808 540 844 q 578 728 578 771 m 311 653 q 398 675 361 653 q 435 728 435 697 q 399 778 435 758 q 311 799 363 799 q 222 778 258 799 q 186 728 186 758 q 224 675 186 697 q 311 653 261 653 z "}," ":{"ha":313,"x_min":0,"x_max":0,"o":""},"£":{"ha":814,"x_min":68,"x_max":765,"o":"m 85 539 l 161 539 q 122 636 142 588 q 103 738 103 685 q 127 838 103 792 q 194 919 151 885 q 294 973 238 953 q 418 993 351 993 q 594 955 510 993 q 738 847 678 917 l 604 685 q 563 723 586 706 q 515 753 540 740 q 465 773 490 765 q 417 781 439 781 q 358 761 379 781 q 336 708 336 742 q 356 631 336 672 q 396 539 376 589 l 658 539 l 658 344 l 411 344 q 381 273 401 307 q 325 203 360 239 q 384 219 358 214 q 433 224 410 224 q 524 213 478 224 q 614 203 569 203 q 657 207 638 203 q 701 221 676 211 l 765 26 q 688 -8 733 6 q 600 -21 642 -21 q 533 -14 568 -21 q 463 2 499 -7 q 392 18 428 11 q 321 25 356 25 q 227 15 281 25 q 121 -12 174 4 l 68 174 q 143 245 111 199 q 188 344 175 292 l 85 344 l 85 539 z "},"t":{"ha":588,"x_min":26,"x_max":579,"o":"m 579 40 q 460 1 524 17 q 336 -15 397 -15 q 251 -4 292 -15 q 181 32 211 7 q 134 97 151 57 q 117 197 117 138 l 117 532 l 26 532 l 26 731 l 117 731 l 117 960 l 381 960 l 381 731 l 524 731 l 524 532 l 381 532 l 381 290 q 396 240 381 254 q 438 225 411 225 q 482 231 457 225 q 532 249 507 238 l 579 40 z "},"ŧ":{"ha":589,"x_min":28,"x_max":581,"o":"m 581 40 q 462 1 525 17 q 338 -15 399 -15 q 253 -4 293 -15 q 183 32 213 7 q 135 97 153 57 q 118 197 118 138 l 118 315 l 28 315 l 28 467 l 118 467 l 118 532 l 28 532 l 28 731 l 118 731 l 118 960 l 382 960 l 382 731 l 525 731 l 525 532 l 382 532 l 382 467 l 525 467 l 525 315 l 382 315 l 382 290 q 397 240 382 254 q 439 225 413 225 q 483 231 458 225 q 533 249 508 238 l 581 40 z "},"ť":{"ha":588,"x_min":26,"x_max":726,"o":"m 579 40 q 460 1 524 17 q 336 -15 397 -15 q 251 -4 292 -15 q 181 32 211 7 q 134 97 151 57 q 117 197 117 138 l 117 532 l 26 532 l 26 731 l 117 731 l 117 960 l 381 960 l 381 731 l 524 731 l 524 532 l 381 532 l 381 290 q 396 240 381 254 q 438 225 411 225 q 482 231 457 225 q 532 249 507 238 l 579 40 m 589 772 l 422 817 l 492 1014 l 726 1014 l 589 772 z "},"þ":{"ha":832,"x_min":67,"x_max":807,"o":"m 807 354 q 776 203 807 275 q 695 76 746 131 q 576 -11 644 21 q 433 -43 508 -43 q 374 -36 401 -43 q 338 -18 347 -29 l 338 -296 l 67 -296 l 67 986 l 338 986 l 338 729 q 380 749 353 742 q 443 756 407 756 q 583 724 517 756 q 699 637 649 692 q 778 509 749 582 q 807 354 807 436 m 536 360 q 506 476 536 433 q 426 519 476 519 q 378 505 399 519 q 338 454 357 490 l 338 249 q 345 229 338 239 q 365 211 353 219 q 393 198 378 203 q 424 193 408 193 q 505 239 474 193 q 536 360 536 285 z "},"⅜":{"ha":1457,"x_min":50,"x_max":1411,"o":"m 301 90 l 694 533 l 1043 1001 l 1158 897 l 782 468 l 417 -14 l 301 90 m 1411 185 q 1390 108 1411 143 q 1332 47 1368 72 q 1247 6 1296 21 q 1144 -8 1199 -8 q 1041 6 1090 -8 q 956 47 992 21 q 898 110 919 74 q 876 188 876 146 q 885 235 876 214 q 909 272 894 256 q 944 302 924 289 q 986 326 964 315 q 926 368 951 342 q 900 438 900 394 q 922 507 900 475 q 978 562 943 539 q 1056 598 1013 585 q 1143 611 1100 611 q 1230 599 1186 611 q 1309 563 1274 586 q 1367 509 1344 540 q 1389 440 1389 478 q 1364 372 1389 400 q 1301 326 1339 343 q 1381 269 1350 303 q 1411 185 1411 236 m 1258 201 q 1223 243 1258 228 q 1143 258 1188 258 q 1063 242 1096 258 q 1029 201 1029 226 q 1065 159 1029 175 q 1144 143 1101 143 q 1224 160 1189 143 q 1258 201 1258 176 m 1050 424 q 1080 393 1050 404 q 1143 382 1110 382 q 1207 393 1176 382 q 1238 424 1238 404 q 1209 454 1238 443 q 1143 465 1181 465 q 1078 454 1106 465 q 1050 424 1050 443 m 290 388 q 142 411 203 388 q 53 486 81 435 l 132 603 q 195 559 160 578 q 288 540 231 540 q 375 551 338 540 q 413 589 413 561 q 358 633 413 621 q 207 646 304 646 l 172 646 l 172 783 l 206 783 q 339 795 286 783 q 392 839 392 807 q 382 857 392 850 q 358 868 372 864 q 327 874 343 872 q 299 875 311 875 q 210 858 244 875 q 146 814 175 842 l 50 938 q 96 972 68 957 q 156 996 124 986 q 225 1010 189 1006 q 297 1015 261 1015 q 399 1003 351 1015 q 480 967 446 990 q 533 914 514 944 q 553 849 553 883 q 516 766 553 799 q 417 724 479 733 q 527 669 488 714 q 567 565 567 624 q 542 483 567 517 q 479 428 518 449 q 391 397 440 407 q 290 388 342 388 z "},"³":{"ha":586,"x_min":29,"x_max":546,"o":"m 269 513 q 121 536 182 513 q 32 611 60 560 l 111 728 q 133 708 119 719 q 165 688 146 697 q 208 672 183 679 q 267 665 233 665 q 354 676 317 665 q 392 714 392 686 q 338 758 392 746 q 186 771 283 771 l 151 771 l 151 908 l 185 908 q 318 920 265 908 q 371 964 371 932 q 361 982 371 975 q 337 993 351 989 q 306 999 322 997 q 278 1000 290 1000 q 189 983 224 1000 q 125 939 154 967 l 29 1063 q 75 1097 47 1082 q 135 1121 103 1111 q 204 1135 168 1131 q 276 1140 240 1140 q 378 1128 331 1140 q 459 1092 425 1115 q 513 1039 493 1069 q 532 974 532 1008 q 495 891 532 924 q 396 849 458 858 q 506 794 467 839 q 546 690 546 749 q 522 608 546 642 q 458 553 497 574 q 370 522 419 532 q 269 513 321 513 z "},"¾":{"ha":1426,"x_min":49,"x_max":1379,"o":"m 338 90 l 731 533 l 1079 1001 l 1194 897 l 818 468 l 453 -14 l 338 90 m 1140 1 l 1140 117 l 842 117 l 842 265 l 1188 613 l 1290 613 l 1290 265 l 1379 265 l 1379 117 l 1290 117 l 1290 1 l 1140 1 m 982 265 l 1146 265 l 1146 433 l 982 265 m 289 388 q 140 411 201 388 q 51 486 79 435 l 131 603 q 194 559 158 578 q 286 540 229 540 q 374 551 336 540 q 411 589 411 561 q 357 633 411 621 q 206 646 303 646 l 171 646 l 171 783 l 204 783 q 338 795 285 783 q 390 839 390 807 q 381 857 390 850 q 356 868 371 864 q 326 874 342 872 q 297 875 310 875 q 208 858 243 875 q 144 814 174 842 l 49 938 q 94 972 67 957 q 155 996 122 986 q 224 1010 188 1006 q 296 1015 260 1015 q 397 1003 350 1015 q 478 967 444 990 q 532 914 513 944 q 551 849 551 883 q 515 766 551 799 q 415 724 478 733 q 526 669 486 714 q 565 565 565 624 q 541 483 565 517 q 478 428 517 449 q 390 397 439 407 q 289 388 340 388 z "},"™":{"ha":1267,"x_min":83,"x_max":1179,"o":"m 514 822 l 382 822 l 382 557 l 215 557 l 215 822 l 83 822 l 83 989 l 514 989 l 514 822 m 926 986 l 1179 986 l 1179 557 l 1013 557 l 1013 781 l 946 615 l 811 615 l 744 781 l 744 557 l 578 557 l 578 986 l 829 986 l 878 804 l 926 986 z "},"²":{"ha":613,"x_min":36,"x_max":572,"o":"m 36 522 q 44 626 36 582 q 74 703 53 669 q 131 764 94 738 q 222 814 167 790 q 288 841 256 828 q 344 869 319 854 q 385 900 369 883 q 400 940 400 917 q 373 983 400 972 q 300 993 346 993 q 204 974 247 993 q 133 932 161 956 l 39 1043 q 143 1112 69 1083 q 322 1140 217 1140 q 508 1090 443 1140 q 572 939 572 1039 q 555 858 572 892 q 512 801 538 825 q 456 764 486 778 q 399 743 425 750 q 318 714 349 729 q 288 671 288 699 l 547 671 l 547 522 l 36 522 z "},"⅔":{"ha":1511,"x_min":56,"x_max":1464,"o":"m 347 90 l 740 533 l 1089 1001 l 1204 897 l 828 468 l 463 -14 l 347 90 m 1188 -8 q 1039 15 1100 -8 q 950 90 978 39 l 1029 207 q 1092 163 1057 182 q 1185 144 1128 144 q 1272 155 1235 144 q 1310 193 1310 165 q 1256 238 1310 225 q 1104 250 1201 250 l 1069 250 l 1069 388 l 1103 388 q 1236 399 1183 388 q 1289 443 1289 411 q 1279 461 1289 454 q 1255 472 1269 468 q 1224 478 1240 476 q 1196 479 1208 479 q 1107 463 1142 479 q 1043 418 1072 446 l 947 542 q 993 576 965 561 q 1053 600 1021 590 q 1122 615 1086 610 q 1194 619 1158 619 q 1296 607 1249 619 q 1377 572 1343 594 q 1431 518 1411 549 q 1450 453 1450 488 q 1413 370 1450 403 q 1314 328 1376 338 q 1424 273 1385 318 q 1464 169 1464 228 q 1440 87 1464 121 q 1376 32 1415 53 q 1288 1 1338 11 q 1188 -8 1239 -8 m 56 397 q 64 501 56 457 q 93 578 72 544 q 150 639 114 613 q 242 689 186 665 q 307 716 275 703 q 364 744 339 729 q 404 775 389 758 q 419 815 419 792 q 392 858 419 847 q 319 868 365 868 q 224 849 267 868 q 153 807 181 831 l 58 918 q 163 987 89 958 q 342 1015 236 1015 q 527 965 463 1015 q 592 814 592 914 q 574 733 592 767 q 531 676 557 700 q 475 639 506 653 q 418 618 444 625 q 338 589 368 604 q 307 546 307 574 l 567 546 l 567 397 l 56 397 z "},"u":{"ha":886,"x_min":60,"x_max":844,"o":"m 288 -14 q 118 53 176 -14 q 60 250 60 121 l 60 731 l 324 731 l 324 310 q 345 235 324 261 q 404 208 367 208 q 467 222 435 208 q 531 283 499 236 l 531 731 l 794 731 l 794 292 q 806 240 794 254 q 844 222 817 225 l 844 0 q 733 -14 776 -14 q 578 88 599 -14 l 572 114 q 450 16 521 46 q 288 -14 379 -14 z "},"ú":{"ha":886,"x_min":60,"x_max":844,"o":"m 288 -14 q 118 53 176 -14 q 60 250 60 121 l 60 731 l 324 731 l 324 310 q 345 235 324 261 q 404 208 367 208 q 467 222 435 208 q 531 283 499 236 l 531 731 l 794 731 l 794 292 q 806 240 794 254 q 844 222 817 225 l 844 0 q 733 -14 776 -14 q 578 88 599 -14 l 572 114 q 450 16 521 46 q 288 -14 379 -14 m 508 772 l 342 817 l 411 1014 l 646 1014 l 508 772 z "},"ŭ":{"ha":886,"x_min":60,"x_max":844,"o":"m 288 -14 q 118 53 176 -14 q 60 250 60 121 l 60 731 l 324 731 l 324 310 q 345 235 324 261 q 404 208 367 208 q 467 222 435 208 q 531 283 499 236 l 531 731 l 794 731 l 794 292 q 806 240 794 254 q 844 222 817 225 l 844 0 q 733 -14 776 -14 q 578 88 599 -14 l 572 114 q 450 16 521 46 q 288 -14 379 -14 m 428 901 q 484 933 460 901 q 513 1014 508 965 l 649 1014 q 633 923 649 964 q 588 852 617 882 q 517 806 558 822 q 428 789 476 789 q 338 806 379 789 q 268 852 297 822 q 223 923 239 882 q 207 1014 207 964 l 343 1014 q 368 935 343 968 q 428 901 393 901 z "},"û":{"ha":886,"x_min":60,"x_max":844,"o":"m 288 -14 q 118 53 176 -14 q 60 250 60 121 l 60 731 l 324 731 l 324 310 q 345 235 324 261 q 404 208 367 208 q 467 222 435 208 q 531 283 499 236 l 531 731 l 794 731 l 794 292 q 806 240 794 254 q 844 222 817 225 l 844 0 q 733 -14 776 -14 q 578 88 599 -14 l 572 114 q 450 16 521 46 q 288 -14 379 -14 m 176 854 l 333 1014 l 522 1014 l 679 854 l 546 796 l 428 883 l 310 796 l 176 854 z "},"ü":{"ha":886,"x_min":60,"x_max":844,"o":"m 288 -14 q 118 53 176 -14 q 60 250 60 121 l 60 731 l 324 731 l 324 310 q 345 235 324 261 q 404 208 367 208 q 467 222 435 208 q 531 283 499 236 l 531 731 l 794 731 l 794 292 q 806 240 794 254 q 844 222 817 225 l 844 0 q 733 -14 776 -14 q 578 88 599 -14 l 572 114 q 450 16 521 46 q 288 -14 379 -14 m 160 807 l 160 1001 l 376 1001 l 376 807 l 160 807 m 479 807 l 479 1001 l 696 1001 l 696 807 l 479 807 z "},"ù":{"ha":886,"x_min":60,"x_max":844,"o":"m 288 -14 q 118 53 176 -14 q 60 250 60 121 l 60 731 l 324 731 l 324 310 q 345 235 324 261 q 404 208 367 208 q 467 222 435 208 q 531 283 499 236 l 531 731 l 794 731 l 794 292 q 806 240 794 254 q 844 222 817 225 l 844 0 q 733 -14 776 -14 q 578 88 599 -14 l 572 114 q 450 16 521 46 q 288 -14 379 -14 m 210 1015 l 444 1015 l 514 818 l 347 774 l 210 1015 z "},"ű":{"ha":886,"x_min":60,"x_max":844,"o":"m 288 -14 q 118 53 176 -14 q 60 250 60 121 l 60 731 l 324 731 l 324 310 q 345 235 324 261 q 404 208 367 208 q 467 222 435 208 q 531 283 499 236 l 531 731 l 794 731 l 794 292 q 806 240 794 254 q 844 222 817 225 l 844 0 q 733 -14 776 -14 q 578 88 599 -14 l 572 114 q 450 16 521 46 q 288 -14 379 -14 m 340 774 l 215 818 l 271 1015 l 464 1015 l 340 774 m 604 774 l 479 818 l 535 1015 l 728 1015 l 604 774 z "},"ū":{"ha":886,"x_min":60,"x_max":844,"o":"m 288 -14 q 118 53 176 -14 q 60 250 60 121 l 60 731 l 324 731 l 324 310 q 345 235 324 261 q 404 208 367 208 q 467 222 435 208 q 531 283 499 236 l 531 731 l 794 731 l 794 292 q 806 240 794 254 q 844 222 817 225 l 844 0 q 733 -14 776 -14 q 578 88 599 -14 l 572 114 q 450 16 521 46 q 288 -14 379 -14 m 214 843 l 214 1000 l 644 1000 l 644 843 l 214 843 z "},"_":{"ha":613,"x_min":61,"x_max":551,"o":"m 61 -236 l 61 0 l 551 0 l 551 -236 l 61 -236 z "}," ":{"ha":313,"x_min":0,"x_max":0,"o":""},"­":{"ha":874,"x_min":69,"x_max":804,"o":"m 69 265 l 69 501 l 804 501 l 804 265 l 69 265 z "},"Ş":{"ha":857,"x_min":18,"x_max":822,"o":"m 324 -178 q 375 -197 339 -187 q 449 -206 411 -206 q 503 -196 481 -206 q 526 -162 526 -186 q 506 -130 526 -139 q 450 -121 485 -121 q 388 -126 421 -121 q 340 -133 356 -131 l 399 -11 q 199 26 300 -4 q 18 103 97 56 l 135 340 q 236 286 183 310 q 337 249 281 265 q 451 232 393 232 q 513 244 496 232 q 531 275 531 256 q 513 310 531 296 q 465 336 496 325 q 395 358 435 347 q 311 385 356 369 q 199 433 246 407 q 121 491 151 458 q 76 565 90 524 q 61 661 61 607 q 91 806 61 743 q 172 910 121 868 q 290 973 224 951 q 429 994 356 994 q 535 984 483 994 q 634 958 586 974 q 724 923 682 942 q 799 888 765 904 l 682 664 q 596 708 640 689 q 512 740 558 725 q 421 754 465 754 q 363 743 385 754 q 342 706 342 732 q 354 674 342 686 q 390 651 367 661 q 448 631 414 640 q 525 607 482 621 q 648 561 593 586 q 742 502 703 536 q 801 419 781 468 q 822 301 822 371 q 795 164 822 221 q 723 70 768 107 q 620 14 678 33 q 500 -10 563 -6 l 475 -47 q 492 -45 483 -46 q 513 -44 501 -44 q 561 -51 538 -44 q 603 -69 585 -57 q 632 -103 621 -82 q 643 -153 643 -124 q 592 -253 643 -211 q 432 -296 542 -296 q 342 -287 382 -296 q 275 -267 303 -278 l 324 -178 z "},"ş":{"ha":696,"x_min":25,"x_max":672,"o":"m 222 -178 q 274 -197 238 -187 q 347 -206 310 -206 q 402 -196 379 -206 q 425 -162 425 -186 q 404 -130 425 -139 q 349 -121 383 -121 q 287 -126 319 -121 q 239 -133 254 -131 l 299 -10 q 149 30 219 0 q 25 108 78 60 l 115 267 q 247 196 183 221 q 363 171 310 171 q 418 206 418 171 q 397 239 418 225 q 313 271 375 253 q 183 315 235 293 q 98 361 131 336 q 51 417 65 386 q 38 489 38 447 q 60 592 38 544 q 122 674 82 639 q 216 727 161 708 q 336 746 271 746 q 490 725 417 746 q 636 640 563 704 l 536 482 q 422 545 468 526 q 336 564 376 564 q 297 555 313 564 q 282 526 282 546 q 304 492 282 506 q 392 463 326 479 q 525 419 471 442 q 612 369 579 396 q 658 308 644 342 q 672 229 672 274 q 599 58 672 122 q 397 -12 526 -6 l 374 -47 q 391 -45 382 -46 q 411 -44 400 -44 q 460 -51 436 -44 q 501 -69 483 -57 q 531 -103 519 -82 q 542 -153 542 -124 q 491 -253 542 -211 q 331 -296 440 -296 q 241 -287 281 -296 q 174 -267 201 -278 l 222 -178 z "},"Ţ":{"ha":867,"x_min":14,"x_max":853,"o":"m 304 -178 q 356 -197 319 -187 q 429 -206 392 -206 q 484 -196 461 -206 q 507 -162 507 -186 q 486 -130 507 -139 q 431 -121 465 -121 q 369 -126 401 -121 q 321 -133 336 -131 l 385 0 l 299 0 l 299 750 l 14 750 l 14 986 l 853 986 l 853 750 l 569 750 l 569 0 l 489 0 l 456 -47 q 473 -45 464 -46 q 493 -44 482 -44 q 542 -51 518 -44 q 583 -69 565 -57 q 613 -103 601 -82 q 624 -153 624 -124 q 573 -253 624 -211 q 413 -296 522 -296 q 323 -287 363 -296 q 256 -267 283 -278 l 304 -178 z "},"ţ":{"ha":588,"x_min":26,"x_max":579,"o":"m 222 -178 q 274 -197 238 -187 q 347 -206 310 -206 q 402 -196 379 -206 q 425 -162 425 -186 q 404 -130 425 -139 q 349 -121 383 -121 q 287 -126 319 -121 q 239 -133 254 -131 l 297 -12 q 226 5 260 -8 q 169 43 193 18 q 131 106 144 68 q 117 197 117 144 l 117 532 l 26 532 l 26 731 l 117 731 l 117 960 l 381 960 l 381 731 l 524 731 l 524 532 l 381 532 l 381 290 q 396 240 381 254 q 438 225 411 225 q 482 231 457 225 q 532 249 507 238 l 579 40 q 492 9 538 22 q 399 -11 446 -4 l 374 -47 q 391 -45 382 -46 q 411 -44 400 -44 q 460 -51 436 -44 q 501 -69 483 -57 q 531 -103 519 -82 q 542 -153 542 -124 q 491 -253 542 -211 q 331 -296 440 -296 q 241 -287 281 -296 q 174 -267 201 -278 l 222 -178 z "},"Ș":{"ha":857,"x_min":18,"x_max":822,"o":"m 682 664 q 596 708 640 689 q 512 740 558 725 q 421 754 465 754 q 363 743 385 754 q 342 706 342 732 q 354 674 342 686 q 390 651 367 661 q 448 631 414 640 q 525 607 482 621 q 648 561 593 586 q 742 502 703 536 q 801 419 781 468 q 822 301 822 371 q 790 152 822 213 q 703 56 757 92 q 583 3 650 19 q 447 -12 515 -12 q 336 -4 393 -12 q 223 19 279 4 q 115 56 167 35 q 18 103 63 76 l 135 340 q 236 286 183 310 q 337 249 281 265 q 451 232 393 232 q 513 244 496 232 q 531 275 531 256 q 513 310 531 296 q 465 336 496 325 q 395 358 435 347 q 311 385 356 369 q 199 433 246 407 q 121 491 151 458 q 76 565 90 524 q 61 661 61 607 q 91 806 61 743 q 172 910 121 868 q 290 973 224 951 q 429 994 356 994 q 535 984 483 994 q 634 958 586 974 q 724 923 682 942 q 799 888 765 904 l 682 664 m 369 -296 l 419 -211 l 340 -211 l 340 -64 l 558 -64 l 558 -211 l 483 -296 l 369 -296 z "},"ș":{"ha":696,"x_min":25,"x_max":672,"o":"m 368 -14 q 181 17 272 -14 q 25 108 89 49 l 115 267 q 247 196 183 221 q 363 171 310 171 q 418 206 418 171 q 397 239 418 225 q 313 271 375 253 q 183 315 235 293 q 98 361 131 336 q 51 417 65 386 q 38 489 38 447 q 60 592 38 544 q 122 674 82 639 q 216 727 161 708 q 336 746 271 746 q 490 725 417 746 q 636 640 563 704 l 536 482 q 422 545 468 526 q 336 564 376 564 q 297 555 313 564 q 282 526 282 546 q 304 492 282 506 q 392 463 326 479 q 525 419 471 442 q 612 369 579 396 q 658 308 644 342 q 672 229 672 274 q 651 128 672 172 q 591 51 631 83 q 495 3 551 19 q 368 -14 439 -14 m 283 -296 l 333 -211 l 254 -211 l 254 -64 l 472 -64 l 472 -211 l 397 -296 l 283 -296 z "},"Ț":{"ha":867,"x_min":14,"x_max":853,"o":"m 853 750 l 569 750 l 569 0 l 299 0 l 299 750 l 14 750 l 14 986 l 853 986 l 853 750 m 360 -296 l 410 -211 l 331 -211 l 331 -64 l 549 -64 l 549 -211 l 474 -296 l 360 -296 z "},"ț":{"ha":588,"x_min":26,"x_max":579,"o":"m 579 40 q 460 1 524 17 q 336 -15 397 -15 q 251 -4 292 -15 q 181 32 211 7 q 134 97 151 57 q 117 197 117 138 l 117 532 l 26 532 l 26 731 l 117 731 l 117 960 l 381 960 l 381 731 l 524 731 l 524 532 l 381 532 l 381 290 q 396 240 381 254 q 438 225 411 225 q 482 231 457 225 q 532 249 507 238 l 579 40 m 251 -296 l 301 -211 l 222 -211 l 222 -64 l 440 -64 l 440 -211 l 365 -296 l 251 -296 z "},"μ":{"ha":907,"x_min":68,"x_max":867,"o":"m 68 731 l 332 731 l 332 310 q 353 235 332 261 q 418 208 374 208 q 475 222 443 208 q 539 283 507 236 l 539 731 l 803 731 l 803 292 q 817 240 803 254 q 867 222 831 225 l 867 0 q 796 -10 826 -7 q 742 -14 765 -14 q 586 88 607 -14 l 581 114 q 552 70 572 93 q 506 28 532 47 q 450 -3 479 10 q 394 -15 421 -15 q 350 -3 371 -15 q 315 36 329 8 l 315 -296 l 68 -296 l 68 731 z "},"∕":{"ha":890,"x_min":-31,"x_max":921,"o":"m -31 110 l 772 1001 l 921 878 l 118 -14 l -31 110 z "},"∙":{"ha":353,"x_min":69,"x_max":283,"o":"m 69 331 l 69 586 l 283 586 l 283 331 l 69 331 z "},"ų":{"ha":888,"x_min":61,"x_max":846,"o":"m 794 -299 q 635 -247 686 -286 q 583 -160 583 -208 q 609 -83 583 -122 q 686 -10 635 -44 q 579 88 596 6 l 574 114 q 451 16 522 46 q 289 -14 381 -14 q 119 53 178 -14 q 61 250 61 121 l 61 731 l 325 731 l 325 310 q 347 235 325 261 q 406 208 368 208 q 468 222 436 208 q 532 283 500 236 l 532 731 l 796 731 l 796 292 q 807 240 796 254 q 846 222 818 225 l 846 0 q 772 -56 797 -28 q 746 -108 746 -85 q 769 -146 746 -132 q 843 -160 793 -160 l 794 -299 l 794 -299 z "},"ů":{"ha":886,"x_min":60,"x_max":844,"o":"m 288 -14 q 118 53 176 -14 q 60 250 60 121 l 60 731 l 324 731 l 324 310 q 345 235 324 261 q 404 208 367 208 q 467 222 435 208 q 531 283 499 236 l 531 731 l 794 731 l 794 292 q 806 240 794 254 q 844 222 817 225 l 844 0 q 733 -14 776 -14 q 578 88 599 -14 l 572 114 q 450 16 521 46 q 288 -14 379 -14 m 265 893 q 309 984 265 954 q 428 1014 353 1014 q 547 984 503 1014 q 590 893 590 954 q 547 802 590 832 q 428 772 503 772 q 309 802 353 772 q 265 893 265 832 m 428 939 q 388 926 404 939 q 372 894 372 914 q 388 860 372 874 q 428 847 404 847 q 467 860 451 847 q 483 894 483 874 q 467 926 483 914 q 428 939 451 939 z "},"ũ":{"ha":886,"x_min":60,"x_max":844,"o":"m 288 -14 q 118 53 176 -14 q 60 250 60 121 l 60 731 l 324 731 l 324 310 q 345 235 324 261 q 404 208 367 208 q 467 222 435 208 q 531 283 499 236 l 531 731 l 794 731 l 794 292 q 806 240 794 254 q 844 222 817 225 l 844 0 q 733 -14 776 -14 q 578 88 599 -14 l 572 114 q 450 16 521 46 q 288 -14 379 -14 m 517 794 q 460 805 485 794 q 415 828 436 815 q 374 851 394 840 q 331 861 354 861 q 294 851 307 861 q 276 829 282 842 q 268 806 269 817 q 267 794 267 796 l 126 794 q 137 849 126 813 q 171 922 147 886 q 231 986 194 958 q 319 1014 267 1014 q 378 1003 353 1014 q 424 978 403 992 q 464 954 444 965 q 507 943 483 943 q 543 953 529 943 q 565 977 557 964 q 574 1001 572 990 q 576 1014 576 1013 l 715 1014 q 704 966 715 1001 q 669 892 693 931 q 608 824 646 854 q 517 794 571 794 z "},"v":{"ha":782,"x_min":1,"x_max":781,"o":"m 247 0 l 1 731 l 272 731 l 403 207 l 535 731 l 781 731 l 535 0 l 247 0 z "},"w":{"ha":1197,"x_min":-14,"x_max":1211,"o":"m 963 731 l 1211 731 l 913 0 l 697 0 l 599 278 l 500 0 l 285 0 l -14 731 l 235 731 l 411 240 l 457 397 l 326 731 l 536 731 l 599 517 l 661 731 l 871 731 l 740 397 l 786 240 l 963 731 z "},"ẃ":{"ha":1197,"x_min":-14,"x_max":1211,"o":"m 963 731 l 1211 731 l 913 0 l 697 0 l 599 278 l 500 0 l 285 0 l -14 731 l 235 731 l 411 240 l 457 397 l 326 731 l 536 731 l 599 517 l 661 731 l 871 731 l 740 397 l 786 240 l 963 731 m 679 772 l 513 817 l 582 1014 l 817 1014 l 679 772 z "},"ŵ":{"ha":1197,"x_min":-14,"x_max":1211,"o":"m 963 731 l 1211 731 l 913 0 l 697 0 l 599 278 l 500 0 l 285 0 l -14 731 l 235 731 l 411 240 l 457 397 l 326 731 l 536 731 l 599 517 l 661 731 l 871 731 l 740 397 l 786 240 l 963 731 m 347 854 l 504 1014 l 693 1014 l 850 854 l 717 796 l 599 883 l 481 796 l 347 854 z "},"ẅ":{"ha":1197,"x_min":-14,"x_max":1211,"o":"m 963 731 l 1211 731 l 913 0 l 697 0 l 599 278 l 500 0 l 285 0 l -14 731 l 235 731 l 411 240 l 457 397 l 326 731 l 536 731 l 599 517 l 661 731 l 871 731 l 740 397 l 786 240 l 963 731 m 331 807 l 331 1001 l 547 1001 l 547 807 l 331 807 m 650 807 l 650 1001 l 867 1001 l 867 807 l 650 807 z "},"ẁ":{"ha":1197,"x_min":-14,"x_max":1211,"o":"m 963 731 l 1211 731 l 913 0 l 697 0 l 599 278 l 500 0 l 285 0 l -14 731 l 235 731 l 411 240 l 457 397 l 326 731 l 536 731 l 599 517 l 661 731 l 871 731 l 740 397 l 786 240 l 963 731 m 381 1015 l 615 1015 l 685 818 l 518 774 l 381 1015 z "},"x":{"ha":769,"x_min":-8,"x_max":778,"o":"m 267 731 l 371 551 l 385 522 l 399 551 l 503 731 l 771 731 l 526 365 l 778 0 l 510 0 l 397 179 l 385 207 l 372 179 l 260 0 l -8 0 l 243 365 l -1 731 l 267 731 z "},"y":{"ha":771,"x_min":-3,"x_max":765,"o":"m 61 -74 q 169 -97 125 -97 q 263 0 254 -97 l -3 731 l 268 731 l 407 224 l 519 731 l 765 731 l 518 -87 q 471 -185 501 -142 q 398 -260 440 -229 q 304 -308 356 -292 q 197 -325 253 -325 q 61 -299 126 -325 l 61 -74 z "},"ý":{"ha":771,"x_min":-3,"x_max":765,"o":"m 61 -74 q 169 -97 125 -97 q 263 0 254 -97 l -3 731 l 268 731 l 407 224 l 519 731 l 765 731 l 518 -87 q 471 -185 501 -142 q 398 -260 440 -229 q 304 -308 356 -292 q 197 -325 253 -325 q 61 -299 126 -325 l 61 -74 m 488 772 l 321 817 l 390 1014 l 625 1014 l 488 772 z "},"ŷ":{"ha":771,"x_min":-3,"x_max":765,"o":"m 61 -74 q 169 -97 125 -97 q 263 0 254 -97 l -3 731 l 268 731 l 407 224 l 519 731 l 765 731 l 518 -87 q 471 -185 501 -142 q 398 -260 440 -229 q 304 -308 356 -292 q 197 -325 253 -325 q 61 -299 126 -325 l 61 -74 m 156 854 l 313 1014 l 501 1014 l 658 854 l 525 796 l 407 883 l 289 796 l 156 854 z "},"ÿ":{"ha":771,"x_min":-3,"x_max":765,"o":"m 61 -74 q 169 -97 125 -97 q 263 0 254 -97 l -3 731 l 268 731 l 407 224 l 519 731 l 765 731 l 518 -87 q 471 -185 501 -142 q 398 -260 440 -229 q 304 -308 356 -292 q 197 -325 253 -325 q 61 -299 126 -325 l 61 -74 m 139 807 l 139 1001 l 356 1001 l 356 807 l 139 807 m 458 807 l 458 1001 l 675 1001 l 675 807 l 458 807 z "},"¥":{"ha":1031,"x_min":42,"x_max":986,"o":"m 786 600 l 875 600 l 875 433 l 700 433 l 646 326 l 646 281 l 876 281 l 876 114 l 646 114 l 646 0 l 376 0 l 376 114 l 147 114 l 147 281 l 376 281 l 376 329 l 324 433 l 149 433 l 149 600 l 239 600 l 42 986 l 335 986 l 511 560 l 692 986 l 986 986 l 786 600 z "},"ỳ":{"ha":771,"x_min":-3,"x_max":765,"o":"m 61 -74 q 169 -97 125 -97 q 263 0 254 -97 l -3 731 l 268 731 l 407 224 l 519 731 l 765 731 l 518 -87 q 471 -185 501 -142 q 398 -260 440 -229 q 304 -308 356 -292 q 197 -325 253 -325 q 61 -299 126 -325 l 61 -74 m 189 1015 l 424 1015 l 493 818 l 326 774 l 189 1015 z "},"ỹ":{"ha":771,"x_min":-3,"x_max":765,"o":"m 61 -74 q 169 -97 125 -97 q 263 0 254 -97 l -3 731 l 268 731 l 407 224 l 519 731 l 765 731 l 518 -87 q 471 -185 501 -142 q 398 -260 440 -229 q 304 -308 356 -292 q 197 -325 253 -325 q 61 -299 126 -325 l 61 -74 m 496 794 q 440 805 464 794 q 394 828 415 815 q 353 851 374 840 q 310 861 333 861 q 274 851 286 861 q 255 829 261 842 q 247 806 249 817 q 246 794 246 796 l 106 794 q 116 849 106 813 q 150 922 126 886 q 210 986 174 958 q 299 1014 246 1014 q 357 1003 332 1014 q 403 978 382 992 q 443 954 424 965 q 486 943 463 943 q 522 953 508 943 q 544 977 536 964 q 553 1001 551 990 q 556 1014 556 1013 l 694 1014 q 683 966 694 1001 q 649 892 672 931 q 588 824 625 854 q 496 794 550 794 z "},"z":{"ha":686,"x_min":31,"x_max":651,"o":"m 31 156 l 364 550 l 51 550 l 51 731 l 639 731 l 639 575 l 307 181 l 651 181 l 651 0 l 31 0 l 31 156 z "},"ź":{"ha":686,"x_min":31,"x_max":651,"o":"m 31 156 l 364 550 l 51 550 l 51 731 l 639 731 l 639 575 l 307 181 l 651 181 l 651 0 l 31 0 l 31 156 m 418 772 l 251 817 l 321 1014 l 556 1014 l 418 772 z "},"ž":{"ha":686,"x_min":31,"x_max":651,"o":"m 31 156 l 364 550 l 51 550 l 51 731 l 639 731 l 639 575 l 307 181 l 651 181 l 651 0 l 31 0 l 31 156 m 219 1014 l 338 926 l 456 1014 l 589 956 l 432 796 l 243 796 l 86 956 l 219 1014 z "},"ż":{"ha":686,"x_min":31,"x_max":651,"o":"m 31 156 l 364 550 l 51 550 l 51 731 l 639 731 l 639 575 l 307 181 l 651 181 l 651 0 l 31 0 l 31 156 m 219 806 l 219 1014 l 456 1014 l 456 806 l 219 806 z "},"₀":{"ha":710,"x_min":36,"x_max":674,"o":"m 356 -133 q 217 -104 276 -133 q 117 -30 157 -75 q 56 70 76 15 q 36 176 36 125 q 58 287 36 232 q 122 386 81 342 q 223 458 164 431 q 356 486 282 486 q 494 456 435 486 q 593 381 553 426 q 653 281 633 336 q 674 176 674 226 q 651 65 674 121 q 588 -34 629 10 q 488 -106 547 -78 q 356 -133 429 -133 m 192 176 q 201 121 192 149 q 231 70 211 93 q 283 33 251 47 q 356 18 314 18 q 429 33 399 18 q 480 72 460 49 q 509 124 500 96 q 518 176 518 151 q 508 232 518 204 q 477 283 497 260 q 426 320 457 306 q 356 335 396 335 q 281 319 311 335 q 230 281 250 304 q 201 229 210 257 q 192 176 192 201 z "},"⁰":{"ha":710,"x_min":36,"x_max":674,"o":"m 356 519 q 217 549 276 519 q 117 623 157 578 q 56 723 76 668 q 36 829 36 778 q 58 940 36 885 q 122 1039 81 994 q 223 1111 164 1083 q 356 1139 282 1139 q 494 1109 435 1139 q 593 1034 553 1079 q 653 934 633 989 q 674 829 674 879 q 651 718 674 774 q 588 619 629 663 q 488 547 547 575 q 356 519 429 519 m 192 829 q 201 774 192 801 q 231 723 211 746 q 283 685 251 700 q 356 671 314 671 q 429 686 399 671 q 480 725 460 701 q 509 776 500 749 q 518 829 518 804 q 508 885 518 857 q 477 935 497 913 q 426 973 457 958 q 356 988 396 988 q 281 972 311 988 q 230 933 250 957 q 201 882 210 910 q 192 829 192 854 z "},"¤":{"ha":790,"x_min":60,"x_max":729,"o":"m 254 704 q 320 727 285 719 q 397 735 356 735 q 472 727 438 735 q 536 707 507 719 l 631 803 l 729 704 l 642 617 q 672 547 661 585 q 683 469 683 510 q 640 321 683 388 l 729 232 l 638 140 l 539 233 q 397 204 481 204 q 251 235 315 204 l 151 140 l 60 232 l 151 324 q 111 469 111 389 q 121 544 111 508 q 150 613 131 581 l 60 704 l 158 803 l 254 704 m 296 469 q 324 389 296 418 q 397 360 353 360 q 470 389 442 360 q 499 469 499 418 q 470 550 499 521 q 397 579 442 579 q 324 550 353 579 q 296 469 296 521 z "}," ":{"ha":1306,"x_min":0,"x_max":0,"o":""}," ":{"ha":863,"x_min":0,"x_max":0,"o":""},"№":{"ha":1600,"x_min":111,"x_max":1593,"o":"m 382 485 l 382 0 l 111 0 l 111 986 l 322 986 l 718 485 l 718 986 l 989 986 l 989 0 l 774 0 l 382 485 m 1328 463 q 1213 484 1263 463 q 1131 542 1164 506 q 1080 627 1097 579 q 1063 728 1063 675 q 1080 828 1063 781 q 1131 913 1097 876 q 1213 972 1164 950 q 1328 993 1263 993 q 1443 972 1393 993 q 1526 913 1493 950 q 1576 828 1560 876 q 1593 728 1593 781 q 1576 627 1593 675 q 1526 542 1560 579 q 1443 484 1493 506 q 1328 463 1393 463 m 1247 728 q 1269 647 1247 676 q 1328 618 1292 618 q 1386 647 1364 618 q 1408 728 1408 676 q 1386 808 1408 779 q 1328 838 1364 838 q 1269 808 1292 838 q 1247 728 1247 779 z "},"̏":{"ha":554,"x_min":7,"x_max":519,"o":"m 271 1014 l 464 1014 l 519 817 l 394 772 l 271 1014 m 7 1014 l 200 1014 l 256 817 l 131 772 l 7 1014 z "},"̑":{"ha":511,"x_min":35,"x_max":476,"o":"m 256 901 q 196 868 221 901 q 171 789 171 835 l 35 789 q 51 880 35 839 q 96 951 67 921 q 166 997 125 981 q 256 1014 207 1014 q 345 997 304 1014 q 415 951 386 981 q 460 880 444 921 q 476 789 476 839 l 340 789 q 312 869 336 838 q 256 901 288 901 z "},"ˉ":{"ha":608,"x_min":89,"x_max":519,"o":"m 89 843 l 89 1000 l 519 1000 l 519 843 l 89 843 z "},"₡":{"ha":813,"x_min":33,"x_max":792,"o":"m 261 18 q 163 76 206 40 q 92 158 121 113 q 48 256 63 203 q 33 365 33 308 q 48 474 33 421 q 92 572 63 526 q 163 653 121 617 q 261 713 206 689 l 261 896 l 378 896 l 378 742 q 406 744 392 743 q 435 744 419 744 q 448 744 442 744 q 461 743 454 744 l 461 896 l 578 896 l 578 724 q 706 654 653 700 q 792 546 760 608 l 535 468 q 433 522 497 522 q 342 481 379 522 q 304 365 304 440 q 342 249 304 290 q 433 208 379 208 q 535 263 497 208 l 792 185 q 706 76 760 122 q 578 7 653 31 l 578 -167 l 461 -167 l 461 -12 q 448 -14 454 -14 q 435 -14 442 -14 q 406 -13 419 -14 q 378 -11 392 -12 l 378 -167 l 261 -167 l 261 18 z "},"₩":{"ha":1621,"x_min":57,"x_max":1563,"o":"m 60 308 l 322 308 l 263 461 l 60 461 l 60 628 l 197 628 l 57 986 l 350 986 l 463 628 l 593 628 l 472 986 l 721 986 l 807 682 l 894 986 l 1143 986 l 1019 628 l 1151 628 l 1264 986 l 1558 986 l 1418 628 l 1563 628 l 1563 461 l 1353 461 l 1293 308 l 1563 308 l 1563 142 l 1228 142 l 1172 0 l 947 0 l 807 353 l 668 0 l 443 0 l 388 142 l 60 142 l 60 308 m 1051 310 l 1099 461 l 999 461 l 1051 310 m 564 310 l 614 461 l 515 461 l 564 310 z "},"₣":{"ha":842,"x_min":49,"x_max":818,"o":"m 142 0 l 142 106 l 49 106 l 49 272 l 142 272 l 142 986 l 818 986 l 818 750 l 413 750 l 413 586 l 743 586 l 743 367 l 413 367 l 413 272 l 558 272 l 558 106 l 413 106 l 413 0 l 142 0 z "},"₦":{"ha":1208,"x_min":54,"x_max":1154,"o":"m 1154 601 l 1043 601 l 1043 365 l 1154 365 l 1154 199 l 1043 199 l 1043 0 l 828 0 l 667 199 l 436 199 l 436 0 l 165 0 l 165 199 l 54 199 l 54 365 l 165 365 l 165 601 l 54 601 l 54 768 l 165 768 l 165 986 l 376 986 l 549 768 l 772 768 l 772 986 l 1043 986 l 1043 768 l 1154 768 l 1154 601 m 436 365 l 532 365 l 436 485 l 436 365 m 772 485 l 772 601 l 679 601 l 772 485 z "},"₤":{"ha":796,"x_min":50,"x_max":782,"o":"m 50 642 l 136 642 q 124 689 129 665 q 119 738 119 713 q 144 838 119 792 q 211 919 168 885 q 311 973 254 953 q 435 993 368 993 q 610 955 526 993 q 754 847 694 917 l 621 685 q 580 723 603 706 q 532 753 557 740 q 481 773 507 765 q 433 781 456 781 q 374 761 396 781 q 353 708 353 742 q 368 642 353 679 l 583 642 l 583 475 l 431 475 q 435 454 433 464 q 436 433 436 444 l 583 433 l 583 267 l 393 267 q 342 203 372 233 q 401 219 375 214 q 450 224 426 224 q 540 213 494 224 q 631 203 586 203 q 674 207 654 203 q 718 221 693 211 l 782 26 q 704 -8 750 6 q 617 -21 658 -21 q 550 -14 585 -21 q 480 2 515 -7 q 408 18 444 11 q 338 25 372 25 q 244 15 297 25 q 138 -12 190 4 l 85 174 q 172 267 138 206 l 50 267 l 50 433 l 210 433 q 205 454 207 444 q 200 475 203 464 l 50 475 l 50 642 z "},"₹":{"ha":804,"x_min":56,"x_max":751,"o":"m 751 560 l 600 560 q 542 448 583 499 q 443 363 501 397 l 693 0 l 388 0 l 56 511 l 269 511 q 322 560 301 511 l 56 560 l 56 726 l 321 726 q 294 765 310 751 q 263 778 278 778 l 56 778 l 56 986 l 751 986 l 751 819 l 563 819 q 601 726 589 772 l 751 726 l 751 560 z "},"℠":{"ha":1182,"x_min":47,"x_max":1106,"o":"m 853 986 l 1106 986 l 1106 557 l 939 557 l 939 781 l 872 615 l 738 615 l 671 781 l 671 557 l 504 557 l 504 986 l 756 986 l 804 804 l 853 986 m 386 835 q 311 864 342 854 q 253 874 281 874 q 224 870 235 874 q 213 858 213 867 q 227 842 213 849 q 286 828 242 836 q 421 773 383 803 q 458 692 458 743 q 408 587 458 625 q 272 549 358 549 q 214 553 244 549 q 153 564 183 557 q 95 580 122 571 q 47 600 68 589 l 107 719 q 192 683 151 696 q 268 671 233 671 q 310 685 310 671 q 293 699 310 693 q 231 715 276 706 q 105 767 140 739 q 69 844 69 796 q 121 953 69 911 q 253 994 172 994 q 446 947 340 994 l 386 835 z "},"Ə":{"ha":1053,"x_min":17,"x_max":1022,"o":"m 521 -7 q 303 38 397 -7 q 145 153 208 83 q 49 308 82 224 q 17 469 17 392 q 19 523 17 496 q 25 571 22 550 l 726 571 q 703 654 722 619 q 657 711 685 689 q 594 744 629 733 q 524 754 560 754 q 466 747 494 754 q 413 725 438 739 q 371 691 389 711 q 344 644 353 671 l 63 724 q 134 833 90 783 q 236 918 178 883 q 366 972 294 953 q 521 992 438 992 q 735 947 642 992 q 892 831 829 901 q 989 676 956 761 q 1022 508 1022 590 q 990 323 1022 415 q 894 158 958 231 q 737 39 831 85 q 521 -7 643 -7 m 525 229 q 656 267 604 229 q 719 372 708 304 l 317 372 q 385 267 329 304 q 525 229 442 229 z "},"Ǵ":{"ha":1026,"x_min":32,"x_max":978,"o":"m 754 82 q 511 -7 649 -7 q 328 27 415 -7 q 175 126 240 61 q 71 286 110 192 q 32 501 32 381 q 71 695 32 606 q 178 851 110 785 q 338 955 246 917 q 538 993 431 993 q 665 978 604 993 q 778 935 726 964 q 872 867 831 907 q 940 778 914 828 l 739 624 q 651 717 710 682 q 528 753 593 753 q 439 733 479 753 q 369 679 399 714 q 324 597 340 644 q 307 492 307 549 q 324 386 307 433 q 370 305 340 339 q 442 252 400 271 q 535 233 483 233 q 743 331 653 233 l 572 331 l 572 525 l 978 525 l 978 0 l 754 0 l 754 82 m 622 1028 l 456 1072 l 525 1269 l 760 1269 l 622 1028 z "},"Ọ":{"ha":1063,"x_min":31,"x_max":1032,"o":"m 529 -8 q 325 35 417 -8 q 168 148 233 78 q 67 308 103 218 q 31 494 31 399 q 68 682 31 592 q 173 841 106 772 q 333 951 240 910 q 535 992 425 992 q 739 949 647 992 q 896 835 831 906 q 997 674 961 764 q 1032 489 1032 583 q 994 302 1032 392 q 890 144 957 213 q 731 33 824 75 q 529 -8 639 -8 m 306 492 q 319 395 306 442 q 361 313 333 349 q 431 254 389 276 q 532 232 474 232 q 633 255 590 232 q 703 315 676 278 q 744 399 731 351 q 757 494 757 446 q 743 591 757 544 q 701 673 729 638 q 630 730 672 708 q 531 751 588 751 q 430 729 472 751 q 360 670 388 707 q 319 587 332 633 q 306 492 306 540 m 410 -296 l 410 -87 l 646 -87 l 646 -296 l 410 -296 z "},"≈":{"ha":647,"x_min":56,"x_max":592,"o":"m 592 533 q 565 486 581 510 q 527 444 549 463 q 479 413 506 425 q 419 401 453 401 q 363 412 388 401 q 318 435 339 422 q 277 458 297 447 q 233 468 257 468 q 197 458 210 468 q 178 436 185 449 l 56 497 q 82 542 67 519 q 118 582 97 564 q 165 610 139 600 q 222 621 190 621 q 281 610 256 621 q 326 585 306 599 q 367 561 347 572 q 410 550 386 550 q 449 562 435 550 q 471 589 464 574 l 592 533 m 592 278 q 565 231 581 254 q 527 188 549 207 q 479 158 506 169 q 419 146 453 146 q 363 156 388 146 q 318 179 339 167 q 277 202 297 192 q 233 213 257 213 q 197 203 210 213 q 178 181 185 193 l 56 242 q 82 286 67 264 q 118 326 97 308 q 165 355 139 344 q 222 365 190 365 q 281 354 256 365 q 326 330 306 343 q 367 306 347 317 q 410 294 386 294 q 449 306 435 294 q 471 333 464 318 l 592 278 z "},"≠":{"ha":615,"x_min":82,"x_max":532,"o":"m 83 613 l 357 613 l 442 793 l 532 746 l 468 613 l 532 613 l 532 446 l 390 446 l 331 321 l 532 321 l 532 154 l 253 154 l 172 -17 l 82 28 l 142 154 l 83 154 l 83 321 l 219 321 l 278 446 l 83 446 l 83 613 z "},"≤":{"ha":688,"x_min":57,"x_max":585,"o":"m 57 1 l 57 210 l 585 210 l 585 1 l 57 1 m 63 683 l 583 917 l 583 664 l 308 588 l 583 522 l 583 269 l 63 478 l 63 683 z "},"≥":{"ha":688,"x_min":103,"x_max":631,"o":"m 103 1 l 103 210 l 631 210 l 631 1 l 103 1 m 625 478 l 104 269 l 104 522 l 379 588 l 104 664 l 104 917 l 625 683 l 625 478 z "},"Ǳ":{"ha":1846,"x_min":85,"x_max":1801,"o":"m 85 0 l 85 986 l 464 986 q 679 947 586 986 q 835 842 772 908 q 929 685 897 775 q 961 494 961 596 q 926 291 961 382 q 825 135 890 200 q 668 35 760 71 q 464 0 576 0 l 85 0 m 686 494 q 671 599 686 551 q 627 679 656 646 q 557 731 599 713 q 464 750 515 750 l 356 750 l 356 236 l 464 236 q 558 256 517 236 q 628 310 600 275 q 672 392 657 344 q 686 494 686 439 m 1019 201 l 1481 750 l 1040 750 l 1040 986 l 1793 986 l 1793 785 l 1360 236 l 1801 236 l 1801 0 l 1019 0 l 1019 201 z "},"ǲ":{"ha":1672,"x_min":85,"x_max":1638,"o":"m 85 0 l 85 986 l 464 986 q 679 947 586 986 q 835 842 772 908 q 929 685 897 775 q 961 494 961 596 q 926 291 961 382 q 825 135 890 200 q 668 35 760 71 q 464 0 576 0 l 85 0 m 686 494 q 671 599 686 551 q 627 679 656 646 q 557 731 599 713 q 464 750 515 750 l 356 750 l 356 236 l 464 236 q 558 256 517 236 q 628 310 600 275 q 672 392 657 344 q 686 494 686 439 m 1017 156 l 1350 550 l 1038 550 l 1038 731 l 1625 731 l 1625 575 l 1293 181 l 1638 181 l 1638 0 l 1017 0 l 1017 156 z "},"ǳ":{"ha":1610,"x_min":28,"x_max":1575,"o":"m 372 -14 q 234 14 297 -14 q 125 92 171 42 q 53 213 79 143 q 28 367 28 283 q 51 517 28 447 q 117 637 75 586 q 218 716 160 688 q 347 744 276 744 q 477 713 418 744 q 568 622 536 681 l 568 1014 l 832 1014 l 832 292 q 843 240 832 254 q 882 222 854 225 l 882 0 q 771 -14 814 -14 q 615 88 636 -14 l 610 114 q 508 17 572 47 q 372 -14 444 -14 m 444 208 q 569 283 517 208 l 569 414 q 513 492 550 463 q 433 522 475 522 q 380 510 404 522 q 338 475 356 497 q 310 424 321 453 q 300 361 300 394 q 340 250 300 292 q 444 208 379 208 m 954 156 l 1288 550 l 975 550 l 975 731 l 1563 731 l 1563 575 l 1231 181 l 1575 181 l 1575 0 l 954 0 l 954 156 z "},"Ǉ":{"ha":1504,"x_min":85,"x_max":1431,"o":"m 85 0 l 85 986 l 356 986 l 356 236 l 803 236 l 803 0 l 85 0 m 871 267 q 889 257 875 264 q 924 243 903 250 q 972 231 944 236 q 1028 225 999 225 q 1097 239 1071 225 q 1138 284 1124 253 q 1156 365 1151 315 q 1160 485 1160 414 l 1160 986 l 1431 986 l 1431 485 q 1418 280 1431 372 q 1364 122 1406 188 q 1242 21 1322 57 q 1028 -15 1163 -15 q 814 46 903 -15 l 871 267 z "},"ǈ":{"ha":1215,"x_min":85,"x_max":1149,"o":"m 85 0 l 85 986 l 356 986 l 356 236 l 803 236 l 803 0 l 85 0 m 863 -290 q 751 -271 804 -290 q 656 -215 699 -251 l 764 -36 q 829 -64 789 -64 q 885 -4 885 -64 l 885 731 l 1149 731 l 1149 17 q 1128 -108 1149 -51 q 1069 -205 1107 -164 q 978 -268 1031 -246 q 863 -290 925 -290 m 885 792 l 885 1014 l 1149 1014 l 1149 792 l 885 792 z "},"ǉ":{"ha":896,"x_min":61,"x_max":829,"o":"m 61 1014 l 325 1014 l 325 290 q 393 207 325 207 q 429 213 410 207 q 465 228 449 218 l 499 33 q 392 -1 451 11 q 281 -14 333 -14 q 118 40 175 -14 q 61 197 61 94 l 61 1014 m 543 -290 q 432 -271 485 -290 q 336 -215 379 -251 l 444 -36 q 510 -64 469 -64 q 565 -4 565 -64 l 565 731 l 829 731 l 829 17 q 808 -108 829 -51 q 749 -205 788 -164 q 658 -268 711 -246 q 543 -290 606 -290 m 565 792 l 565 1014 l 829 1014 l 829 792 l 565 792 z "},"Ǌ":{"ha":1739,"x_min":85,"x_max":1665,"o":"m 356 485 l 356 0 l 85 0 l 85 986 l 296 986 l 692 485 l 692 986 l 963 986 l 963 0 l 747 0 l 356 485 m 1106 267 q 1124 257 1110 264 q 1158 243 1138 250 q 1206 231 1179 236 q 1263 225 1233 225 q 1332 239 1306 225 q 1372 284 1358 253 q 1390 365 1386 315 q 1394 485 1394 414 l 1394 986 l 1665 986 l 1665 485 q 1653 280 1665 372 q 1599 122 1640 188 q 1477 21 1557 57 q 1263 -15 1397 -15 q 1049 46 1138 -15 l 1106 267 z "},"ǋ":{"ha":1450,"x_min":85,"x_max":1383,"o":"m 356 485 l 356 0 l 85 0 l 85 986 l 296 986 l 692 485 l 692 986 l 963 986 l 963 0 l 747 0 l 356 485 m 1097 -290 q 986 -271 1039 -290 q 890 -215 933 -251 l 999 -36 q 1064 -64 1024 -64 q 1119 -4 1119 -64 l 1119 731 l 1383 731 l 1383 17 q 1363 -108 1383 -51 q 1303 -205 1342 -164 q 1213 -268 1265 -246 q 1097 -290 1160 -290 m 1119 792 l 1119 1014 l 1383 1014 l 1383 792 l 1119 792 z "},"ǌ":{"ha":1265,"x_min":67,"x_max":1199,"o":"m 801 0 l 538 0 l 538 411 q 513 490 538 465 q 457 514 489 514 q 386 485 424 514 q 331 410 349 456 l 331 0 l 67 0 l 67 731 l 304 731 l 304 622 q 413 713 343 682 q 579 744 483 744 q 698 717 654 744 q 765 650 742 690 q 794 564 788 610 q 801 481 801 518 l 801 0 m 913 -290 q 801 -271 854 -290 q 706 -215 749 -251 l 814 -36 q 879 -64 839 -64 q 935 -4 935 -64 l 935 731 l 1199 731 l 1199 17 q 1178 -108 1199 -51 q 1119 -205 1157 -164 q 1028 -268 1081 -246 q 913 -290 975 -290 m 935 792 l 935 1014 l 1199 1014 l 1199 792 l 935 792 z "},"Ǆ":{"ha":1858,"x_min":85,"x_max":1814,"o":"m 85 0 l 85 986 l 464 986 q 679 947 586 986 q 835 842 772 908 q 929 685 897 775 q 961 494 961 596 q 926 291 961 382 q 825 135 890 200 q 668 35 760 71 q 464 0 576 0 l 85 0 m 686 494 q 671 599 686 551 q 627 679 656 646 q 557 731 599 713 q 464 750 515 750 l 356 750 l 356 236 l 464 236 q 558 256 517 236 q 628 310 600 275 q 672 392 657 344 q 686 494 686 439 m 1032 201 l 1493 750 l 1053 750 l 1053 986 l 1806 986 l 1806 785 l 1372 236 l 1814 236 l 1814 0 l 1032 0 l 1032 201 m 1321 1269 l 1439 1182 l 1557 1269 l 1690 1211 l 1533 1051 l 1344 1051 l 1188 1211 l 1321 1269 z "},"ǅ":{"ha":1681,"x_min":85,"x_max":1646,"o":"m 85 0 l 85 986 l 464 986 q 679 947 586 986 q 835 842 772 908 q 929 685 897 775 q 961 494 961 596 q 926 291 961 382 q 825 135 890 200 q 668 35 760 71 q 464 0 576 0 l 85 0 m 686 494 q 671 599 686 551 q 627 679 656 646 q 557 731 599 713 q 464 750 515 750 l 356 750 l 356 236 l 464 236 q 558 256 517 236 q 628 310 600 275 q 672 392 657 344 q 686 494 686 439 m 1025 156 l 1358 550 l 1046 550 l 1046 731 l 1633 731 l 1633 575 l 1301 181 l 1646 181 l 1646 0 l 1025 0 l 1025 156 m 1214 1014 l 1332 926 l 1450 1014 l 1583 956 l 1426 796 l 1238 796 l 1081 956 l 1214 1014 z "},"ǆ":{"ha":1610,"x_min":28,"x_max":1575,"o":"m 372 -14 q 234 14 297 -14 q 125 92 171 42 q 53 213 79 143 q 28 367 28 283 q 51 517 28 447 q 117 637 75 586 q 218 716 160 688 q 347 744 276 744 q 477 713 418 744 q 568 622 536 681 l 568 1014 l 832 1014 l 832 292 q 843 240 832 254 q 882 222 854 225 l 882 0 q 771 -14 814 -14 q 615 88 636 -14 l 610 114 q 508 17 572 47 q 372 -14 444 -14 m 444 208 q 569 283 517 208 l 569 414 q 513 492 550 463 q 433 522 475 522 q 380 510 404 522 q 338 475 356 497 q 310 424 321 453 q 300 361 300 394 q 340 250 300 292 q 444 208 379 208 m 954 156 l 1288 550 l 975 550 l 975 731 l 1563 731 l 1563 575 l 1231 181 l 1575 181 l 1575 0 l 954 0 l 954 156 m 1143 1014 l 1261 926 l 1379 1014 l 1513 956 l 1356 796 l 1167 796 l 1010 956 l 1143 1014 z "},"Ȁ":{"ha":926,"x_min":-3,"x_max":929,"o":"m 340 986 l 588 986 l 929 0 l 654 0 l 594 193 l 332 193 l 274 0 l -3 0 l 340 986 m 551 374 l 464 679 l 372 374 l 551 374 m 449 1271 l 642 1271 l 697 1074 l 572 1029 l 449 1271 m 185 1271 l 378 1271 l 433 1074 l 308 1029 l 185 1271 z "},"Ȃ":{"ha":926,"x_min":-3,"x_max":929,"o":"m 340 986 l 588 986 l 929 0 l 654 0 l 594 193 l 332 193 l 274 0 l -3 0 l 340 986 m 551 374 l 464 679 l 372 374 l 551 374 m 464 1157 q 404 1124 429 1157 q 379 1044 379 1090 l 243 1044 q 259 1135 243 1094 q 304 1206 275 1176 q 374 1253 333 1236 q 464 1269 415 1269 q 553 1253 513 1269 q 624 1206 594 1236 q 669 1135 653 1176 q 685 1044 685 1094 l 549 1044 q 520 1125 544 1093 q 464 1157 496 1157 z "},"Ḍ":{"ha":994,"x_min":85,"x_max":961,"o":"m 85 0 l 85 986 l 464 986 q 679 947 586 986 q 835 842 772 908 q 929 685 897 775 q 961 494 961 596 q 926 291 961 382 q 825 135 890 200 q 668 35 760 71 q 464 0 576 0 l 85 0 m 686 494 q 671 599 686 551 q 627 679 656 646 q 557 731 599 713 q 464 750 515 750 l 356 750 l 356 236 l 464 236 q 558 256 517 236 q 628 310 600 275 q 672 392 657 344 q 686 494 686 439 m 361 -296 l 361 -87 l 597 -87 l 597 -296 l 361 -296 z "},"Ẹ":{"ha":829,"x_min":85,"x_max":788,"o":"m 788 236 l 788 0 l 85 0 l 85 986 l 775 986 l 775 750 l 356 750 l 356 611 l 714 611 l 714 392 l 356 392 l 356 236 l 788 236 m 322 -296 l 322 -87 l 558 -87 l 558 -296 l 322 -296 z "},"Ȅ":{"ha":829,"x_min":85,"x_max":788,"o":"m 788 236 l 788 0 l 85 0 l 85 986 l 775 986 l 775 750 l 356 750 l 356 611 l 714 611 l 714 392 l 356 392 l 356 236 l 788 236 m 403 1271 l 596 1271 l 651 1074 l 526 1029 l 403 1271 m 139 1271 l 332 1271 l 388 1074 l 263 1029 l 139 1271 z "},"Ȇ":{"ha":829,"x_min":85,"x_max":788,"o":"m 788 236 l 788 0 l 85 0 l 85 986 l 775 986 l 775 750 l 356 750 l 356 611 l 714 611 l 714 392 l 356 392 l 356 236 l 788 236 m 435 1157 q 375 1124 400 1157 q 350 1044 350 1090 l 214 1044 q 230 1135 214 1094 q 275 1206 246 1176 q 345 1253 304 1236 q 435 1269 386 1269 q 524 1253 483 1269 q 594 1206 565 1236 q 640 1135 624 1176 q 656 1044 656 1094 l 519 1044 q 491 1125 515 1093 q 435 1157 467 1157 z "},"Ḥ":{"ha":1042,"x_min":85,"x_max":957,"o":"m 957 986 l 957 0 l 686 0 l 686 386 l 356 386 l 356 0 l 85 0 l 85 986 l 356 986 l 356 622 l 686 622 l 686 986 l 957 986 m 399 -296 l 399 -87 l 635 -87 l 635 -296 l 399 -296 z "},"Ị":{"ha":440,"x_min":85,"x_max":356,"o":"m 85 0 l 85 986 l 356 986 l 356 0 l 85 0 m 100 -296 l 100 -87 l 336 -87 l 336 -296 l 100 -296 z "},"Ȉ":{"ha":440,"x_min":-58,"x_max":454,"o":"m 85 0 l 85 986 l 356 986 l 356 0 l 85 0 m 206 1271 l 399 1271 l 454 1074 l 329 1029 l 206 1271 m -58 1271 l 135 1271 l 190 1074 l 65 1029 l -58 1271 z "}}}
